solid OpenSCAD_Model
  facet normal 0 0 -1
    outer loop
      vertex -44.5 0 55
      vertex -43.5276 9.25207 55
      vertex -43.5276 -9.25207 55
    endloop
  endfacet
  facet normal 0 0 -1
    outer loop
      vertex -43.5276 -9.25207 55
      vertex -43.5276 9.25207 55
      vertex -40.6528 18.0998 55
    endloop
  endfacet
  facet normal 0 0 -1
    outer loop
      vertex -43.5276 -9.25207 55
      vertex -40.6528 18.0998 55
      vertex -36.0013 26.1564 55
    endloop
  endfacet
  facet normal 0 0 -1
    outer loop
      vertex -35.518 15.8136 55
      vertex -36.0013 26.1564 55
      vertex -29.7763 33.0699 55
    endloop
  endfacet
  facet normal 0 0 -1
    outer loop
      vertex -31.454 22.8527 55
      vertex -29.7763 33.0699 55
      vertex -22.25 38.5381 55
    endloop
  endfacet
  facet normal 0 0 -1
    outer loop
      vertex -19.4397 33.6705 55
      vertex -22.25 38.5381 55
      vertex -13.7513 42.322 55
    endloop
  endfacet
  facet normal 0 0 -1
    outer loop
      vertex -12.0144 36.9764 55
      vertex -13.7513 42.322 55
      vertex -4.65152 44.2562 55
    endloop
  endfacet
  facet normal 0 0 -1
    outer loop
      vertex -4.06399 38.6663 55
      vertex -4.65152 44.2562 55
      vertex 4.65152 44.2562 55
    endloop
  endfacet
  facet normal 0 0 -1
    outer loop
      vertex 4.06399 38.6663 55
      vertex 4.65152 44.2562 55
      vertex 13.7513 42.322 55
    endloop
  endfacet
  facet normal 0 0 -1
    outer loop
      vertex 12.0144 36.9764 55
      vertex 13.7513 42.322 55
      vertex 22.25 38.5381 55
    endloop
  endfacet
  facet normal 0 0 -1
    outer loop
      vertex 19.4397 33.6705 55
      vertex 22.25 38.5381 55
      vertex 29.7763 33.0699 55
    endloop
  endfacet
  facet normal 0 0 -1
    outer loop
      vertex 26.0153 28.893 55
      vertex 29.7763 33.0699 55
      vertex 36.0013 26.1564 55
    endloop
  endfacet
  facet normal 0 0 -1
    outer loop
      vertex 31.454 22.8527 55
      vertex 36.0013 26.1564 55
      vertex 40.6528 18.0998 55
    endloop
  endfacet
  facet normal 0 0 -1
    outer loop
      vertex 38.0297 8.08346 55
      vertex 40.6528 18.0998 55
      vertex 43.5276 9.25207 55
    endloop
  endfacet
  facet normal 0 0 -1
    outer loop
      vertex 38.8793 0 55
      vertex 43.5276 9.25207 55
      vertex 44.5 0 55
    endloop
  endfacet
  facet normal 0 0 -1
    outer loop
      vertex 38.0297 -8.08346 55
      vertex 44.5 0 55
      vertex 43.5276 -9.25207 55
    endloop
  endfacet
  facet normal 0 0 -1
    outer loop
      vertex 35.518 -15.8136 55
      vertex 43.5276 -9.25207 55
      vertex 40.6528 -18.0998 55
    endloop
  endfacet
  facet normal 0 0 -1
    outer loop
      vertex 31.454 -22.8527 55
      vertex 40.6528 -18.0998 55
      vertex 36.0013 -26.1564 55
    endloop
  endfacet
  facet normal 0 0 -1
    outer loop
      vertex 26.0153 -28.893 55
      vertex 36.0013 -26.1564 55
      vertex 29.7763 -33.0699 55
    endloop
  endfacet
  facet normal 0 0 -1
    outer loop
      vertex 19.4397 -33.6705 55
      vertex 29.7763 -33.0699 55
      vertex 22.25 -38.5381 55
    endloop
  endfacet
  facet normal 0 0 -1
    outer loop
      vertex 12.0144 -36.9764 55
      vertex 22.25 -38.5381 55
      vertex 13.7513 -42.322 55
    endloop
  endfacet
  facet normal 0 0 -1
    outer loop
      vertex 4.06399 -38.6663 55
      vertex 13.7513 -42.322 55
      vertex 4.65152 -44.2562 55
    endloop
  endfacet
  facet normal 0 0 -1
    outer loop
      vertex -12.0144 -36.9764 55
      vertex 4.65152 -44.2562 55
      vertex -4.65152 -44.2562 55
    endloop
  endfacet
  facet normal 0 0 -1
    outer loop
      vertex -19.4397 -33.6705 55
      vertex -4.65152 -44.2562 55
      vertex -13.7513 -42.322 55
    endloop
  endfacet
  facet normal 0 0 -1
    outer loop
      vertex -26.0153 -28.893 55
      vertex -13.7513 -42.322 55
      vertex -22.25 -38.5381 55
    endloop
  endfacet
  facet normal 0 0 -1
    outer loop
      vertex -43.5276 -9.25207 55
      vertex -22.25 -38.5381 55
      vertex -29.7763 -33.0699 55
    endloop
  endfacet
  facet normal 0 0 -1
    outer loop
      vertex -43.5276 -9.25207 55
      vertex -29.7763 -33.0699 55
      vertex -36.0013 -26.1564 55
    endloop
  endfacet
  facet normal 0 0 -1
    outer loop
      vertex -43.5276 -9.25207 55
      vertex -36.0013 -26.1564 55
      vertex -40.6528 -18.0998 55
    endloop
  endfacet
  facet normal 0 0 -1
    outer loop
      vertex -38.0297 -8.08346 55
      vertex -43.5276 -9.25207 55
      vertex -38.8482 -0.295736 55
    endloop
  endfacet
  facet normal 0 0 -1
    outer loop
      vertex -43.5276 -9.25207 55
      vertex -38.8793 0 55
      vertex -38.8482 -0.295736 55
    endloop
  endfacet
  facet normal 0 0 -1
    outer loop
      vertex -35.518 -15.8136 55
      vertex -43.5276 -9.25207 55
      vertex -37.9378 -8.36627 55
    endloop
  endfacet
  facet normal 0 0 -1
    outer loop
      vertex -43.5276 -9.25207 55
      vertex -38.0297 -8.08346 55
      vertex -37.9378 -8.36627 55
    endloop
  endfacet
  facet normal 0 0 -1
    outer loop
      vertex -31.454 -22.8527 55
      vertex -43.5276 -9.25207 55
      vertex -35.3693 -16.0712 55
    endloop
  endfacet
  facet normal 0 0 -1
    outer loop
      vertex -43.5276 -9.25207 55
      vertex -35.518 -15.8136 55
      vertex -35.3693 -16.0712 55
    endloop
  endfacet
  facet normal 0 0 -1
    outer loop
      vertex -19.4397 -33.6705 55
      vertex -13.7513 -42.322 55
      vertex -25.7748 -29.0677 55
    endloop
  endfacet
  facet normal 0 0 -1
    outer loop
      vertex -43.5276 -9.25207 55
      vertex -31.454 -22.8527 55
      vertex -22.25 -38.5381 55
    endloop
  endfacet
  facet normal 0 0 -1
    outer loop
      vertex -31.454 -22.8527 55
      vertex -31.255 -23.0737 55
      vertex -22.25 -38.5381 55
    endloop
  endfacet
  facet normal 0 0 -1
    outer loop
      vertex -31.255 -23.0737 55
      vertex -26.0153 -28.893 55
      vertex -22.25 -38.5381 55
    endloop
  endfacet
  facet normal 0 0 -1
    outer loop
      vertex -25.7748 -29.0677 55
      vertex -13.7513 -42.322 55
      vertex -26.0153 -28.893 55
    endloop
  endfacet
  facet normal 0 0 -1
    outer loop
      vertex -19.168 -33.7914 55
      vertex -4.65152 -44.2562 55
      vertex -19.4397 -33.6705 55
    endloop
  endfacet
  facet normal 0 0 -1
    outer loop
      vertex -11.7235 -37.0382 55
      vertex 4.65152 -44.2562 55
      vertex -12.0144 -36.9764 55
    endloop
  endfacet
  facet normal 0 0 -1
    outer loop
      vertex 4.06399 -38.6663 55
      vertex 4.65152 -44.2562 55
      vertex -4.06399 -38.6663 55
    endloop
  endfacet
  facet normal 0 0 -1
    outer loop
      vertex -4.06399 -38.6663 55
      vertex 4.65152 -44.2562 55
      vertex -11.7235 -37.0382 55
    endloop
  endfacet
  facet normal 0 0 -1
    outer loop
      vertex 4.35486 -38.6045 55
      vertex 13.7513 -42.322 55
      vertex 4.06399 -38.6663 55
    endloop
  endfacet
  facet normal 0 0 -1
    outer loop
      vertex -12.0144 -36.9764 55
      vertex -4.65152 -44.2562 55
      vertex -19.168 -33.7914 55
    endloop
  endfacet
  facet normal 0 0 -1
    outer loop
      vertex 12.286 -36.8555 55
      vertex 22.25 -38.5381 55
      vertex 12.0144 -36.9764 55
    endloop
  endfacet
  facet normal 0 0 -1
    outer loop
      vertex 19.6802 -33.4957 55
      vertex 29.7763 -33.0699 55
      vertex 19.4397 -33.6705 55
    endloop
  endfacet
  facet normal 0 0 -1
    outer loop
      vertex 26.2143 -28.672 55
      vertex 36.0013 -26.1564 55
      vertex 26.0153 -28.893 55
    endloop
  endfacet
  facet normal 0 0 -1
    outer loop
      vertex 31.6027 -22.5952 55
      vertex 40.6528 -18.0998 55
      vertex 31.454 -22.8527 55
    endloop
  endfacet
  facet normal 0 0 -1
    outer loop
      vertex 35.6099 -15.5308 55
      vertex 43.5276 -9.25207 55
      vertex 35.518 -15.8136 55
    endloop
  endfacet
  facet normal 0 0 -1
    outer loop
      vertex 38.0608 -7.78773 55
      vertex 44.5 0 55
      vertex 38.0297 -8.08346 55
    endloop
  endfacet
  facet normal 0 0 -1
    outer loop
      vertex 38.8482 0.295736 55
      vertex 43.5276 9.25207 55
      vertex 38.8793 0 55
    endloop
  endfacet
  facet normal 0 0 -1
    outer loop
      vertex 38.0297 8.08346 55
      vertex 43.5276 9.25207 55
      vertex 38.8482 0.295736 55
    endloop
  endfacet
  facet normal 0 0 -1
    outer loop
      vertex 37.9378 8.36627 55
      vertex 40.6528 18.0998 55
      vertex 38.0297 8.08346 55
    endloop
  endfacet
  facet normal 0 0 -1
    outer loop
      vertex 35.518 15.8136 55
      vertex 40.6528 18.0998 55
      vertex 37.9378 8.36627 55
    endloop
  endfacet
  facet normal 0 0 -1
    outer loop
      vertex 35.3693 16.0712 55
      vertex 40.6528 18.0998 55
      vertex 35.518 15.8136 55
    endloop
  endfacet
  facet normal 0 0 -1
    outer loop
      vertex 38.8793 0 55
      vertex 44.5 0 55
      vertex 38.0608 -7.78773 55
    endloop
  endfacet
  facet normal 0 0 -1
    outer loop
      vertex 31.255 23.0737 55
      vertex 36.0013 26.1564 55
      vertex 31.454 22.8527 55
    endloop
  endfacet
  facet normal 0 0 -1
    outer loop
      vertex 38.0297 -8.08346 55
      vertex 43.5276 -9.25207 55
      vertex 35.6099 -15.5308 55
    endloop
  endfacet
  facet normal 0 0 -1
    outer loop
      vertex 25.7748 29.0677 55
      vertex 29.7763 33.0699 55
      vertex 26.0153 28.893 55
    endloop
  endfacet
  facet normal 0 0 -1
    outer loop
      vertex 35.518 -15.8136 55
      vertex 40.6528 -18.0998 55
      vertex 31.6027 -22.5952 55
    endloop
  endfacet
  facet normal 0 0 -1
    outer loop
      vertex 19.168 33.7914 55
      vertex 22.25 38.5381 55
      vertex 19.4397 33.6705 55
    endloop
  endfacet
  facet normal 0 0 -1
    outer loop
      vertex 31.454 -22.8527 55
      vertex 36.0013 -26.1564 55
      vertex 26.2143 -28.672 55
    endloop
  endfacet
  facet normal 0 0 -1
    outer loop
      vertex 11.7235 37.0382 55
      vertex 13.7513 42.322 55
      vertex 12.0144 36.9764 55
    endloop
  endfacet
  facet normal 0 0 -1
    outer loop
      vertex 26.0153 -28.893 55
      vertex 29.7763 -33.0699 55
      vertex 19.6802 -33.4957 55
    endloop
  endfacet
  facet normal 0 0 -1
    outer loop
      vertex 19.4397 -33.6705 55
      vertex 22.25 -38.5381 55
      vertex 12.286 -36.8555 55
    endloop
  endfacet
  facet normal 0 0 -1
    outer loop
      vertex -4.35486 38.6045 55
      vertex -4.65152 44.2562 55
      vertex -4.06399 38.6663 55
    endloop
  endfacet
  facet normal 0 0 -1
    outer loop
      vertex 12.0144 -36.9764 55
      vertex 13.7513 -42.322 55
      vertex 4.35486 -38.6045 55
    endloop
  endfacet
  facet normal 0 0 -1
    outer loop
      vertex -12.286 36.8555 55
      vertex -13.7513 42.322 55
      vertex -12.0144 36.9764 55
    endloop
  endfacet
  facet normal 0 0 -1
    outer loop
      vertex -19.6802 33.4957 55
      vertex -22.25 38.5381 55
      vertex -19.4397 33.6705 55
    endloop
  endfacet
  facet normal 0 0 -1
    outer loop
      vertex -31.454 22.8527 55
      vertex -22.25 38.5381 55
      vertex -26.2143 28.672 55
    endloop
  endfacet
  facet normal 0 0 -1
    outer loop
      vertex -26.0153 28.893 55
      vertex -22.25 38.5381 55
      vertex -19.6802 33.4957 55
    endloop
  endfacet
  facet normal 0 0 -1
    outer loop
      vertex -26.2143 28.672 55
      vertex -22.25 38.5381 55
      vertex -26.0153 28.893 55
    endloop
  endfacet
  facet normal 0 0 -1
    outer loop
      vertex -31.6027 22.5952 55
      vertex -29.7763 33.0699 55
      vertex -31.454 22.8527 55
    endloop
  endfacet
  facet normal 0 0 -1
    outer loop
      vertex -19.4397 33.6705 55
      vertex -13.7513 42.322 55
      vertex -12.286 36.8555 55
    endloop
  endfacet
  facet normal 0 0 -1
    outer loop
      vertex -35.6099 15.5308 55
      vertex -36.0013 26.1564 55
      vertex -35.518 15.8136 55
    endloop
  endfacet
  facet normal 0 0 -1
    outer loop
      vertex -38.0608 7.78773 55
      vertex -43.5276 -9.25207 55
      vertex -38.0297 8.08346 55
    endloop
  endfacet
  facet normal 0 0 -1
    outer loop
      vertex -38.0297 8.08346 55
      vertex -36.0013 26.1564 55
      vertex -35.6099 15.5308 55
    endloop
  endfacet
  facet normal 0 0 -1
    outer loop
      vertex -43.5276 -9.25207 55
      vertex -36.0013 26.1564 55
      vertex -38.0297 8.08346 55
    endloop
  endfacet
  facet normal 0 0 -1
    outer loop
      vertex -38.8793 0 55
      vertex -43.5276 -9.25207 55
      vertex -38.0608 7.78773 55
    endloop
  endfacet
  facet normal 0 0 -1
    outer loop
      vertex -35.518 15.8136 55
      vertex -29.7763 33.0699 55
      vertex -31.6027 22.5952 55
    endloop
  endfacet
  facet normal 0 0 -1
    outer loop
      vertex -12.0144 36.9764 55
      vertex -4.65152 44.2562 55
      vertex -4.35486 38.6045 55
    endloop
  endfacet
  facet normal 0 0 -1
    outer loop
      vertex -4.06399 38.6663 55
      vertex 4.65152 44.2562 55
      vertex 4.06399 38.6663 55
    endloop
  endfacet
  facet normal 0 0 -1
    outer loop
      vertex 4.06399 38.6663 55
      vertex 13.7513 42.322 55
      vertex 11.7235 37.0382 55
    endloop
  endfacet
  facet normal 0 0 -1
    outer loop
      vertex 12.0144 36.9764 55
      vertex 22.25 38.5381 55
      vertex 19.168 33.7914 55
    endloop
  endfacet
  facet normal 0 0 -1
    outer loop
      vertex 19.4397 33.6705 55
      vertex 29.7763 33.0699 55
      vertex 25.7748 29.0677 55
    endloop
  endfacet
  facet normal 0 0 -1
    outer loop
      vertex 26.0153 28.893 55
      vertex 36.0013 26.1564 55
      vertex 31.255 23.0737 55
    endloop
  endfacet
  facet normal 0 0 -1
    outer loop
      vertex 31.454 22.8527 55
      vertex 40.6528 18.0998 55
      vertex 35.3693 16.0712 55
    endloop
  endfacet
  facet normal -0.994522 0.104528 0
    outer loop
      vertex -44.5 0 55
      vertex -44.5 0 58
      vertex -43.5276 9.25207 55
    endloop
  endfacet
  facet normal -0.994522 0.104528 0
    outer loop
      vertex -43.5276 9.25207 55
      vertex -44.5 0 58
      vertex -43.5276 9.25207 58
    endloop
  endfacet
  facet normal -0.994522 -0.104528 0
    outer loop
      vertex -44.5 0 55
      vertex -43.5276 -9.25207 55
      vertex -44.5 0 58
    endloop
  endfacet
  facet normal -0.994522 -0.104528 0
    outer loop
      vertex -44.5 0 58
      vertex -43.5276 -9.25207 55
      vertex -43.5276 -9.25207 58
    endloop
  endfacet
  facet normal -0.951057 -0.309017 0
    outer loop
      vertex -43.5276 -9.25207 55
      vertex -40.6528 -18.0998 55
      vertex -43.5276 -9.25207 58
    endloop
  endfacet
  facet normal -0.951057 -0.309017 0
    outer loop
      vertex -43.5276 -9.25207 58
      vertex -40.6528 -18.0998 55
      vertex -40.6528 -18.0998 58
    endloop
  endfacet
  facet normal -0.866025 -0.5 0
    outer loop
      vertex -40.6528 -18.0998 55
      vertex -36.0013 -26.1564 55
      vertex -40.6528 -18.0998 58
    endloop
  endfacet
  facet normal -0.866025 -0.5 0
    outer loop
      vertex -40.6528 -18.0998 58
      vertex -36.0013 -26.1564 55
      vertex -36.0013 -26.1564 58
    endloop
  endfacet
  facet normal -0.743145 -0.669131 0
    outer loop
      vertex -36.0013 -26.1564 55
      vertex -29.7763 -33.0699 55
      vertex -36.0013 -26.1564 58
    endloop
  endfacet
  facet normal -0.743145 -0.669131 0
    outer loop
      vertex -36.0013 -26.1564 58
      vertex -29.7763 -33.0699 55
      vertex -29.7763 -33.0699 58
    endloop
  endfacet
  facet normal -0.587785 -0.809017 0
    outer loop
      vertex -29.7763 -33.0699 58
      vertex -29.7763 -33.0699 55
      vertex -22.25 -38.5381 55
    endloop
  endfacet
  facet normal -0.587785 -0.809017 0
    outer loop
      vertex -22.25 -38.5381 58
      vertex -29.7763 -33.0699 58
      vertex -22.25 -38.5381 55
    endloop
  endfacet
  facet normal -0.406737 -0.913545 0
    outer loop
      vertex -22.25 -38.5381 58
      vertex -22.25 -38.5381 55
      vertex -13.7513 -42.322 55
    endloop
  endfacet
  facet normal -0.406737 -0.913545 0
    outer loop
      vertex -13.7513 -42.322 58
      vertex -22.25 -38.5381 58
      vertex -13.7513 -42.322 55
    endloop
  endfacet
  facet normal -0.207912 -0.978148 0
    outer loop
      vertex -13.7513 -42.322 58
      vertex -13.7513 -42.322 55
      vertex -4.65152 -44.2562 55
    endloop
  endfacet
  facet normal -0.207912 -0.978148 0
    outer loop
      vertex -4.65152 -44.2562 58
      vertex -13.7513 -42.322 58
      vertex -4.65152 -44.2562 55
    endloop
  endfacet
  facet normal 0 -1 0
    outer loop
      vertex -4.65152 -44.2562 58
      vertex -4.65152 -44.2562 55
      vertex 4.65152 -44.2562 55
    endloop
  endfacet
  facet normal 0 -1 0
    outer loop
      vertex 4.65152 -44.2562 58
      vertex -4.65152 -44.2562 58
      vertex 4.65152 -44.2562 55
    endloop
  endfacet
  facet normal 0.207912 -0.978148 0
    outer loop
      vertex 4.65152 -44.2562 58
      vertex 4.65152 -44.2562 55
      vertex 13.7513 -42.322 55
    endloop
  endfacet
  facet normal 0.207912 -0.978148 0
    outer loop
      vertex 13.7513 -42.322 58
      vertex 4.65152 -44.2562 58
      vertex 13.7513 -42.322 55
    endloop
  endfacet
  facet normal 0.406737 -0.913545 0
    outer loop
      vertex 13.7513 -42.322 58
      vertex 13.7513 -42.322 55
      vertex 22.25 -38.5381 55
    endloop
  endfacet
  facet normal 0.406737 -0.913545 0
    outer loop
      vertex 22.25 -38.5381 58
      vertex 13.7513 -42.322 58
      vertex 22.25 -38.5381 55
    endloop
  endfacet
  facet normal 0.587785 -0.809017 0
    outer loop
      vertex 22.25 -38.5381 58
      vertex 22.25 -38.5381 55
      vertex 29.7763 -33.0699 55
    endloop
  endfacet
  facet normal 0.587785 -0.809017 0
    outer loop
      vertex 29.7763 -33.0699 58
      vertex 22.25 -38.5381 58
      vertex 29.7763 -33.0699 55
    endloop
  endfacet
  facet normal 0.743145 -0.669131 0
    outer loop
      vertex 29.7763 -33.0699 58
      vertex 29.7763 -33.0699 55
      vertex 36.0013 -26.1564 55
    endloop
  endfacet
  facet normal 0.743145 -0.669131 0
    outer loop
      vertex 36.0013 -26.1564 58
      vertex 29.7763 -33.0699 58
      vertex 36.0013 -26.1564 55
    endloop
  endfacet
  facet normal 0.866025 -0.5 0
    outer loop
      vertex 36.0013 -26.1564 58
      vertex 36.0013 -26.1564 55
      vertex 40.6528 -18.0998 55
    endloop
  endfacet
  facet normal 0.866025 -0.5 0
    outer loop
      vertex 40.6528 -18.0998 58
      vertex 36.0013 -26.1564 58
      vertex 40.6528 -18.0998 55
    endloop
  endfacet
  facet normal 0.951057 -0.309017 0
    outer loop
      vertex 40.6528 -18.0998 58
      vertex 40.6528 -18.0998 55
      vertex 43.5276 -9.25207 55
    endloop
  endfacet
  facet normal 0.951057 -0.309017 0
    outer loop
      vertex 43.5276 -9.25207 58
      vertex 40.6528 -18.0998 58
      vertex 43.5276 -9.25207 55
    endloop
  endfacet
  facet normal 0.994522 -0.104528 0
    outer loop
      vertex 43.5276 -9.25207 58
      vertex 43.5276 -9.25207 55
      vertex 44.5 0 55
    endloop
  endfacet
  facet normal 0.994522 -0.104528 0
    outer loop
      vertex 44.5 0 58
      vertex 43.5276 -9.25207 58
      vertex 44.5 0 55
    endloop
  endfacet
  facet normal 0.994522 0.104528 0
    outer loop
      vertex 44.5 0 55
      vertex 43.5276 9.25207 55
      vertex 43.5276 9.25207 58
    endloop
  endfacet
  facet normal 0.994522 0.104528 0
    outer loop
      vertex 44.5 0 58
      vertex 44.5 0 55
      vertex 43.5276 9.25207 58
    endloop
  endfacet
  facet normal 0.951057 0.309017 0
    outer loop
      vertex 43.5276 9.25207 55
      vertex 40.6528 18.0998 55
      vertex 40.6528 18.0998 58
    endloop
  endfacet
  facet normal 0.951057 0.309017 0
    outer loop
      vertex 43.5276 9.25207 58
      vertex 43.5276 9.25207 55
      vertex 40.6528 18.0998 58
    endloop
  endfacet
  facet normal 0.866025 0.5 0
    outer loop
      vertex 40.6528 18.0998 55
      vertex 36.0013 26.1564 55
      vertex 36.0013 26.1564 58
    endloop
  endfacet
  facet normal 0.866025 0.5 0
    outer loop
      vertex 40.6528 18.0998 58
      vertex 40.6528 18.0998 55
      vertex 36.0013 26.1564 58
    endloop
  endfacet
  facet normal 0.743145 0.669131 0
    outer loop
      vertex 36.0013 26.1564 55
      vertex 29.7763 33.0699 55
      vertex 29.7763 33.0699 58
    endloop
  endfacet
  facet normal 0.743145 0.669131 0
    outer loop
      vertex 36.0013 26.1564 58
      vertex 36.0013 26.1564 55
      vertex 29.7763 33.0699 58
    endloop
  endfacet
  facet normal 0.587785 0.809017 0
    outer loop
      vertex 22.25 38.5381 55
      vertex 22.25 38.5381 58
      vertex 29.7763 33.0699 55
    endloop
  endfacet
  facet normal 0.587785 0.809017 0
    outer loop
      vertex 29.7763 33.0699 55
      vertex 22.25 38.5381 58
      vertex 29.7763 33.0699 58
    endloop
  endfacet
  facet normal 0.406737 0.913545 0
    outer loop
      vertex 13.7513 42.322 55
      vertex 13.7513 42.322 58
      vertex 22.25 38.5381 55
    endloop
  endfacet
  facet normal 0.406737 0.913545 0
    outer loop
      vertex 22.25 38.5381 55
      vertex 13.7513 42.322 58
      vertex 22.25 38.5381 58
    endloop
  endfacet
  facet normal 0.207912 0.978148 0
    outer loop
      vertex 4.65152 44.2562 55
      vertex 4.65152 44.2562 58
      vertex 13.7513 42.322 55
    endloop
  endfacet
  facet normal 0.207912 0.978148 0
    outer loop
      vertex 13.7513 42.322 55
      vertex 4.65152 44.2562 58
      vertex 13.7513 42.322 58
    endloop
  endfacet
  facet normal 0 1 0
    outer loop
      vertex -4.65152 44.2562 55
      vertex -4.65152 44.2562 58
      vertex 4.65152 44.2562 55
    endloop
  endfacet
  facet normal 0 1 0
    outer loop
      vertex 4.65152 44.2562 55
      vertex -4.65152 44.2562 58
      vertex 4.65152 44.2562 58
    endloop
  endfacet
  facet normal -0.207912 0.978148 0
    outer loop
      vertex -13.7513 42.322 55
      vertex -13.7513 42.322 58
      vertex -4.65152 44.2562 55
    endloop
  endfacet
  facet normal -0.207912 0.978148 0
    outer loop
      vertex -4.65152 44.2562 55
      vertex -13.7513 42.322 58
      vertex -4.65152 44.2562 58
    endloop
  endfacet
  facet normal -0.406737 0.913545 0
    outer loop
      vertex -22.25 38.5381 55
      vertex -22.25 38.5381 58
      vertex -13.7513 42.322 55
    endloop
  endfacet
  facet normal -0.406737 0.913545 0
    outer loop
      vertex -13.7513 42.322 55
      vertex -22.25 38.5381 58
      vertex -13.7513 42.322 58
    endloop
  endfacet
  facet normal -0.587785 0.809017 0
    outer loop
      vertex -29.7763 33.0699 55
      vertex -29.7763 33.0699 58
      vertex -22.25 38.5381 55
    endloop
  endfacet
  facet normal -0.587785 0.809017 0
    outer loop
      vertex -22.25 38.5381 55
      vertex -29.7763 33.0699 58
      vertex -22.25 38.5381 58
    endloop
  endfacet
  facet normal -0.743145 0.669131 0
    outer loop
      vertex -36.0013 26.1564 55
      vertex -36.0013 26.1564 58
      vertex -29.7763 33.0699 55
    endloop
  endfacet
  facet normal -0.743145 0.669131 0
    outer loop
      vertex -29.7763 33.0699 55
      vertex -36.0013 26.1564 58
      vertex -29.7763 33.0699 58
    endloop
  endfacet
  facet normal -0.866025 0.5 0
    outer loop
      vertex -40.6528 18.0998 55
      vertex -40.6528 18.0998 58
      vertex -36.0013 26.1564 55
    endloop
  endfacet
  facet normal -0.866025 0.5 0
    outer loop
      vertex -36.0013 26.1564 55
      vertex -40.6528 18.0998 58
      vertex -36.0013 26.1564 58
    endloop
  endfacet
  facet normal -0.951057 0.309017 0
    outer loop
      vertex -43.5276 9.25207 55
      vertex -43.5276 9.25207 58
      vertex -40.6528 18.0998 55
    endloop
  endfacet
  facet normal -0.951057 0.309017 0
    outer loop
      vertex -40.6528 18.0998 55
      vertex -43.5276 9.25207 58
      vertex -40.6528 18.0998 58
    endloop
  endfacet
  facet normal -0.974114 0.102384 -0.201541
    outer loop
      vertex -27.5 0 0
      vertex -38.8793 0 55
      vertex -38.0608 7.78773 55
    endloop
  endfacet
  facet normal -0.974114 -0.102384 -0.201541
    outer loop
      vertex -38.8793 0 55
      vertex -27.5 0 0
      vertex -38.8482 -0.295736 55
    endloop
  endfacet
  facet normal -0.974114 -0.102384 -0.201541
    outer loop
      vertex -38.8482 -0.295736 55
      vertex -27.5 0 0
      vertex -26.8991 -5.71757 0
    endloop
  endfacet
  facet normal -0.974114 0.102384 -0.201541
    outer loop
      vertex -38.0608 7.78773 55
      vertex -38.0297 8.08346 55
      vertex -27.5 0 0
    endloop
  endfacet
  facet normal -0.974114 0.102384 -0.201541
    outer loop
      vertex -27.5 0 0
      vertex -38.0297 8.08346 55
      vertex -26.8991 5.71757 0
    endloop
  endfacet
  facet normal -0.931541 0.302676 -0.201541
    outer loop
      vertex -26.8991 5.71757 0
      vertex -38.0297 8.08346 55
      vertex -35.6099 15.5308 55
    endloop
  endfacet
  facet normal -0.931541 0.302676 -0.201541
    outer loop
      vertex -35.6099 15.5308 55
      vertex -35.518 15.8136 55
      vertex -26.8991 5.71757 0
    endloop
  endfacet
  facet normal -0.931541 0.302676 -0.201541
    outer loop
      vertex -26.8991 5.71757 0
      vertex -35.518 15.8136 55
      vertex -25.1225 11.1853 0
    endloop
  endfacet
  facet normal -0.848255 0.48974 -0.201541
    outer loop
      vertex -25.1225 11.1853 0
      vertex -35.518 15.8136 55
      vertex -31.6027 22.5952 55
    endloop
  endfacet
  facet normal -0.848255 0.48974 -0.201541
    outer loop
      vertex -31.6027 22.5952 55
      vertex -31.454 22.8527 55
      vertex -25.1225 11.1853 0
    endloop
  endfacet
  facet normal -0.848255 0.48974 -0.201541
    outer loop
      vertex -25.1225 11.1853 0
      vertex -31.454 22.8527 55
      vertex -22.248 16.1641 0
    endloop
  endfacet
  facet normal -0.727896 0.6554 -0.201541
    outer loop
      vertex -22.248 16.1641 0
      vertex -31.454 22.8527 55
      vertex -26.2143 28.672 55
    endloop
  endfacet
  facet normal -0.727896 0.6554 -0.201541
    outer loop
      vertex -26.2143 28.672 55
      vertex -26.0153 28.893 55
      vertex -22.248 16.1641 0
    endloop
  endfacet
  facet normal -0.727896 0.6554 -0.201541
    outer loop
      vertex -22.248 16.1641 0
      vertex -26.0153 28.893 55
      vertex -18.4011 20.4365 0
    endloop
  endfacet
  facet normal -0.575724 0.792416 -0.201541
    outer loop
      vertex -18.4011 20.4365 0
      vertex -26.0153 28.893 55
      vertex -19.6802 33.4957 55
    endloop
  endfacet
  facet normal -0.575724 0.792416 -0.201541
    outer loop
      vertex -19.6802 33.4957 55
      vertex -19.4397 33.6705 55
      vertex -18.4011 20.4365 0
    endloop
  endfacet
  facet normal -0.575724 0.792416 -0.201541
    outer loop
      vertex -18.4011 20.4365 0
      vertex -19.4397 33.6705 55
      vertex -13.75 23.8157 0
    endloop
  endfacet
  facet normal -0.39839 0.8948 -0.201541
    outer loop
      vertex -13.75 23.8157 0
      vertex -19.4397 33.6705 55
      vertex -12.286 36.8555 55
    endloop
  endfacet
  facet normal -0.39839 0.8948 -0.201541
    outer loop
      vertex -13.75 23.8157 0
      vertex -12.286 36.8555 55
      vertex -8.49797 26.1541 0
    endloop
  endfacet
  facet normal -0.39839 0.8948 -0.201541
    outer loop
      vertex -8.49797 26.1541 0
      vertex -12.286 36.8555 55
      vertex -12.0144 36.9764 55
    endloop
  endfacet
  facet normal -0.203645 0.958076 -0.201541
    outer loop
      vertex -8.49797 26.1541 0
      vertex -12.0144 36.9764 55
      vertex -4.35486 38.6045 55
    endloop
  endfacet
  facet normal -0.203645 0.958076 -0.201541
    outer loop
      vertex -8.49797 26.1541 0
      vertex -4.35486 38.6045 55
      vertex -2.87453 27.3494 0
    endloop
  endfacet
  facet normal -0.203645 0.958076 -0.201541
    outer loop
      vertex -2.87453 27.3494 0
      vertex -4.35486 38.6045 55
      vertex -4.06399 38.6663 55
    endloop
  endfacet
  facet normal 0 0.97948 -0.201541
    outer loop
      vertex -4.06399 38.6663 55
      vertex 4.06399 38.6663 55
      vertex -2.87453 27.3494 0
    endloop
  endfacet
  facet normal 0 0.97948 -0.201541
    outer loop
      vertex -2.87453 27.3494 0
      vertex 4.06399 38.6663 55
      vertex 2.87453 27.3494 0
    endloop
  endfacet
  facet normal 0.203645 0.958076 -0.201541
    outer loop
      vertex 11.7235 37.0382 55
      vertex 2.87453 27.3494 0
      vertex 4.06399 38.6663 55
    endloop
  endfacet
  facet normal 0.203645 0.958076 -0.201541
    outer loop
      vertex 2.87453 27.3494 0
      vertex 11.7235 37.0382 55
      vertex 8.49797 26.1541 0
    endloop
  endfacet
  facet normal 0.203645 0.958076 -0.201541
    outer loop
      vertex 8.49797 26.1541 0
      vertex 11.7235 37.0382 55
      vertex 12.0144 36.9764 55
    endloop
  endfacet
  facet normal 0.39839 0.8948 -0.201541
    outer loop
      vertex 19.168 33.7914 55
      vertex 8.49797 26.1541 0
      vertex 12.0144 36.9764 55
    endloop
  endfacet
  facet normal 0.39839 0.8948 -0.201541
    outer loop
      vertex 8.49797 26.1541 0
      vertex 19.168 33.7914 55
      vertex 13.75 23.8157 0
    endloop
  endfacet
  facet normal 0.39839 0.8948 -0.201541
    outer loop
      vertex 13.75 23.8157 0
      vertex 19.168 33.7914 55
      vertex 19.4397 33.6705 55
    endloop
  endfacet
  facet normal 0.575724 0.792416 -0.201541
    outer loop
      vertex 25.7748 29.0677 55
      vertex 13.75 23.8157 0
      vertex 19.4397 33.6705 55
    endloop
  endfacet
  facet normal 0.575724 0.792416 -0.201541
    outer loop
      vertex 13.75 23.8157 0
      vertex 25.7748 29.0677 55
      vertex 18.4011 20.4365 0
    endloop
  endfacet
  facet normal 0.575724 0.792416 -0.201541
    outer loop
      vertex 18.4011 20.4365 0
      vertex 25.7748 29.0677 55
      vertex 26.0153 28.893 55
    endloop
  endfacet
  facet normal 0.727896 0.6554 -0.201541
    outer loop
      vertex 31.255 23.0737 55
      vertex 18.4011 20.4365 0
      vertex 26.0153 28.893 55
    endloop
  endfacet
  facet normal 0.727896 0.6554 -0.201541
    outer loop
      vertex 22.248 16.1641 0
      vertex 18.4011 20.4365 0
      vertex 31.255 23.0737 55
    endloop
  endfacet
  facet normal 0.727896 0.6554 -0.201541
    outer loop
      vertex 31.454 22.8527 55
      vertex 22.248 16.1641 0
      vertex 31.255 23.0737 55
    endloop
  endfacet
  facet normal 0.848255 0.48974 -0.201541
    outer loop
      vertex 35.3693 16.0712 55
      vertex 22.248 16.1641 0
      vertex 31.454 22.8527 55
    endloop
  endfacet
  facet normal 0.848255 0.48974 -0.201541
    outer loop
      vertex 25.1225 11.1853 0
      vertex 22.248 16.1641 0
      vertex 35.3693 16.0712 55
    endloop
  endfacet
  facet normal 0.848255 0.48974 -0.201541
    outer loop
      vertex 35.518 15.8136 55
      vertex 25.1225 11.1853 0
      vertex 35.3693 16.0712 55
    endloop
  endfacet
  facet normal 0.931541 0.302676 -0.201541
    outer loop
      vertex 37.9378 8.36627 55
      vertex 25.1225 11.1853 0
      vertex 35.518 15.8136 55
    endloop
  endfacet
  facet normal 0.931541 0.302676 -0.201541
    outer loop
      vertex 26.8991 5.71757 0
      vertex 25.1225 11.1853 0
      vertex 37.9378 8.36627 55
    endloop
  endfacet
  facet normal 0.931541 0.302676 -0.201541
    outer loop
      vertex 38.0297 8.08346 55
      vertex 26.8991 5.71757 0
      vertex 37.9378 8.36627 55
    endloop
  endfacet
  facet normal 0.974114 0.102384 -0.201541
    outer loop
      vertex 38.8482 0.295736 55
      vertex 26.8991 5.71757 0
      vertex 38.0297 8.08346 55
    endloop
  endfacet
  facet normal 0.974114 0.102384 -0.201541
    outer loop
      vertex 27.5 0 0
      vertex 26.8991 5.71757 0
      vertex 38.8482 0.295736 55
    endloop
  endfacet
  facet normal 0.974114 0.102384 -0.201541
    outer loop
      vertex 38.8793 0 55
      vertex 27.5 0 0
      vertex 38.8482 0.295736 55
    endloop
  endfacet
  facet normal 0.974114 -0.102384 -0.201541
    outer loop
      vertex 38.0608 -7.78773 55
      vertex 27.5 0 0
      vertex 38.8793 0 55
    endloop
  endfacet
  facet normal 0.974114 -0.102384 -0.201541
    outer loop
      vertex 38.0297 -8.08346 55
      vertex 26.8991 -5.71757 0
      vertex 27.5 0 0
    endloop
  endfacet
  facet normal 0.974114 -0.102384 -0.201541
    outer loop
      vertex 38.0608 -7.78773 55
      vertex 38.0297 -8.08346 55
      vertex 27.5 0 0
    endloop
  endfacet
  facet normal 0.931541 -0.302676 -0.201541
    outer loop
      vertex 35.6099 -15.5308 55
      vertex 26.8991 -5.71757 0
      vertex 38.0297 -8.08346 55
    endloop
  endfacet
  facet normal 0.931541 -0.302676 -0.201541
    outer loop
      vertex 35.518 -15.8136 55
      vertex 25.1225 -11.1853 0
      vertex 26.8991 -5.71757 0
    endloop
  endfacet
  facet normal 0.931541 -0.302676 -0.201541
    outer loop
      vertex 35.6099 -15.5308 55
      vertex 35.518 -15.8136 55
      vertex 26.8991 -5.71757 0
    endloop
  endfacet
  facet normal 0.848255 -0.48974 -0.201541
    outer loop
      vertex 31.6027 -22.5952 55
      vertex 25.1225 -11.1853 0
      vertex 35.518 -15.8136 55
    endloop
  endfacet
  facet normal 0.848255 -0.48974 -0.201541
    outer loop
      vertex 31.454 -22.8527 55
      vertex 22.248 -16.1641 0
      vertex 25.1225 -11.1853 0
    endloop
  endfacet
  facet normal 0.848255 -0.48974 -0.201541
    outer loop
      vertex 31.6027 -22.5952 55
      vertex 31.454 -22.8527 55
      vertex 25.1225 -11.1853 0
    endloop
  endfacet
  facet normal 0.727896 -0.6554 -0.201541
    outer loop
      vertex 26.2143 -28.672 55
      vertex 22.248 -16.1641 0
      vertex 31.454 -22.8527 55
    endloop
  endfacet
  facet normal 0.727896 -0.6554 -0.201541
    outer loop
      vertex 26.0153 -28.893 55
      vertex 18.4011 -20.4365 0
      vertex 22.248 -16.1641 0
    endloop
  endfacet
  facet normal 0.727896 -0.6554 -0.201541
    outer loop
      vertex 26.2143 -28.672 55
      vertex 26.0153 -28.893 55
      vertex 22.248 -16.1641 0
    endloop
  endfacet
  facet normal 0.575724 -0.792416 -0.201541
    outer loop
      vertex 19.6802 -33.4957 55
      vertex 18.4011 -20.4365 0
      vertex 26.0153 -28.893 55
    endloop
  endfacet
  facet normal 0.575724 -0.792416 -0.201541
    outer loop
      vertex 19.4397 -33.6705 55
      vertex 13.75 -23.8157 0
      vertex 18.4011 -20.4365 0
    endloop
  endfacet
  facet normal 0.575724 -0.792416 -0.201541
    outer loop
      vertex 19.6802 -33.4957 55
      vertex 19.4397 -33.6705 55
      vertex 18.4011 -20.4365 0
    endloop
  endfacet
  facet normal 0.39839 -0.8948 -0.201541
    outer loop
      vertex 19.4397 -33.6705 55
      vertex 12.286 -36.8555 55
      vertex 13.75 -23.8157 0
    endloop
  endfacet
  facet normal 0.39839 -0.8948 -0.201541
    outer loop
      vertex 12.0144 -36.9764 55
      vertex 8.49797 -26.1541 0
      vertex 13.75 -23.8157 0
    endloop
  endfacet
  facet normal 0.39839 -0.8948 -0.201541
    outer loop
      vertex 12.286 -36.8555 55
      vertex 12.0144 -36.9764 55
      vertex 13.75 -23.8157 0
    endloop
  endfacet
  facet normal 0.203645 -0.958076 -0.201541
    outer loop
      vertex 12.0144 -36.9764 55
      vertex 4.35486 -38.6045 55
      vertex 8.49797 -26.1541 0
    endloop
  endfacet
  facet normal 0.203645 -0.958076 -0.201541
    outer loop
      vertex 4.06399 -38.6663 55
      vertex 2.87453 -27.3494 0
      vertex 8.49797 -26.1541 0
    endloop
  endfacet
  facet normal 0.203645 -0.958076 -0.201541
    outer loop
      vertex 4.35486 -38.6045 55
      vertex 4.06399 -38.6663 55
      vertex 8.49797 -26.1541 0
    endloop
  endfacet
  facet normal 0 -0.97948 -0.201541
    outer loop
      vertex 4.06399 -38.6663 55
      vertex -4.06399 -38.6663 55
      vertex -2.87453 -27.3494 0
    endloop
  endfacet
  facet normal 0 -0.97948 -0.201541
    outer loop
      vertex 2.87453 -27.3494 0
      vertex 4.06399 -38.6663 55
      vertex -2.87453 -27.3494 0
    endloop
  endfacet
  facet normal -0.203645 -0.958076 -0.201541
    outer loop
      vertex -4.06399 -38.6663 55
      vertex -11.7235 -37.0382 55
      vertex -2.87453 -27.3494 0
    endloop
  endfacet
  facet normal -0.203645 -0.958076 -0.201541
    outer loop
      vertex -11.7235 -37.0382 55
      vertex -12.0144 -36.9764 55
      vertex -8.49797 -26.1541 0
    endloop
  endfacet
  facet normal -0.203645 -0.958076 -0.201541
    outer loop
      vertex -2.87453 -27.3494 0
      vertex -11.7235 -37.0382 55
      vertex -8.49797 -26.1541 0
    endloop
  endfacet
  facet normal -0.39839 -0.8948 -0.201541
    outer loop
      vertex -12.0144 -36.9764 55
      vertex -19.168 -33.7914 55
      vertex -8.49797 -26.1541 0
    endloop
  endfacet
  facet normal -0.39839 -0.8948 -0.201541
    outer loop
      vertex -19.168 -33.7914 55
      vertex -19.4397 -33.6705 55
      vertex -13.75 -23.8157 0
    endloop
  endfacet
  facet normal -0.39839 -0.8948 -0.201541
    outer loop
      vertex -8.49797 -26.1541 0
      vertex -19.168 -33.7914 55
      vertex -13.75 -23.8157 0
    endloop
  endfacet
  facet normal -0.575724 -0.792416 -0.201541
    outer loop
      vertex -19.4397 -33.6705 55
      vertex -25.7748 -29.0677 55
      vertex -13.75 -23.8157 0
    endloop
  endfacet
  facet normal -0.575724 -0.792416 -0.201541
    outer loop
      vertex -25.7748 -29.0677 55
      vertex -26.0153 -28.893 55
      vertex -18.4011 -20.4365 0
    endloop
  endfacet
  facet normal -0.575724 -0.792416 -0.201541
    outer loop
      vertex -13.75 -23.8157 0
      vertex -25.7748 -29.0677 55
      vertex -18.4011 -20.4365 0
    endloop
  endfacet
  facet normal -0.727896 -0.6554 -0.201541
    outer loop
      vertex -26.0153 -28.893 55
      vertex -31.255 -23.0737 55
      vertex -18.4011 -20.4365 0
    endloop
  endfacet
  facet normal -0.727896 -0.6554 -0.201541
    outer loop
      vertex -31.454 -22.8527 55
      vertex -22.248 -16.1641 0
      vertex -31.255 -23.0737 55
    endloop
  endfacet
  facet normal -0.727896 -0.6554 -0.201541
    outer loop
      vertex -31.255 -23.0737 55
      vertex -22.248 -16.1641 0
      vertex -18.4011 -20.4365 0
    endloop
  endfacet
  facet normal -0.848255 -0.48974 -0.201541
    outer loop
      vertex -31.454 -22.8527 55
      vertex -35.3693 -16.0712 55
      vertex -22.248 -16.1641 0
    endloop
  endfacet
  facet normal -0.848255 -0.48974 -0.201541
    outer loop
      vertex -35.518 -15.8136 55
      vertex -25.1225 -11.1853 0
      vertex -35.3693 -16.0712 55
    endloop
  endfacet
  facet normal -0.848255 -0.48974 -0.201541
    outer loop
      vertex -35.3693 -16.0712 55
      vertex -25.1225 -11.1853 0
      vertex -22.248 -16.1641 0
    endloop
  endfacet
  facet normal -0.931541 -0.302676 -0.201541
    outer loop
      vertex -35.518 -15.8136 55
      vertex -37.9378 -8.36627 55
      vertex -25.1225 -11.1853 0
    endloop
  endfacet
  facet normal -0.931541 -0.302676 -0.201541
    outer loop
      vertex -38.0297 -8.08346 55
      vertex -26.8991 -5.71757 0
      vertex -37.9378 -8.36627 55
    endloop
  endfacet
  facet normal -0.931541 -0.302676 -0.201541
    outer loop
      vertex -37.9378 -8.36627 55
      vertex -26.8991 -5.71757 0
      vertex -25.1225 -11.1853 0
    endloop
  endfacet
  facet normal -0.974114 -0.102384 -0.201541
    outer loop
      vertex -38.0297 -8.08346 55
      vertex -38.8482 -0.295736 55
      vertex -26.8991 -5.71757 0
    endloop
  endfacet
  facet normal 0 0 1
    outer loop
      vertex -43.5276 9.25207 58
      vertex -44.5 0 58
      vertex -43.5276 -9.25207 58
    endloop
  endfacet
  facet normal 0 0 1
    outer loop
      vertex -36.0013 -26.1564 58
      vertex -43.5276 9.25207 58
      vertex -40.6528 -18.0998 58
    endloop
  endfacet
  facet normal 0 0 1
    outer loop
      vertex -40.6528 -18.0998 58
      vertex -43.5276 9.25207 58
      vertex -43.5276 -9.25207 58
    endloop
  endfacet
  facet normal 0 0 1
    outer loop
      vertex -29.7763 -33.0699 58
      vertex -43.5276 9.25207 58
      vertex -36.0013 -26.1564 58
    endloop
  endfacet
  facet normal 0 0 1
    outer loop
      vertex -33.6909 -15.0002 58
      vertex -43.5276 9.25207 58
      vertex -29.7763 -33.0699 58
    endloop
  endfacet
  facet normal 0 0 1
    outer loop
      vertex 11.3963 35.0743 58
      vertex 18.1878 32.0506 58
      vertex 22.25 38.5381 58
    endloop
  endfacet
  facet normal 0 0 1
    outer loop
      vertex -22.25 38.5381 58
      vertex -43.5276 9.25207 58
      vertex -13.7513 42.322 58
    endloop
  endfacet
  facet normal 0 0 1
    outer loop
      vertex -29.7763 33.0699 58
      vertex -43.5276 9.25207 58
      vertex -22.25 38.5381 58
    endloop
  endfacet
  facet normal 0 0 1
    outer loop
      vertex -36.0013 26.1564 58
      vertex -43.5276 9.25207 58
      vertex -29.7763 33.0699 58
    endloop
  endfacet
  facet normal 0 0 1
    outer loop
      vertex -40.6528 18.0998 58
      vertex -43.5276 9.25207 58
      vertex -36.0013 26.1564 58
    endloop
  endfacet
  facet normal 0 0 1
    outer loop
      vertex -33.6909 -15.0002 58
      vertex -35.9882 -7.92988 58
      vertex -43.5276 9.25207 58
    endloop
  endfacet
  facet normal 0 0 1
    outer loop
      vertex -36.8793 0 58
      vertex -43.5276 9.25207 58
      vertex -36.8505 -0.274228 58
    endloop
  endfacet
  facet normal 0 0 1
    outer loop
      vertex -18.4397 -31.9384 58
      vertex -24.454 -27.5687 58
      vertex -13.7513 -42.322 58
    endloop
  endfacet
  facet normal 0 0 1
    outer loop
      vertex -11.1266 -35.1316 58
      vertex -11.3963 -35.0743 58
      vertex -4.65152 -44.2562 58
    endloop
  endfacet
  facet normal 0 0 1
    outer loop
      vertex 29.836 -21.6771 58
      vertex 24.8616 -27.2018 58
      vertex 36.0013 -26.1564 58
    endloop
  endfacet
  facet normal 0 0 1
    outer loop
      vertex -36.0734 7.66764 58
      vertex -43.5276 9.25207 58
      vertex -36.1022 7.39341 58
    endloop
  endfacet
  facet normal 0 0 1
    outer loop
      vertex 33.6909 -15.0002 58
      vertex 29.9739 -21.4383 58
      vertex 40.6528 -18.0998 58
    endloop
  endfacet
  facet normal 0 0 1
    outer loop
      vertex 18.4397 31.9384 58
      vertex 24.454 27.5687 58
      vertex 29.7763 33.0699 58
    endloop
  endfacet
  facet normal 0 0 1
    outer loop
      vertex -33.6909 15.0002 58
      vertex -29.9739 21.4383 58
      vertex -43.5276 9.25207 58
    endloop
  endfacet
  facet normal 0 0 1
    outer loop
      vertex 36.0734 -7.66764 58
      vertex 33.7761 -14.7379 58
      vertex 43.5276 -9.25207 58
    endloop
  endfacet
  facet normal 0 0 1
    outer loop
      vertex -29.9739 21.4383 58
      vertex -29.836 21.6771 58
      vertex -43.5276 9.25207 58
    endloop
  endfacet
  facet normal 0 0 1
    outer loop
      vertex 3.85494 36.6773 58
      vertex 11.1266 35.1316 58
      vertex 13.7513 42.322 58
    endloop
  endfacet
  facet normal 0 0 1
    outer loop
      vertex -24.6771 27.4067 58
      vertex -18.6627 31.7763 58
      vertex -4.65152 44.2562 58
    endloop
  endfacet
  facet normal 0 0 1
    outer loop
      vertex -11.3963 35.0743 58
      vertex -4.12465 36.62 58
      vertex 4.65152 44.2562 58
    endloop
  endfacet
  facet normal 0 0 1
    outer loop
      vertex -13.7513 42.322 58
      vertex -43.5276 9.25207 58
      vertex -29.836 21.6771 58
    endloop
  endfacet
  facet normal 0 0 1
    outer loop
      vertex -13.7513 42.322 58
      vertex -29.836 21.6771 58
      vertex -24.8616 27.2018 58
    endloop
  endfacet
  facet normal 0 0 1
    outer loop
      vertex -13.7513 42.322 58
      vertex -24.6771 27.4067 58
      vertex -4.65152 44.2562 58
    endloop
  endfacet
  facet normal 0 0 1
    outer loop
      vertex -13.7513 42.322 58
      vertex -24.8616 27.2018 58
      vertex -24.6771 27.4067 58
    endloop
  endfacet
  facet normal 0 0 1
    outer loop
      vertex -18.6627 31.7763 58
      vertex -18.4397 31.9384 58
      vertex -4.65152 44.2562 58
    endloop
  endfacet
  facet normal 0 0 1
    outer loop
      vertex -4.65152 44.2562 58
      vertex -11.6482 34.9622 58
      vertex 4.65152 44.2562 58
    endloop
  endfacet
  facet normal 0 0 1
    outer loop
      vertex -11.6482 34.9622 58
      vertex -11.3963 35.0743 58
      vertex 4.65152 44.2562 58
    endloop
  endfacet
  facet normal 0 0 1
    outer loop
      vertex 4.65152 44.2562 58
      vertex -4.12465 36.62 58
      vertex 13.7513 42.322 58
    endloop
  endfacet
  facet normal 0 0 1
    outer loop
      vertex -4.12465 36.62 58
      vertex -3.85494 36.6773 58
      vertex 13.7513 42.322 58
    endloop
  endfacet
  facet normal 0 0 1
    outer loop
      vertex -3.85494 36.6773 58
      vertex 3.85494 36.6773 58
      vertex 13.7513 42.322 58
    endloop
  endfacet
  facet normal 0 0 1
    outer loop
      vertex 13.7513 42.322 58
      vertex 11.1266 35.1316 58
      vertex 22.25 38.5381 58
    endloop
  endfacet
  facet normal 0 0 1
    outer loop
      vertex 11.1266 35.1316 58
      vertex 11.3963 35.0743 58
      vertex 22.25 38.5381 58
    endloop
  endfacet
  facet normal 0 0 1
    outer loop
      vertex 22.25 38.5381 58
      vertex 18.1878 32.0506 58
      vertex 29.7763 33.0699 58
    endloop
  endfacet
  facet normal 0 0 1
    outer loop
      vertex -33.7761 14.7379 58
      vertex -33.6909 15.0002 58
      vertex -43.5276 9.25207 58
    endloop
  endfacet
  facet normal 0 0 1
    outer loop
      vertex 18.1878 32.0506 58
      vertex 18.4397 31.9384 58
      vertex 29.7763 33.0699 58
    endloop
  endfacet
  facet normal 0 0 1
    outer loop
      vertex -18.4397 31.9384 58
      vertex -11.6482 34.9622 58
      vertex -4.65152 44.2562 58
    endloop
  endfacet
  facet normal 0 0 1
    outer loop
      vertex 29.7763 33.0699 58
      vertex 24.454 27.5687 58
      vertex 36.0013 26.1564 58
    endloop
  endfacet
  facet normal 0 0 1
    outer loop
      vertex 24.454 27.5687 58
      vertex 24.6771 27.4067 58
      vertex 36.0013 26.1564 58
    endloop
  endfacet
  facet normal 0 0 1
    outer loop
      vertex 36.0013 26.1564 58
      vertex 29.6515 21.882 58
      vertex 40.6528 18.0998 58
    endloop
  endfacet
  facet normal 0 0 1
    outer loop
      vertex 29.6515 21.882 58
      vertex 29.836 21.6771 58
      vertex 40.6528 18.0998 58
    endloop
  endfacet
  facet normal 0 0 1
    outer loop
      vertex 40.6528 18.0998 58
      vertex 33.5531 15.239 58
      vertex 43.5276 9.25207 58
    endloop
  endfacet
  facet normal 0 0 1
    outer loop
      vertex 33.5531 15.239 58
      vertex 33.6909 15.0002 58
      vertex 43.5276 9.25207 58
    endloop
  endfacet
  facet normal 0 0 1
    outer loop
      vertex 43.5276 9.25207 58
      vertex 35.9882 7.92988 58
      vertex 44.5 0 58
    endloop
  endfacet
  facet normal 0 0 1
    outer loop
      vertex 35.9882 7.92988 58
      vertex 36.0734 7.66764 58
      vertex 44.5 0 58
    endloop
  endfacet
  facet normal 0 0 1
    outer loop
      vertex 44.5 0 58
      vertex 36.8505 0.274228 58
      vertex 43.5276 -9.25207 58
    endloop
  endfacet
  facet normal 0 0 1
    outer loop
      vertex 36.8505 0.274228 58
      vertex 36.8793 0 58
      vertex 43.5276 -9.25207 58
    endloop
  endfacet
  facet normal 0 0 1
    outer loop
      vertex 36.8793 0 58
      vertex 36.1022 -7.39341 58
      vertex 43.5276 -9.25207 58
    endloop
  endfacet
  facet normal 0 0 1
    outer loop
      vertex 36.1022 -7.39341 58
      vertex 36.0734 -7.66764 58
      vertex 43.5276 -9.25207 58
    endloop
  endfacet
  facet normal 0 0 1
    outer loop
      vertex 43.5276 -9.25207 58
      vertex 33.7761 -14.7379 58
      vertex 40.6528 -18.0998 58
    endloop
  endfacet
  facet normal 0 0 1
    outer loop
      vertex 33.7761 -14.7379 58
      vertex 33.6909 -15.0002 58
      vertex 40.6528 -18.0998 58
    endloop
  endfacet
  facet normal 0 0 1
    outer loop
      vertex 40.6528 -18.0998 58
      vertex 29.9739 -21.4383 58
      vertex 36.0013 -26.1564 58
    endloop
  endfacet
  facet normal 0 0 1
    outer loop
      vertex 29.9739 -21.4383 58
      vertex 29.836 -21.6771 58
      vertex 36.0013 -26.1564 58
    endloop
  endfacet
  facet normal 0 0 1
    outer loop
      vertex 24.6771 27.4067 58
      vertex 29.6515 21.882 58
      vertex 36.0013 26.1564 58
    endloop
  endfacet
  facet normal 0 0 1
    outer loop
      vertex 36.0013 -26.1564 58
      vertex 24.8616 -27.2018 58
      vertex 29.7763 -33.0699 58
    endloop
  endfacet
  facet normal 0 0 1
    outer loop
      vertex 24.8616 -27.2018 58
      vertex 24.6771 -27.4067 58
      vertex 29.7763 -33.0699 58
    endloop
  endfacet
  facet normal 0 0 1
    outer loop
      vertex 29.836 21.6771 58
      vertex 33.5531 15.239 58
      vertex 40.6528 18.0998 58
    endloop
  endfacet
  facet normal 0 0 1
    outer loop
      vertex 29.7763 -33.0699 58
      vertex 18.6627 -31.7763 58
      vertex 22.25 -38.5381 58
    endloop
  endfacet
  facet normal 0 0 1
    outer loop
      vertex 18.6627 -31.7763 58
      vertex 18.4397 -31.9384 58
      vertex 22.25 -38.5381 58
    endloop
  endfacet
  facet normal 0 0 1
    outer loop
      vertex 33.6909 15.0002 58
      vertex 35.9882 7.92988 58
      vertex 43.5276 9.25207 58
    endloop
  endfacet
  facet normal 0 0 1
    outer loop
      vertex 22.25 -38.5381 58
      vertex 11.6482 -34.9622 58
      vertex 13.7513 -42.322 58
    endloop
  endfacet
  facet normal 0 0 1
    outer loop
      vertex 11.6482 -34.9622 58
      vertex 11.3963 -35.0743 58
      vertex 13.7513 -42.322 58
    endloop
  endfacet
  facet normal 0 0 1
    outer loop
      vertex 36.0734 7.66764 58
      vertex 36.8505 0.274228 58
      vertex 44.5 0 58
    endloop
  endfacet
  facet normal 0 0 1
    outer loop
      vertex 13.7513 -42.322 58
      vertex 4.12465 -36.62 58
      vertex 4.65152 -44.2562 58
    endloop
  endfacet
  facet normal 0 0 1
    outer loop
      vertex 4.12465 -36.62 58
      vertex 3.85494 -36.6773 58
      vertex 4.65152 -44.2562 58
    endloop
  endfacet
  facet normal 0 0 1
    outer loop
      vertex 4.65152 -44.2562 58
      vertex -3.85494 -36.6773 58
      vertex -4.65152 -44.2562 58
    endloop
  endfacet
  facet normal 0 0 1
    outer loop
      vertex -3.85494 -36.6773 58
      vertex -11.1266 -35.1316 58
      vertex -4.65152 -44.2562 58
    endloop
  endfacet
  facet normal 0 0 1
    outer loop
      vertex -4.65152 -44.2562 58
      vertex -11.3963 -35.0743 58
      vertex -13.7513 -42.322 58
    endloop
  endfacet
  facet normal 0 0 1
    outer loop
      vertex -11.3963 -35.0743 58
      vertex -18.1878 -32.0506 58
      vertex -13.7513 -42.322 58
    endloop
  endfacet
  facet normal 0 0 1
    outer loop
      vertex -18.1878 -32.0506 58
      vertex -18.4397 -31.9384 58
      vertex -13.7513 -42.322 58
    endloop
  endfacet
  facet normal 0 0 1
    outer loop
      vertex -13.7513 -42.322 58
      vertex -24.454 -27.5687 58
      vertex -22.25 -38.5381 58
    endloop
  endfacet
  facet normal 0 0 1
    outer loop
      vertex -24.454 -27.5687 58
      vertex -24.6771 -27.4067 58
      vertex -22.25 -38.5381 58
    endloop
  endfacet
  facet normal 0 0 1
    outer loop
      vertex 24.6771 -27.4067 58
      vertex 18.6627 -31.7763 58
      vertex 29.7763 -33.0699 58
    endloop
  endfacet
  facet normal 0 0 1
    outer loop
      vertex -24.6771 -27.4067 58
      vertex -29.6515 -21.882 58
      vertex -22.25 -38.5381 58
    endloop
  endfacet
  facet normal 0 0 1
    outer loop
      vertex -22.25 -38.5381 58
      vertex -29.836 -21.6771 58
      vertex -29.7763 -33.0699 58
    endloop
  endfacet
  facet normal 0 0 1
    outer loop
      vertex 18.4397 -31.9384 58
      vertex 11.6482 -34.9622 58
      vertex 22.25 -38.5381 58
    endloop
  endfacet
  facet normal 0 0 1
    outer loop
      vertex -29.836 -21.6771 58
      vertex -33.5531 -15.239 58
      vertex -29.7763 -33.0699 58
    endloop
  endfacet
  facet normal 0 0 1
    outer loop
      vertex -33.5531 -15.239 58
      vertex -33.6909 -15.0002 58
      vertex -29.7763 -33.0699 58
    endloop
  endfacet
  facet normal 0 0 1
    outer loop
      vertex -36.0734 -7.66764 58
      vertex -43.5276 9.25207 58
      vertex -35.9882 -7.92988 58
    endloop
  endfacet
  facet normal 0 0 1
    outer loop
      vertex -29.6515 -21.882 58
      vertex -29.836 -21.6771 58
      vertex -22.25 -38.5381 58
    endloop
  endfacet
  facet normal 0 0 1
    outer loop
      vertex -36.0734 -7.66764 58
      vertex -36.8505 -0.274228 58
      vertex -43.5276 9.25207 58
    endloop
  endfacet
  facet normal 0 0 1
    outer loop
      vertex 11.3963 -35.0743 58
      vertex 4.12465 -36.62 58
      vertex 13.7513 -42.322 58
    endloop
  endfacet
  facet normal 0 0 1
    outer loop
      vertex 3.85494 -36.6773 58
      vertex -3.85494 -36.6773 58
      vertex 4.65152 -44.2562 58
    endloop
  endfacet
  facet normal 0 0 1
    outer loop
      vertex -36.8793 0 58
      vertex -36.1022 7.39341 58
      vertex -43.5276 9.25207 58
    endloop
  endfacet
  facet normal 0 0 1
    outer loop
      vertex -36.0734 7.66764 58
      vertex -33.7761 14.7379 58
      vertex -43.5276 9.25207 58
    endloop
  endfacet
  facet normal 0 0 -1
    outer loop
      vertex -27.5 0 0
      vertex -26.8991 5.71757 0
      vertex -26.8991 -5.71757 0
    endloop
  endfacet
  facet normal 0 0 -1
    outer loop
      vertex -26.8991 -5.71757 0
      vertex -26.8991 5.71757 0
      vertex -25.1225 11.1853 0
    endloop
  endfacet
  facet normal 0 0 -1
    outer loop
      vertex -26.8991 -5.71757 0
      vertex -25.1225 11.1853 0
      vertex -22.248 16.1641 0
    endloop
  endfacet
  facet normal 0 0 -1
    outer loop
      vertex -26.8991 -5.71757 0
      vertex -22.248 16.1641 0
      vertex -18.4011 20.4365 0
    endloop
  endfacet
  facet normal 0 0 -1
    outer loop
      vertex -26.8991 -5.71757 0
      vertex -18.4011 20.4365 0
      vertex -13.75 23.8157 0
    endloop
  endfacet
  facet normal 0 0 -1
    outer loop
      vertex -26.8991 -5.71757 0
      vertex -13.75 23.8157 0
      vertex -8.49797 26.1541 0
    endloop
  endfacet
  facet normal 0 0 -1
    outer loop
      vertex -26.8991 -5.71757 0
      vertex -8.49797 26.1541 0
      vertex -2.87453 27.3494 0
    endloop
  endfacet
  facet normal 0 0 -1
    outer loop
      vertex -26.8991 -5.71757 0
      vertex -2.87453 27.3494 0
      vertex 2.87453 27.3494 0
    endloop
  endfacet
  facet normal 0 0 -1
    outer loop
      vertex -26.8991 -5.71757 0
      vertex 2.87453 27.3494 0
      vertex 8.49797 26.1541 0
    endloop
  endfacet
  facet normal 0 0 -1
    outer loop
      vertex -26.8991 -5.71757 0
      vertex 8.49797 26.1541 0
      vertex 13.75 23.8157 0
    endloop
  endfacet
  facet normal 0 0 -1
    outer loop
      vertex -26.8991 -5.71757 0
      vertex 13.75 23.8157 0
      vertex 18.4011 20.4365 0
    endloop
  endfacet
  facet normal 0 0 -1
    outer loop
      vertex -26.8991 -5.71757 0
      vertex 18.4011 20.4365 0
      vertex 22.248 16.1641 0
    endloop
  endfacet
  facet normal 0 0 -1
    outer loop
      vertex -0.927051 2.85317 0
      vertex 22.248 16.1641 0
      vertex 25.1225 11.1853 0
    endloop
  endfacet
  facet normal 0 0 -1
    outer loop
      vertex 2.42705 1.76336 0
      vertex 25.1225 11.1853 0
      vertex 26.8991 5.71757 0
    endloop
  endfacet
  facet normal 0 0 -1
    outer loop
      vertex 0.927051 -2.85317 0
      vertex 27.5 0 0
      vertex 26.8991 -5.71757 0
    endloop
  endfacet
  facet normal 0 0 -1
    outer loop
      vertex -26.8991 -5.71757 0
      vertex 26.8991 -5.71757 0
      vertex 25.1225 -11.1853 0
    endloop
  endfacet
  facet normal 0 0 -1
    outer loop
      vertex -26.8991 -5.71757 0
      vertex 25.1225 -11.1853 0
      vertex 22.248 -16.1641 0
    endloop
  endfacet
  facet normal 0 0 -1
    outer loop
      vertex -26.8991 -5.71757 0
      vertex 22.248 -16.1641 0
      vertex 18.4011 -20.4365 0
    endloop
  endfacet
  facet normal 0 0 -1
    outer loop
      vertex -26.8991 -5.71757 0
      vertex 18.4011 -20.4365 0
      vertex 13.75 -23.8157 0
    endloop
  endfacet
  facet normal 0 0 -1
    outer loop
      vertex -26.8991 -5.71757 0
      vertex 13.75 -23.8157 0
      vertex 8.49797 -26.1541 0
    endloop
  endfacet
  facet normal 0 0 -1
    outer loop
      vertex -26.8991 -5.71757 0
      vertex 8.49797 -26.1541 0
      vertex 2.87453 -27.3494 0
    endloop
  endfacet
  facet normal 0 0 -1
    outer loop
      vertex -26.8991 -5.71757 0
      vertex 2.87453 -27.3494 0
      vertex -2.87453 -27.3494 0
    endloop
  endfacet
  facet normal 0 0 -1
    outer loop
      vertex -26.8991 -5.71757 0
      vertex -2.87453 -27.3494 0
      vertex -8.49797 -26.1541 0
    endloop
  endfacet
  facet normal 0 0 -1
    outer loop
      vertex -26.8991 -5.71757 0
      vertex -8.49797 -26.1541 0
      vertex -13.75 -23.8157 0
    endloop
  endfacet
  facet normal 0 0 -1
    outer loop
      vertex -26.8991 -5.71757 0
      vertex -13.75 -23.8157 0
      vertex -18.4011 -20.4365 0
    endloop
  endfacet
  facet normal 0 0 -1
    outer loop
      vertex -26.8991 -5.71757 0
      vertex -18.4011 -20.4365 0
      vertex -22.248 -16.1641 0
    endloop
  endfacet
  facet normal 0 0 -1
    outer loop
      vertex -26.8991 -5.71757 0
      vertex -22.248 -16.1641 0
      vertex -25.1225 -11.1853 0
    endloop
  endfacet
  facet normal 0 0 -1
    outer loop
      vertex -0.927051 2.85317 0
      vertex 25.1225 11.1853 0
      vertex 0.927051 2.85317 0
    endloop
  endfacet
  facet normal 0 0 -1
    outer loop
      vertex 2.42705 1.76336 0
      vertex 26.8991 5.71757 0
      vertex 3 0 0
    endloop
  endfacet
  facet normal 0 0 -1
    outer loop
      vertex -26.8991 -5.71757 0
      vertex -2.42705 -1.76336 0
      vertex -0.927051 -2.85317 0
    endloop
  endfacet
  facet normal 0 0 -1
    outer loop
      vertex 2.42705 -1.76336 0
      vertex 27.5 0 0
      vertex 0.927051 -2.85317 0
    endloop
  endfacet
  facet normal 0 0 -1
    outer loop
      vertex -26.8991 -5.71757 0
      vertex 0.927051 -2.85317 0
      vertex 26.8991 -5.71757 0
    endloop
  endfacet
  facet normal 0 0 -1
    outer loop
      vertex 3 0 0
      vertex 26.8991 5.71757 0
      vertex 27.5 0 0
    endloop
  endfacet
  facet normal 0 0 -1
    outer loop
      vertex 3 0 0
      vertex 27.5 0 0
      vertex 2.42705 -1.76336 0
    endloop
  endfacet
  facet normal 0 0 -1
    outer loop
      vertex 0.927051 -2.85317 0
      vertex -26.8991 -5.71757 0
      vertex -0.927051 -2.85317 0
    endloop
  endfacet
  facet normal 0 0 -1
    outer loop
      vertex 0.927051 2.85317 0
      vertex 25.1225 11.1853 0
      vertex 2.42705 1.76336 0
    endloop
  endfacet
  facet normal 0 0 -1
    outer loop
      vertex -26.8991 -5.71757 0
      vertex 22.248 16.1641 0
      vertex -0.927051 2.85317 0
    endloop
  endfacet
  facet normal 0 0 -1
    outer loop
      vertex -2.42705 1.76336 0
      vertex -26.8991 -5.71757 0
      vertex -0.927051 2.85317 0
    endloop
  endfacet
  facet normal 0 0 -1
    outer loop
      vertex -26.8991 -5.71757 0
      vertex -2.42705 1.76336 0
      vertex -3 0 0
    endloop
  endfacet
  facet normal 0 0 -1
    outer loop
      vertex -2.42705 -1.76336 0
      vertex -26.8991 -5.71757 0
      vertex -3 0 0
    endloop
  endfacet
  facet normal 0.974114 0.102384 0.201541
    outer loop
      vertex -36.0734 -7.66764 58
      vertex -24.9428 -5.30175 3
      vertex -36.8505 -0.274228 58
    endloop
  endfacet
  facet normal 0.974114 0.102384 0.201541
    outer loop
      vertex -36.8505 -0.274228 58
      vertex -24.9428 -5.30175 3
      vertex -25.5 0 3
    endloop
  endfacet
  facet normal 0.974114 0.102384 0.201541
    outer loop
      vertex -36.8793 0 58
      vertex -36.8505 -0.274228 58
      vertex -25.5 0 3
    endloop
  endfacet
  facet normal 0.931541 0.302676 0.201541
    outer loop
      vertex -35.9882 -7.92988 58
      vertex -23.2954 -10.3718 3
      vertex -24.9428 -5.30175 3
    endloop
  endfacet
  facet normal 0.931541 0.302676 0.201541
    outer loop
      vertex -36.0734 -7.66764 58
      vertex -35.9882 -7.92988 58
      vertex -24.9428 -5.30175 3
    endloop
  endfacet
  facet normal 0.931541 0.302676 0.201541
    outer loop
      vertex -33.6909 -15.0002 58
      vertex -23.2954 -10.3718 3
      vertex -35.9882 -7.92988 58
    endloop
  endfacet
  facet normal 0.848255 0.48974 0.201541
    outer loop
      vertex -33.5531 -15.239 58
      vertex -20.6299 -14.9885 3
      vertex -23.2954 -10.3718 3
    endloop
  endfacet
  facet normal 0.848255 0.48974 0.201541
    outer loop
      vertex -33.6909 -15.0002 58
      vertex -33.5531 -15.239 58
      vertex -23.2954 -10.3718 3
    endloop
  endfacet
  facet normal 0.848255 0.48974 0.201541
    outer loop
      vertex -29.836 -21.6771 58
      vertex -20.6299 -14.9885 3
      vertex -33.5531 -15.239 58
    endloop
  endfacet
  facet normal 0.727896 0.6554 0.201541
    outer loop
      vertex -29.6515 -21.882 58
      vertex -17.0628 -18.9502 3
      vertex -20.6299 -14.9885 3
    endloop
  endfacet
  facet normal 0.727896 0.6554 0.201541
    outer loop
      vertex -29.836 -21.6771 58
      vertex -29.6515 -21.882 58
      vertex -20.6299 -14.9885 3
    endloop
  endfacet
  facet normal 0.727896 0.6554 0.201541
    outer loop
      vertex -24.6771 -27.4067 58
      vertex -17.0628 -18.9502 3
      vertex -29.6515 -21.882 58
    endloop
  endfacet
  facet normal 0.575724 0.792416 0.201541
    outer loop
      vertex -12.75 -22.0836 3
      vertex -17.0628 -18.9502 3
      vertex -24.454 -27.5687 58
    endloop
  endfacet
  facet normal 0.575724 0.792416 0.201541
    outer loop
      vertex -24.454 -27.5687 58
      vertex -17.0628 -18.9502 3
      vertex -24.6771 -27.4067 58
    endloop
  endfacet
  facet normal 0.575724 0.792416 0.201541
    outer loop
      vertex -18.4397 -31.9384 58
      vertex -12.75 -22.0836 3
      vertex -24.454 -27.5687 58
    endloop
  endfacet
  facet normal 0.39839 0.8948 0.201541
    outer loop
      vertex -7.87993 -24.2519 3
      vertex -12.75 -22.0836 3
      vertex -18.1878 -32.0506 58
    endloop
  endfacet
  facet normal 0.39839 0.8948 0.201541
    outer loop
      vertex -18.1878 -32.0506 58
      vertex -12.75 -22.0836 3
      vertex -18.4397 -31.9384 58
    endloop
  endfacet
  facet normal 0.39839 0.8948 0.201541
    outer loop
      vertex -11.3963 -35.0743 58
      vertex -7.87993 -24.2519 3
      vertex -18.1878 -32.0506 58
    endloop
  endfacet
  facet normal 0.203645 0.958076 0.201541
    outer loop
      vertex -2.66548 -25.3603 3
      vertex -7.87993 -24.2519 3
      vertex -11.1266 -35.1316 58
    endloop
  endfacet
  facet normal 0.203645 0.958076 0.201541
    outer loop
      vertex -11.1266 -35.1316 58
      vertex -7.87993 -24.2519 3
      vertex -11.3963 -35.0743 58
    endloop
  endfacet
  facet normal 0.203645 0.958076 0.201541
    outer loop
      vertex -3.85494 -36.6773 58
      vertex -2.66548 -25.3603 3
      vertex -11.1266 -35.1316 58
    endloop
  endfacet
  facet normal 0 0.97948 0.201541
    outer loop
      vertex 2.66548 -25.3603 3
      vertex -2.66548 -25.3603 3
      vertex 3.85494 -36.6773 58
    endloop
  endfacet
  facet normal 0 0.97948 0.201541
    outer loop
      vertex 3.85494 -36.6773 58
      vertex -2.66548 -25.3603 3
      vertex -3.85494 -36.6773 58
    endloop
  endfacet
  facet normal -0.203645 0.958076 0.201541
    outer loop
      vertex 4.12465 -36.62 58
      vertex 7.87993 -24.2519 3
      vertex 3.85494 -36.6773 58
    endloop
  endfacet
  facet normal -0.203645 0.958076 0.201541
    outer loop
      vertex 3.85494 -36.6773 58
      vertex 7.87993 -24.2519 3
      vertex 2.66548 -25.3603 3
    endloop
  endfacet
  facet normal -0.203645 0.958076 0.201541
    outer loop
      vertex 11.3963 -35.0743 58
      vertex 7.87993 -24.2519 3
      vertex 4.12465 -36.62 58
    endloop
  endfacet
  facet normal -0.39839 0.8948 0.201541
    outer loop
      vertex 11.6482 -34.9622 58
      vertex 12.75 -22.0836 3
      vertex 11.3963 -35.0743 58
    endloop
  endfacet
  facet normal -0.39839 0.8948 0.201541
    outer loop
      vertex 11.3963 -35.0743 58
      vertex 12.75 -22.0836 3
      vertex 7.87993 -24.2519 3
    endloop
  endfacet
  facet normal -0.39839 0.8948 0.201541
    outer loop
      vertex 18.4397 -31.9384 58
      vertex 12.75 -22.0836 3
      vertex 11.6482 -34.9622 58
    endloop
  endfacet
  facet normal -0.575724 0.792416 0.201541
    outer loop
      vertex 18.6627 -31.7763 58
      vertex 17.0628 -18.9502 3
      vertex 18.4397 -31.9384 58
    endloop
  endfacet
  facet normal -0.575724 0.792416 0.201541
    outer loop
      vertex 18.4397 -31.9384 58
      vertex 17.0628 -18.9502 3
      vertex 12.75 -22.0836 3
    endloop
  endfacet
  facet normal -0.575724 0.792416 0.201541
    outer loop
      vertex 18.6627 -31.7763 58
      vertex 24.6771 -27.4067 58
      vertex 17.0628 -18.9502 3
    endloop
  endfacet
  facet normal -0.727896 0.6554 0.201541
    outer loop
      vertex 24.8616 -27.2018 58
      vertex 20.6299 -14.9885 3
      vertex 24.6771 -27.4067 58
    endloop
  endfacet
  facet normal -0.727896 0.6554 0.201541
    outer loop
      vertex 24.6771 -27.4067 58
      vertex 20.6299 -14.9885 3
      vertex 17.0628 -18.9502 3
    endloop
  endfacet
  facet normal -0.727896 0.6554 0.201541
    outer loop
      vertex 24.8616 -27.2018 58
      vertex 29.836 -21.6771 58
      vertex 20.6299 -14.9885 3
    endloop
  endfacet
  facet normal -0.848255 0.48974 0.201541
    outer loop
      vertex 29.9739 -21.4383 58
      vertex 23.2954 -10.3718 3
      vertex 29.836 -21.6771 58
    endloop
  endfacet
  facet normal -0.848255 0.48974 0.201541
    outer loop
      vertex 29.836 -21.6771 58
      vertex 23.2954 -10.3718 3
      vertex 20.6299 -14.9885 3
    endloop
  endfacet
  facet normal -0.848255 0.48974 0.201541
    outer loop
      vertex 29.9739 -21.4383 58
      vertex 33.6909 -15.0002 58
      vertex 23.2954 -10.3718 3
    endloop
  endfacet
  facet normal -0.931541 0.302676 0.201541
    outer loop
      vertex 33.7761 -14.7379 58
      vertex 24.9428 -5.30175 3
      vertex 33.6909 -15.0002 58
    endloop
  endfacet
  facet normal -0.931541 0.302676 0.201541
    outer loop
      vertex 33.6909 -15.0002 58
      vertex 24.9428 -5.30175 3
      vertex 23.2954 -10.3718 3
    endloop
  endfacet
  facet normal -0.931541 0.302676 0.201541
    outer loop
      vertex 33.7761 -14.7379 58
      vertex 36.0734 -7.66764 58
      vertex 24.9428 -5.30175 3
    endloop
  endfacet
  facet normal -0.974114 0.102384 0.201541
    outer loop
      vertex 36.1022 -7.39341 58
      vertex 25.5 0 3
      vertex 36.0734 -7.66764 58
    endloop
  endfacet
  facet normal -0.974114 0.102384 0.201541
    outer loop
      vertex 36.0734 -7.66764 58
      vertex 25.5 0 3
      vertex 24.9428 -5.30175 3
    endloop
  endfacet
  facet normal -0.974114 0.102384 0.201541
    outer loop
      vertex 36.1022 -7.39341 58
      vertex 36.8793 0 58
      vertex 25.5 0 3
    endloop
  endfacet
  facet normal -0.974114 -0.102384 0.201541
    outer loop
      vertex 36.8793 0 58
      vertex 36.8505 0.274228 58
      vertex 25.5 0 3
    endloop
  endfacet
  facet normal -0.974114 -0.102384 0.201541
    outer loop
      vertex 25.5 0 3
      vertex 36.8505 0.274228 58
      vertex 24.9428 5.30175 3
    endloop
  endfacet
  facet normal -0.974114 -0.102384 0.201541
    outer loop
      vertex 36.8505 0.274228 58
      vertex 36.0734 7.66764 58
      vertex 24.9428 5.30175 3
    endloop
  endfacet
  facet normal -0.931541 -0.302676 0.201541
    outer loop
      vertex 36.0734 7.66764 58
      vertex 35.9882 7.92988 58
      vertex 24.9428 5.30175 3
    endloop
  endfacet
  facet normal -0.931541 -0.302676 0.201541
    outer loop
      vertex 24.9428 5.30175 3
      vertex 35.9882 7.92988 58
      vertex 23.2954 10.3718 3
    endloop
  endfacet
  facet normal -0.931541 -0.302676 0.201541
    outer loop
      vertex 35.9882 7.92988 58
      vertex 33.6909 15.0002 58
      vertex 23.2954 10.3718 3
    endloop
  endfacet
  facet normal -0.848255 -0.48974 0.201541
    outer loop
      vertex 33.6909 15.0002 58
      vertex 33.5531 15.239 58
      vertex 23.2954 10.3718 3
    endloop
  endfacet
  facet normal -0.848255 -0.48974 0.201541
    outer loop
      vertex 23.2954 10.3718 3
      vertex 33.5531 15.239 58
      vertex 20.6299 14.9885 3
    endloop
  endfacet
  facet normal -0.848255 -0.48974 0.201541
    outer loop
      vertex 33.5531 15.239 58
      vertex 29.836 21.6771 58
      vertex 20.6299 14.9885 3
    endloop
  endfacet
  facet normal -0.727896 -0.6554 0.201541
    outer loop
      vertex 29.836 21.6771 58
      vertex 29.6515 21.882 58
      vertex 20.6299 14.9885 3
    endloop
  endfacet
  facet normal -0.727896 -0.6554 0.201541
    outer loop
      vertex 20.6299 14.9885 3
      vertex 29.6515 21.882 58
      vertex 17.0628 18.9502 3
    endloop
  endfacet
  facet normal -0.727896 -0.6554 0.201541
    outer loop
      vertex 29.6515 21.882 58
      vertex 24.6771 27.4067 58
      vertex 17.0628 18.9502 3
    endloop
  endfacet
  facet normal -0.575724 -0.792416 0.201541
    outer loop
      vertex 17.0628 18.9502 3
      vertex 24.6771 27.4067 58
      vertex 24.454 27.5687 58
    endloop
  endfacet
  facet normal -0.575724 -0.792416 0.201541
    outer loop
      vertex 12.75 22.0836 3
      vertex 17.0628 18.9502 3
      vertex 24.454 27.5687 58
    endloop
  endfacet
  facet normal -0.575724 -0.792416 0.201541
    outer loop
      vertex 24.454 27.5687 58
      vertex 18.4397 31.9384 58
      vertex 12.75 22.0836 3
    endloop
  endfacet
  facet normal -0.39839 -0.8948 0.201541
    outer loop
      vertex 12.75 22.0836 3
      vertex 18.4397 31.9384 58
      vertex 18.1878 32.0506 58
    endloop
  endfacet
  facet normal -0.39839 -0.8948 0.201541
    outer loop
      vertex 7.87993 24.2519 3
      vertex 12.75 22.0836 3
      vertex 18.1878 32.0506 58
    endloop
  endfacet
  facet normal -0.39839 -0.8948 0.201541
    outer loop
      vertex 18.1878 32.0506 58
      vertex 11.3963 35.0743 58
      vertex 7.87993 24.2519 3
    endloop
  endfacet
  facet normal -0.203645 -0.958076 0.201541
    outer loop
      vertex 7.87993 24.2519 3
      vertex 11.3963 35.0743 58
      vertex 11.1266 35.1316 58
    endloop
  endfacet
  facet normal -0.203645 -0.958076 0.201541
    outer loop
      vertex 2.66548 25.3603 3
      vertex 7.87993 24.2519 3
      vertex 11.1266 35.1316 58
    endloop
  endfacet
  facet normal -0.203645 -0.958076 0.201541
    outer loop
      vertex 11.1266 35.1316 58
      vertex 3.85494 36.6773 58
      vertex 2.66548 25.3603 3
    endloop
  endfacet
  facet normal 0 -0.97948 0.201541
    outer loop
      vertex -2.66548 25.3603 3
      vertex 2.66548 25.3603 3
      vertex 3.85494 36.6773 58
    endloop
  endfacet
  facet normal 0 -0.97948 0.201541
    outer loop
      vertex -3.85494 36.6773 58
      vertex -2.66548 25.3603 3
      vertex 3.85494 36.6773 58
    endloop
  endfacet
  facet normal 0.203645 -0.958076 0.201541
    outer loop
      vertex -2.66548 25.3603 3
      vertex -3.85494 36.6773 58
      vertex -4.12465 36.62 58
    endloop
  endfacet
  facet normal 0.203645 -0.958076 0.201541
    outer loop
      vertex -7.87993 24.2519 3
      vertex -2.66548 25.3603 3
      vertex -4.12465 36.62 58
    endloop
  endfacet
  facet normal 0.203645 -0.958076 0.201541
    outer loop
      vertex -7.87993 24.2519 3
      vertex -4.12465 36.62 58
      vertex -11.3963 35.0743 58
    endloop
  endfacet
  facet normal 0.39839 -0.8948 0.201541
    outer loop
      vertex -7.87993 24.2519 3
      vertex -11.3963 35.0743 58
      vertex -11.6482 34.9622 58
    endloop
  endfacet
  facet normal 0.39839 -0.8948 0.201541
    outer loop
      vertex -12.75 22.0836 3
      vertex -7.87993 24.2519 3
      vertex -11.6482 34.9622 58
    endloop
  endfacet
  facet normal 0.39839 -0.8948 0.201541
    outer loop
      vertex -12.75 22.0836 3
      vertex -11.6482 34.9622 58
      vertex -18.4397 31.9384 58
    endloop
  endfacet
  facet normal 0.575724 -0.792416 0.201541
    outer loop
      vertex -17.0628 18.9502 3
      vertex -12.75 22.0836 3
      vertex -18.4397 31.9384 58
    endloop
  endfacet
  facet normal 0.575724 -0.792416 0.201541
    outer loop
      vertex -18.6627 31.7763 58
      vertex -17.0628 18.9502 3
      vertex -18.4397 31.9384 58
    endloop
  endfacet
  facet normal 0.575724 -0.792416 0.201541
    outer loop
      vertex -17.0628 18.9502 3
      vertex -18.6627 31.7763 58
      vertex -24.6771 27.4067 58
    endloop
  endfacet
  facet normal 0.727896 -0.6554 0.201541
    outer loop
      vertex -20.6299 14.9885 3
      vertex -17.0628 18.9502 3
      vertex -24.6771 27.4067 58
    endloop
  endfacet
  facet normal 0.727896 -0.6554 0.201541
    outer loop
      vertex -24.8616 27.2018 58
      vertex -20.6299 14.9885 3
      vertex -24.6771 27.4067 58
    endloop
  endfacet
  facet normal 0.727896 -0.6554 0.201541
    outer loop
      vertex -20.6299 14.9885 3
      vertex -24.8616 27.2018 58
      vertex -29.836 21.6771 58
    endloop
  endfacet
  facet normal 0.848255 -0.48974 0.201541
    outer loop
      vertex -23.2954 10.3718 3
      vertex -20.6299 14.9885 3
      vertex -29.836 21.6771 58
    endloop
  endfacet
  facet normal 0.848255 -0.48974 0.201541
    outer loop
      vertex -29.9739 21.4383 58
      vertex -23.2954 10.3718 3
      vertex -29.836 21.6771 58
    endloop
  endfacet
  facet normal 0.848255 -0.48974 0.201541
    outer loop
      vertex -23.2954 10.3718 3
      vertex -29.9739 21.4383 58
      vertex -33.6909 15.0002 58
    endloop
  endfacet
  facet normal 0.931541 -0.302676 0.201541
    outer loop
      vertex -24.9428 5.30175 3
      vertex -23.2954 10.3718 3
      vertex -33.6909 15.0002 58
    endloop
  endfacet
  facet normal 0.931541 -0.302676 0.201541
    outer loop
      vertex -33.7761 14.7379 58
      vertex -24.9428 5.30175 3
      vertex -33.6909 15.0002 58
    endloop
  endfacet
  facet normal 0.931541 -0.302676 0.201541
    outer loop
      vertex -24.9428 5.30175 3
      vertex -33.7761 14.7379 58
      vertex -36.0734 7.66764 58
    endloop
  endfacet
  facet normal 0.974114 -0.102384 0.201541
    outer loop
      vertex -25.5 0 3
      vertex -24.9428 5.30175 3
      vertex -36.0734 7.66764 58
    endloop
  endfacet
  facet normal 0.974114 -0.102384 0.201541
    outer loop
      vertex -36.1022 7.39341 58
      vertex -25.5 0 3
      vertex -36.0734 7.66764 58
    endloop
  endfacet
  facet normal 0.974114 -0.102384 0.201541
    outer loop
      vertex -25.5 0 3
      vertex -36.1022 7.39341 58
      vertex -36.8793 0 58
    endloop
  endfacet
  facet normal 0.951057 -0.309017 0
    outer loop
      vertex -2.42705 1.76336 0
      vertex -2.42705 1.76336 3
      vertex -3 0 3
    endloop
  endfacet
  facet normal 0.951057 -0.309017 0
    outer loop
      vertex -3 0 0
      vertex -2.42705 1.76336 0
      vertex -3 0 3
    endloop
  endfacet
  facet normal 0.951057 0.309017 0
    outer loop
      vertex -3 0 3
      vertex -2.42705 -1.76336 3
      vertex -2.42705 -1.76336 0
    endloop
  endfacet
  facet normal 0.951057 0.309017 0
    outer loop
      vertex -3 0 0
      vertex -3 0 3
      vertex -2.42705 -1.76336 0
    endloop
  endfacet
  facet normal 0.587785 -0.809017 0
    outer loop
      vertex -0.927051 2.85317 0
      vertex -0.927051 2.85317 3
      vertex -2.42705 1.76336 3
    endloop
  endfacet
  facet normal 0.587785 -0.809017 0
    outer loop
      vertex -2.42705 1.76336 0
      vertex -0.927051 2.85317 0
      vertex -2.42705 1.76336 3
    endloop
  endfacet
  facet normal 0 -1 0
    outer loop
      vertex 0.927051 2.85317 0
      vertex 0.927051 2.85317 3
      vertex -0.927051 2.85317 3
    endloop
  endfacet
  facet normal 0 -1 0
    outer loop
      vertex -0.927051 2.85317 0
      vertex 0.927051 2.85317 0
      vertex -0.927051 2.85317 3
    endloop
  endfacet
  facet normal -0.587785 -0.809017 0
    outer loop
      vertex 2.42705 1.76336 0
      vertex 2.42705 1.76336 3
      vertex 0.927051 2.85317 3
    endloop
  endfacet
  facet normal -0.587785 -0.809017 0
    outer loop
      vertex 0.927051 2.85317 0
      vertex 2.42705 1.76336 0
      vertex 0.927051 2.85317 3
    endloop
  endfacet
  facet normal -0.951057 -0.309017 0
    outer loop
      vertex 3 0 3
      vertex 2.42705 1.76336 3
      vertex 3 0 0
    endloop
  endfacet
  facet normal -0.951057 -0.309017 0
    outer loop
      vertex 3 0 0
      vertex 2.42705 1.76336 3
      vertex 2.42705 1.76336 0
    endloop
  endfacet
  facet normal -0.951057 0.309017 0
    outer loop
      vertex 3 0 3
      vertex 3 0 0
      vertex 2.42705 -1.76336 3
    endloop
  endfacet
  facet normal -0.951057 0.309017 0
    outer loop
      vertex 2.42705 -1.76336 3
      vertex 3 0 0
      vertex 2.42705 -1.76336 0
    endloop
  endfacet
  facet normal -0.587785 0.809017 0
    outer loop
      vertex 2.42705 -1.76336 3
      vertex 2.42705 -1.76336 0
      vertex 0.927051 -2.85317 3
    endloop
  endfacet
  facet normal -0.587785 0.809017 0
    outer loop
      vertex 0.927051 -2.85317 3
      vertex 2.42705 -1.76336 0
      vertex 0.927051 -2.85317 0
    endloop
  endfacet
  facet normal 0 1 0
    outer loop
      vertex 0.927051 -2.85317 3
      vertex 0.927051 -2.85317 0
      vertex -0.927051 -2.85317 3
    endloop
  endfacet
  facet normal 0 1 0
    outer loop
      vertex -0.927051 -2.85317 3
      vertex 0.927051 -2.85317 0
      vertex -0.927051 -2.85317 0
    endloop
  endfacet
  facet normal 0.587785 0.809017 0
    outer loop
      vertex -0.927051 -2.85317 3
      vertex -0.927051 -2.85317 0
      vertex -2.42705 -1.76336 3
    endloop
  endfacet
  facet normal 0.587785 0.809017 0
    outer loop
      vertex -2.42705 -1.76336 3
      vertex -0.927051 -2.85317 0
      vertex -2.42705 -1.76336 0
    endloop
  endfacet
  facet normal 0 0 1
    outer loop
      vertex -24.9428 -5.30175 3
      vertex -23.2954 -10.3718 3
      vertex -20.6299 -14.9885 3
    endloop
  endfacet
  facet normal 0 0 1
    outer loop
      vertex -12.75 -22.0836 3
      vertex -24.9428 -5.30175 3
      vertex -17.0628 -18.9502 3
    endloop
  endfacet
  facet normal 0 0 1
    outer loop
      vertex -17.0628 -18.9502 3
      vertex -24.9428 -5.30175 3
      vertex -20.6299 -14.9885 3
    endloop
  endfacet
  facet normal 0 0 1
    outer loop
      vertex -7.87993 -24.2519 3
      vertex -24.9428 -5.30175 3
      vertex -12.75 -22.0836 3
    endloop
  endfacet
  facet normal 0 0 1
    outer loop
      vertex -2.66548 -25.3603 3
      vertex -24.9428 -5.30175 3
      vertex -7.87993 -24.2519 3
    endloop
  endfacet
  facet normal 0 0 1
    outer loop
      vertex 2.66548 -25.3603 3
      vertex -24.9428 -5.30175 3
      vertex -2.66548 -25.3603 3
    endloop
  endfacet
  facet normal 0 0 1
    outer loop
      vertex 7.87993 -24.2519 3
      vertex -24.9428 -5.30175 3
      vertex 2.66548 -25.3603 3
    endloop
  endfacet
  facet normal 0 0 1
    outer loop
      vertex 12.75 -22.0836 3
      vertex -24.9428 -5.30175 3
      vertex 7.87993 -24.2519 3
    endloop
  endfacet
  facet normal 0 0 1
    outer loop
      vertex 17.0628 -18.9502 3
      vertex -24.9428 -5.30175 3
      vertex 12.75 -22.0836 3
    endloop
  endfacet
  facet normal 0 0 1
    outer loop
      vertex 20.6299 -14.9885 3
      vertex -24.9428 -5.30175 3
      vertex 17.0628 -18.9502 3
    endloop
  endfacet
  facet normal 0 0 1
    outer loop
      vertex 23.2954 -10.3718 3
      vertex -24.9428 -5.30175 3
      vertex 20.6299 -14.9885 3
    endloop
  endfacet
  facet normal 0 0 1
    outer loop
      vertex 24.9428 -5.30175 3
      vertex -24.9428 -5.30175 3
      vertex 23.2954 -10.3718 3
    endloop
  endfacet
  facet normal 0 0 1
    outer loop
      vertex 0.927051 -2.85317 3
      vertex -24.9428 -5.30175 3
      vertex 24.9428 -5.30175 3
    endloop
  endfacet
  facet normal 0 0 1
    outer loop
      vertex 0.927051 2.85317 3
      vertex 2.42705 1.76336 3
      vertex 23.2954 10.3718 3
    endloop
  endfacet
  facet normal 0 0 1
    outer loop
      vertex 17.0628 18.9502 3
      vertex -24.9428 -5.30175 3
      vertex 20.6299 14.9885 3
    endloop
  endfacet
  facet normal 0 0 1
    outer loop
      vertex 12.75 22.0836 3
      vertex -24.9428 -5.30175 3
      vertex 17.0628 18.9502 3
    endloop
  endfacet
  facet normal 0 0 1
    outer loop
      vertex 7.87993 24.2519 3
      vertex -24.9428 -5.30175 3
      vertex 12.75 22.0836 3
    endloop
  endfacet
  facet normal 0 0 1
    outer loop
      vertex 2.66548 25.3603 3
      vertex -24.9428 -5.30175 3
      vertex 7.87993 24.2519 3
    endloop
  endfacet
  facet normal 0 0 1
    outer loop
      vertex -2.66548 25.3603 3
      vertex -24.9428 -5.30175 3
      vertex 2.66548 25.3603 3
    endloop
  endfacet
  facet normal 0 0 1
    outer loop
      vertex -7.87993 24.2519 3
      vertex -24.9428 -5.30175 3
      vertex -2.66548 25.3603 3
    endloop
  endfacet
  facet normal 0 0 1
    outer loop
      vertex -12.75 22.0836 3
      vertex -24.9428 -5.30175 3
      vertex -7.87993 24.2519 3
    endloop
  endfacet
  facet normal 0 0 1
    outer loop
      vertex -17.0628 18.9502 3
      vertex -24.9428 -5.30175 3
      vertex -12.75 22.0836 3
    endloop
  endfacet
  facet normal 0 0 1
    outer loop
      vertex -20.6299 14.9885 3
      vertex -24.9428 -5.30175 3
      vertex -17.0628 18.9502 3
    endloop
  endfacet
  facet normal 0 0 1
    outer loop
      vertex -23.2954 10.3718 3
      vertex -24.9428 -5.30175 3
      vertex -20.6299 14.9885 3
    endloop
  endfacet
  facet normal 0 0 1
    outer loop
      vertex -24.9428 5.30175 3
      vertex -24.9428 -5.30175 3
      vertex -23.2954 10.3718 3
    endloop
  endfacet
  facet normal 0 0 1
    outer loop
      vertex -25.5 0 3
      vertex -24.9428 -5.30175 3
      vertex -24.9428 5.30175 3
    endloop
  endfacet
  facet normal 0 0 1
    outer loop
      vertex -2.42705 1.76336 3
      vertex -24.9428 -5.30175 3
      vertex -3 0 3
    endloop
  endfacet
  facet normal 0 0 1
    outer loop
      vertex -0.927051 2.85317 3
      vertex 0.927051 2.85317 3
      vertex 23.2954 10.3718 3
    endloop
  endfacet
  facet normal 0 0 1
    outer loop
      vertex 20.6299 14.9885 3
      vertex -0.927051 2.85317 3
      vertex 23.2954 10.3718 3
    endloop
  endfacet
  facet normal 0 0 1
    outer loop
      vertex 20.6299 14.9885 3
      vertex -24.9428 -5.30175 3
      vertex -0.927051 2.85317 3
    endloop
  endfacet
  facet normal 0 0 1
    outer loop
      vertex 2.42705 1.76336 3
      vertex 3 0 3
      vertex 24.9428 5.30175 3
    endloop
  endfacet
  facet normal 0 0 1
    outer loop
      vertex 23.2954 10.3718 3
      vertex 2.42705 1.76336 3
      vertex 24.9428 5.30175 3
    endloop
  endfacet
  facet normal 0 0 1
    outer loop
      vertex 24.9428 5.30175 3
      vertex 3 0 3
      vertex 25.5 0 3
    endloop
  endfacet
  facet normal 0 0 1
    outer loop
      vertex -2.42705 1.76336 3
      vertex -0.927051 2.85317 3
      vertex -24.9428 -5.30175 3
    endloop
  endfacet
  facet normal 0 0 1
    outer loop
      vertex 3 0 3
      vertex 2.42705 -1.76336 3
      vertex 25.5 0 3
    endloop
  endfacet
  facet normal 0 0 1
    outer loop
      vertex 25.5 0 3
      vertex 0.927051 -2.85317 3
      vertex 24.9428 -5.30175 3
    endloop
  endfacet
  facet normal 0 0 1
    outer loop
      vertex -0.927051 -2.85317 3
      vertex -24.9428 -5.30175 3
      vertex 0.927051 -2.85317 3
    endloop
  endfacet
  facet normal 0 0 1
    outer loop
      vertex -0.927051 -2.85317 3
      vertex -2.42705 -1.76336 3
      vertex -24.9428 -5.30175 3
    endloop
  endfacet
  facet normal 0 0 1
    outer loop
      vertex 2.42705 -1.76336 3
      vertex 0.927051 -2.85317 3
      vertex 25.5 0 3
    endloop
  endfacet
  facet normal 0 0 1
    outer loop
      vertex -2.42705 -1.76336 3
      vertex -3 0 3
      vertex -24.9428 -5.30175 3
    endloop
  endfacet
endsolid OpenSCAD_Model
