solid OpenSCAD_Model
  facet normal 0 0 -1
    outer loop
      vertex -42.5 0 55
      vertex -41.5713 8.83625 55
      vertex -41.5713 -8.83625 55
    endloop
  endfacet
  facet normal 0 0 -1
    outer loop
      vertex -41.5713 -8.83625 55
      vertex -41.5713 8.83625 55
      vertex -38.8257 17.2863 55
    endloop
  endfacet
  facet normal 0 0 -1
    outer loop
      vertex -41.5713 -8.83625 55
      vertex -38.8257 17.2863 55
      vertex -34.3832 24.9809 55
    endloop
  endfacet
  facet normal 0 0 -1
    outer loop
      vertex -41.5713 -8.83625 55
      vertex -34.3832 24.9809 55
      vertex -28.4381 31.5837 55
    endloop
  endfacet
  facet normal 0 0 -1
    outer loop
      vertex -41.5713 -8.83625 55
      vertex -28.4381 31.5837 55
      vertex -21.25 36.8061 55
    endloop
  endfacet
  facet normal 0 0 -1
    outer loop
      vertex -41.5713 -8.83625 55
      vertex -21.25 36.8061 55
      vertex -13.1332 40.4199 55
    endloop
  endfacet
  facet normal 0 0 -1
    outer loop
      vertex -41.5713 -8.83625 55
      vertex -13.1332 40.4199 55
      vertex -4.44246 42.2672 55
    endloop
  endfacet
  facet normal 0 0 -1
    outer loop
      vertex -13.75 23.8157 55
      vertex -4.44246 42.2672 55
      vertex 4.44246 42.2672 55
    endloop
  endfacet
  facet normal 0 0 -1
    outer loop
      vertex -2.87453 27.3494 55
      vertex 4.44246 42.2672 55
      vertex 13.1332 40.4199 55
    endloop
  endfacet
  facet normal 0 0 -1
    outer loop
      vertex 2.87453 27.3494 55
      vertex 13.1332 40.4199 55
      vertex 21.25 36.8061 55
    endloop
  endfacet
  facet normal 0 0 -1
    outer loop
      vertex 13.75 23.8157 55
      vertex 21.25 36.8061 55
      vertex 28.4381 31.5837 55
    endloop
  endfacet
  facet normal 0 0 -1
    outer loop
      vertex 18.4011 20.4365 55
      vertex 28.4381 31.5837 55
      vertex 34.3832 24.9809 55
    endloop
  endfacet
  facet normal 0 0 -1
    outer loop
      vertex 22.248 16.1641 55
      vertex 34.3832 24.9809 55
      vertex 38.8257 17.2863 55
    endloop
  endfacet
  facet normal 0 0 -1
    outer loop
      vertex 25.1225 11.1853 55
      vertex 38.8257 17.2863 55
      vertex 41.5713 8.83625 55
    endloop
  endfacet
  facet normal 0 0 -1
    outer loop
      vertex 27.5 0 55
      vertex 41.5713 8.83625 55
      vertex 42.5 0 55
    endloop
  endfacet
  facet normal 0 0 -1
    outer loop
      vertex 26.8991 -5.71757 55
      vertex 42.5 0 55
      vertex 41.5713 -8.83625 55
    endloop
  endfacet
  facet normal 0 0 -1
    outer loop
      vertex 25.1225 -11.1853 55
      vertex 41.5713 -8.83625 55
      vertex 38.8257 -17.2863 55
    endloop
  endfacet
  facet normal 0 0 -1
    outer loop
      vertex 18.4011 -20.4365 55
      vertex 38.8257 -17.2863 55
      vertex 34.3832 -24.9809 55
    endloop
  endfacet
  facet normal 0 0 -1
    outer loop
      vertex 13.75 -23.8157 55
      vertex 34.3832 -24.9809 55
      vertex 28.4381 -31.5837 55
    endloop
  endfacet
  facet normal 0 0 -1
    outer loop
      vertex 2.87453 -27.3494 55
      vertex 28.4381 -31.5837 55
      vertex 21.25 -36.8061 55
    endloop
  endfacet
  facet normal 0 0 -1
    outer loop
      vertex -8.49797 -26.1541 55
      vertex 21.25 -36.8061 55
      vertex 13.1332 -40.4199 55
    endloop
  endfacet
  facet normal 0 0 -1
    outer loop
      vertex -41.5713 -8.83625 55
      vertex 13.1332 -40.4199 55
      vertex 4.44246 -42.2672 55
    endloop
  endfacet
  facet normal 0 0 -1
    outer loop
      vertex -41.5713 -8.83625 55
      vertex 4.44246 -42.2672 55
      vertex -4.44246 -42.2672 55
    endloop
  endfacet
  facet normal 0 0 -1
    outer loop
      vertex -41.5713 -8.83625 55
      vertex -4.44246 -42.2672 55
      vertex -13.1332 -40.4199 55
    endloop
  endfacet
  facet normal 0 0 -1
    outer loop
      vertex -41.5713 -8.83625 55
      vertex -13.1332 -40.4199 55
      vertex -21.25 -36.8061 55
    endloop
  endfacet
  facet normal 0 0 -1
    outer loop
      vertex -41.5713 -8.83625 55
      vertex -21.25 -36.8061 55
      vertex -28.4381 -31.5837 55
    endloop
  endfacet
  facet normal 0 0 -1
    outer loop
      vertex -41.5713 -8.83625 55
      vertex -28.4381 -31.5837 55
      vertex -34.3832 -24.9809 55
    endloop
  endfacet
  facet normal 0 0 -1
    outer loop
      vertex -41.5713 -8.83625 55
      vertex -34.3832 -24.9809 55
      vertex -38.8257 -17.2863 55
    endloop
  endfacet
  facet normal 0 0 -1
    outer loop
      vertex -26.8991 -5.71757 55
      vertex -41.5713 -8.83625 55
      vertex -27.5 0 55
    endloop
  endfacet
  facet normal 0 0 -1
    outer loop
      vertex 27.5 0 55
      vertex 42.5 0 55
      vertex 26.8991 -5.71757 55
    endloop
  endfacet
  facet normal 0 0 -1
    outer loop
      vertex -25.1225 -11.1853 55
      vertex -41.5713 -8.83625 55
      vertex -26.8991 -5.71757 55
    endloop
  endfacet
  facet normal 0 0 -1
    outer loop
      vertex -22.248 -16.1641 55
      vertex -41.5713 -8.83625 55
      vertex -25.1225 -11.1853 55
    endloop
  endfacet
  facet normal 0 0 -1
    outer loop
      vertex -18.4011 -20.4365 55
      vertex -41.5713 -8.83625 55
      vertex -22.248 -16.1641 55
    endloop
  endfacet
  facet normal 0 0 -1
    outer loop
      vertex -8.49797 -26.1541 55
      vertex 13.1332 -40.4199 55
      vertex -13.75 -23.8157 55
    endloop
  endfacet
  facet normal 0 0 -1
    outer loop
      vertex -41.5713 -8.83625 55
      vertex -18.4011 -20.4365 55
      vertex -13.75 -23.8157 55
    endloop
  endfacet
  facet normal 0 0 -1
    outer loop
      vertex -41.5713 -8.83625 55
      vertex -13.75 -23.8157 55
      vertex 13.1332 -40.4199 55
    endloop
  endfacet
  facet normal 0 0 -1
    outer loop
      vertex -2.87453 -27.3494 55
      vertex 21.25 -36.8061 55
      vertex -8.49797 -26.1541 55
    endloop
  endfacet
  facet normal 0 0 -1
    outer loop
      vertex 2.87453 -27.3494 55
      vertex 21.25 -36.8061 55
      vertex -2.87453 -27.3494 55
    endloop
  endfacet
  facet normal 0 0 -1
    outer loop
      vertex 8.49797 -26.1541 55
      vertex 28.4381 -31.5837 55
      vertex 2.87453 -27.3494 55
    endloop
  endfacet
  facet normal 0 0 -1
    outer loop
      vertex 13.75 -23.8157 55
      vertex 28.4381 -31.5837 55
      vertex 8.49797 -26.1541 55
    endloop
  endfacet
  facet normal 0 0 -1
    outer loop
      vertex 22.248 -16.1641 55
      vertex 38.8257 -17.2863 55
      vertex 18.4011 -20.4365 55
    endloop
  endfacet
  facet normal 0 0 -1
    outer loop
      vertex 25.1225 -11.1853 55
      vertex 38.8257 -17.2863 55
      vertex 22.248 -16.1641 55
    endloop
  endfacet
  facet normal 0 0 -1
    outer loop
      vertex 18.4011 -20.4365 55
      vertex 34.3832 -24.9809 55
      vertex 13.75 -23.8157 55
    endloop
  endfacet
  facet normal 0 0 -1
    outer loop
      vertex 26.8991 5.71757 55
      vertex 41.5713 8.83625 55
      vertex 27.5 0 55
    endloop
  endfacet
  facet normal 0 0 -1
    outer loop
      vertex 22.248 16.1641 55
      vertex 38.8257 17.2863 55
      vertex 25.1225 11.1853 55
    endloop
  endfacet
  facet normal 0 0 -1
    outer loop
      vertex 25.1225 11.1853 55
      vertex 41.5713 8.83625 55
      vertex 26.8991 5.71757 55
    endloop
  endfacet
  facet normal 0 0 -1
    outer loop
      vertex 8.49797 26.1541 55
      vertex 21.25 36.8061 55
      vertex 13.75 23.8157 55
    endloop
  endfacet
  facet normal 0 0 -1
    outer loop
      vertex 2.87453 27.3494 55
      vertex 21.25 36.8061 55
      vertex 8.49797 26.1541 55
    endloop
  endfacet
  facet normal 0 0 -1
    outer loop
      vertex 13.75 23.8157 55
      vertex 28.4381 31.5837 55
      vertex 18.4011 20.4365 55
    endloop
  endfacet
  facet normal 0 0 -1
    outer loop
      vertex -8.49797 26.1541 55
      vertex 4.44246 42.2672 55
      vertex -2.87453 27.3494 55
    endloop
  endfacet
  facet normal 0 0 -1
    outer loop
      vertex -18.4011 20.4365 55
      vertex -4.44246 42.2672 55
      vertex -13.75 23.8157 55
    endloop
  endfacet
  facet normal 0 0 -1
    outer loop
      vertex -25.1225 11.1853 55
      vertex -41.5713 -8.83625 55
      vertex -22.248 16.1641 55
    endloop
  endfacet
  facet normal 0 0 -1
    outer loop
      vertex -22.248 16.1641 55
      vertex -4.44246 42.2672 55
      vertex -18.4011 20.4365 55
    endloop
  endfacet
  facet normal 0 0 -1
    outer loop
      vertex -41.5713 -8.83625 55
      vertex -4.44246 42.2672 55
      vertex -22.248 16.1641 55
    endloop
  endfacet
  facet normal 0 0 -1
    outer loop
      vertex -26.8991 5.71757 55
      vertex -41.5713 -8.83625 55
      vertex -25.1225 11.1853 55
    endloop
  endfacet
  facet normal 0 0 -1
    outer loop
      vertex 18.4011 20.4365 55
      vertex 34.3832 24.9809 55
      vertex 22.248 16.1641 55
    endloop
  endfacet
  facet normal 0 0 -1
    outer loop
      vertex -27.5 0 55
      vertex -41.5713 -8.83625 55
      vertex -26.8991 5.71757 55
    endloop
  endfacet
  facet normal 0 0 -1
    outer loop
      vertex -13.75 23.8157 55
      vertex 4.44246 42.2672 55
      vertex -8.49797 26.1541 55
    endloop
  endfacet
  facet normal 0 0 -1
    outer loop
      vertex -2.87453 27.3494 55
      vertex 13.1332 40.4199 55
      vertex 2.87453 27.3494 55
    endloop
  endfacet
  facet normal 0 0 -1
    outer loop
      vertex 26.8991 -5.71757 55
      vertex 41.5713 -8.83625 55
      vertex 25.1225 -11.1853 55
    endloop
  endfacet
  facet normal -0.994522 0.104528 0
    outer loop
      vertex -42.5 0 55
      vertex -42.5 0 58
      vertex -41.5713 8.83625 55
    endloop
  endfacet
  facet normal -0.994522 0.104528 0
    outer loop
      vertex -41.5713 8.83625 55
      vertex -42.5 0 58
      vertex -41.5713 8.83625 58
    endloop
  endfacet
  facet normal -0.994522 -0.104528 0
    outer loop
      vertex -42.5 0 55
      vertex -41.5713 -8.83625 55
      vertex -42.5 0 58
    endloop
  endfacet
  facet normal -0.994522 -0.104528 0
    outer loop
      vertex -42.5 0 58
      vertex -41.5713 -8.83625 55
      vertex -41.5713 -8.83625 58
    endloop
  endfacet
  facet normal -0.951057 -0.309017 0
    outer loop
      vertex -41.5713 -8.83625 55
      vertex -38.8257 -17.2863 55
      vertex -41.5713 -8.83625 58
    endloop
  endfacet
  facet normal -0.951057 -0.309017 0
    outer loop
      vertex -41.5713 -8.83625 58
      vertex -38.8257 -17.2863 55
      vertex -38.8257 -17.2863 58
    endloop
  endfacet
  facet normal -0.866025 -0.5 0
    outer loop
      vertex -38.8257 -17.2863 55
      vertex -34.3832 -24.9809 55
      vertex -38.8257 -17.2863 58
    endloop
  endfacet
  facet normal -0.866025 -0.5 0
    outer loop
      vertex -38.8257 -17.2863 58
      vertex -34.3832 -24.9809 55
      vertex -34.3832 -24.9809 58
    endloop
  endfacet
  facet normal -0.743145 -0.669131 0
    outer loop
      vertex -34.3832 -24.9809 55
      vertex -28.4381 -31.5837 55
      vertex -34.3832 -24.9809 58
    endloop
  endfacet
  facet normal -0.743145 -0.669131 0
    outer loop
      vertex -34.3832 -24.9809 58
      vertex -28.4381 -31.5837 55
      vertex -28.4381 -31.5837 58
    endloop
  endfacet
  facet normal -0.587785 -0.809017 0
    outer loop
      vertex -28.4381 -31.5837 58
      vertex -28.4381 -31.5837 55
      vertex -21.25 -36.8061 55
    endloop
  endfacet
  facet normal -0.587785 -0.809017 0
    outer loop
      vertex -21.25 -36.8061 58
      vertex -28.4381 -31.5837 58
      vertex -21.25 -36.8061 55
    endloop
  endfacet
  facet normal -0.406737 -0.913545 0
    outer loop
      vertex -21.25 -36.8061 58
      vertex -21.25 -36.8061 55
      vertex -13.1332 -40.4199 55
    endloop
  endfacet
  facet normal -0.406737 -0.913545 0
    outer loop
      vertex -13.1332 -40.4199 58
      vertex -21.25 -36.8061 58
      vertex -13.1332 -40.4199 55
    endloop
  endfacet
  facet normal -0.207912 -0.978148 0
    outer loop
      vertex -13.1332 -40.4199 58
      vertex -13.1332 -40.4199 55
      vertex -4.44246 -42.2672 55
    endloop
  endfacet
  facet normal -0.207912 -0.978148 0
    outer loop
      vertex -4.44246 -42.2672 58
      vertex -13.1332 -40.4199 58
      vertex -4.44246 -42.2672 55
    endloop
  endfacet
  facet normal 0 -1 0
    outer loop
      vertex -4.44246 -42.2672 58
      vertex -4.44246 -42.2672 55
      vertex 4.44246 -42.2672 55
    endloop
  endfacet
  facet normal 0 -1 0
    outer loop
      vertex 4.44246 -42.2672 58
      vertex -4.44246 -42.2672 58
      vertex 4.44246 -42.2672 55
    endloop
  endfacet
  facet normal 0.207912 -0.978148 0
    outer loop
      vertex 4.44246 -42.2672 58
      vertex 4.44246 -42.2672 55
      vertex 13.1332 -40.4199 55
    endloop
  endfacet
  facet normal 0.207912 -0.978148 0
    outer loop
      vertex 13.1332 -40.4199 58
      vertex 4.44246 -42.2672 58
      vertex 13.1332 -40.4199 55
    endloop
  endfacet
  facet normal 0.406737 -0.913545 0
    outer loop
      vertex 13.1332 -40.4199 58
      vertex 13.1332 -40.4199 55
      vertex 21.25 -36.8061 55
    endloop
  endfacet
  facet normal 0.406737 -0.913545 0
    outer loop
      vertex 21.25 -36.8061 58
      vertex 13.1332 -40.4199 58
      vertex 21.25 -36.8061 55
    endloop
  endfacet
  facet normal 0.587785 -0.809017 0
    outer loop
      vertex 21.25 -36.8061 58
      vertex 21.25 -36.8061 55
      vertex 28.4381 -31.5837 55
    endloop
  endfacet
  facet normal 0.587785 -0.809017 0
    outer loop
      vertex 28.4381 -31.5837 58
      vertex 21.25 -36.8061 58
      vertex 28.4381 -31.5837 55
    endloop
  endfacet
  facet normal 0.743145 -0.669131 0
    outer loop
      vertex 28.4381 -31.5837 58
      vertex 28.4381 -31.5837 55
      vertex 34.3832 -24.9809 55
    endloop
  endfacet
  facet normal 0.743145 -0.669131 0
    outer loop
      vertex 34.3832 -24.9809 58
      vertex 28.4381 -31.5837 58
      vertex 34.3832 -24.9809 55
    endloop
  endfacet
  facet normal 0.866025 -0.5 0
    outer loop
      vertex 34.3832 -24.9809 58
      vertex 34.3832 -24.9809 55
      vertex 38.8257 -17.2863 55
    endloop
  endfacet
  facet normal 0.866025 -0.5 0
    outer loop
      vertex 38.8257 -17.2863 58
      vertex 34.3832 -24.9809 58
      vertex 38.8257 -17.2863 55
    endloop
  endfacet
  facet normal 0.951057 -0.309017 0
    outer loop
      vertex 38.8257 -17.2863 58
      vertex 38.8257 -17.2863 55
      vertex 41.5713 -8.83625 55
    endloop
  endfacet
  facet normal 0.951057 -0.309017 0
    outer loop
      vertex 41.5713 -8.83625 58
      vertex 38.8257 -17.2863 58
      vertex 41.5713 -8.83625 55
    endloop
  endfacet
  facet normal 0.994522 -0.104528 0
    outer loop
      vertex 41.5713 -8.83625 58
      vertex 41.5713 -8.83625 55
      vertex 42.5 0 55
    endloop
  endfacet
  facet normal 0.994522 -0.104528 0
    outer loop
      vertex 42.5 0 58
      vertex 41.5713 -8.83625 58
      vertex 42.5 0 55
    endloop
  endfacet
  facet normal 0.994522 0.104528 0
    outer loop
      vertex 42.5 0 55
      vertex 41.5713 8.83625 55
      vertex 41.5713 8.83625 58
    endloop
  endfacet
  facet normal 0.994522 0.104528 0
    outer loop
      vertex 42.5 0 58
      vertex 42.5 0 55
      vertex 41.5713 8.83625 58
    endloop
  endfacet
  facet normal 0.951057 0.309017 0
    outer loop
      vertex 41.5713 8.83625 55
      vertex 38.8257 17.2863 55
      vertex 38.8257 17.2863 58
    endloop
  endfacet
  facet normal 0.951057 0.309017 0
    outer loop
      vertex 41.5713 8.83625 58
      vertex 41.5713 8.83625 55
      vertex 38.8257 17.2863 58
    endloop
  endfacet
  facet normal 0.866025 0.5 0
    outer loop
      vertex 38.8257 17.2863 55
      vertex 34.3832 24.9809 55
      vertex 34.3832 24.9809 58
    endloop
  endfacet
  facet normal 0.866025 0.5 0
    outer loop
      vertex 38.8257 17.2863 58
      vertex 38.8257 17.2863 55
      vertex 34.3832 24.9809 58
    endloop
  endfacet
  facet normal 0.743145 0.669131 0
    outer loop
      vertex 34.3832 24.9809 55
      vertex 28.4381 31.5837 55
      vertex 28.4381 31.5837 58
    endloop
  endfacet
  facet normal 0.743145 0.669131 0
    outer loop
      vertex 34.3832 24.9809 58
      vertex 34.3832 24.9809 55
      vertex 28.4381 31.5837 58
    endloop
  endfacet
  facet normal 0.587785 0.809017 0
    outer loop
      vertex 21.25 36.8061 55
      vertex 21.25 36.8061 58
      vertex 28.4381 31.5837 55
    endloop
  endfacet
  facet normal 0.587785 0.809017 0
    outer loop
      vertex 28.4381 31.5837 55
      vertex 21.25 36.8061 58
      vertex 28.4381 31.5837 58
    endloop
  endfacet
  facet normal 0.406737 0.913545 0
    outer loop
      vertex 13.1332 40.4199 55
      vertex 13.1332 40.4199 58
      vertex 21.25 36.8061 55
    endloop
  endfacet
  facet normal 0.406737 0.913545 0
    outer loop
      vertex 21.25 36.8061 55
      vertex 13.1332 40.4199 58
      vertex 21.25 36.8061 58
    endloop
  endfacet
  facet normal 0.207912 0.978148 0
    outer loop
      vertex 4.44246 42.2672 55
      vertex 4.44246 42.2672 58
      vertex 13.1332 40.4199 55
    endloop
  endfacet
  facet normal 0.207912 0.978148 0
    outer loop
      vertex 13.1332 40.4199 55
      vertex 4.44246 42.2672 58
      vertex 13.1332 40.4199 58
    endloop
  endfacet
  facet normal 0 1 0
    outer loop
      vertex -4.44246 42.2672 55
      vertex -4.44246 42.2672 58
      vertex 4.44246 42.2672 55
    endloop
  endfacet
  facet normal 0 1 0
    outer loop
      vertex 4.44246 42.2672 55
      vertex -4.44246 42.2672 58
      vertex 4.44246 42.2672 58
    endloop
  endfacet
  facet normal -0.207912 0.978148 0
    outer loop
      vertex -13.1332 40.4199 55
      vertex -13.1332 40.4199 58
      vertex -4.44246 42.2672 55
    endloop
  endfacet
  facet normal -0.207912 0.978148 0
    outer loop
      vertex -4.44246 42.2672 55
      vertex -13.1332 40.4199 58
      vertex -4.44246 42.2672 58
    endloop
  endfacet
  facet normal -0.406737 0.913545 0
    outer loop
      vertex -21.25 36.8061 55
      vertex -21.25 36.8061 58
      vertex -13.1332 40.4199 55
    endloop
  endfacet
  facet normal -0.406737 0.913545 0
    outer loop
      vertex -13.1332 40.4199 55
      vertex -21.25 36.8061 58
      vertex -13.1332 40.4199 58
    endloop
  endfacet
  facet normal -0.587785 0.809017 0
    outer loop
      vertex -28.4381 31.5837 55
      vertex -28.4381 31.5837 58
      vertex -21.25 36.8061 55
    endloop
  endfacet
  facet normal -0.587785 0.809017 0
    outer loop
      vertex -21.25 36.8061 55
      vertex -28.4381 31.5837 58
      vertex -21.25 36.8061 58
    endloop
  endfacet
  facet normal -0.743145 0.669131 0
    outer loop
      vertex -34.3832 24.9809 55
      vertex -34.3832 24.9809 58
      vertex -28.4381 31.5837 55
    endloop
  endfacet
  facet normal -0.743145 0.669131 0
    outer loop
      vertex -28.4381 31.5837 55
      vertex -34.3832 24.9809 58
      vertex -28.4381 31.5837 58
    endloop
  endfacet
  facet normal -0.866025 0.5 0
    outer loop
      vertex -38.8257 17.2863 55
      vertex -38.8257 17.2863 58
      vertex -34.3832 24.9809 55
    endloop
  endfacet
  facet normal -0.866025 0.5 0
    outer loop
      vertex -34.3832 24.9809 55
      vertex -38.8257 17.2863 58
      vertex -34.3832 24.9809 58
    endloop
  endfacet
  facet normal -0.951057 0.309017 0
    outer loop
      vertex -41.5713 8.83625 55
      vertex -41.5713 8.83625 58
      vertex -38.8257 17.2863 55
    endloop
  endfacet
  facet normal -0.951057 0.309017 0
    outer loop
      vertex -38.8257 17.2863 55
      vertex -41.5713 8.83625 58
      vertex -38.8257 17.2863 58
    endloop
  endfacet
  facet normal -0.994522 0.104528 0
    outer loop
      vertex -27.5 0 0
      vertex -27.5 0 55
      vertex -26.8991 5.71757 0
    endloop
  endfacet
  facet normal -0.994522 0.104528 0
    outer loop
      vertex -26.8991 5.71757 0
      vertex -27.5 0 55
      vertex -26.8991 5.71757 55
    endloop
  endfacet
  facet normal -0.994522 -0.104528 0
    outer loop
      vertex -27.5 0 0
      vertex -26.8991 -5.71757 0
      vertex -27.5 0 55
    endloop
  endfacet
  facet normal -0.994522 -0.104528 0
    outer loop
      vertex -27.5 0 55
      vertex -26.8991 -5.71757 0
      vertex -26.8991 -5.71757 55
    endloop
  endfacet
  facet normal -0.951057 0.309017 0
    outer loop
      vertex -26.8991 5.71757 0
      vertex -26.8991 5.71757 55
      vertex -25.1225 11.1853 0
    endloop
  endfacet
  facet normal -0.951057 0.309017 0
    outer loop
      vertex -25.1225 11.1853 0
      vertex -26.8991 5.71757 55
      vertex -25.1225 11.1853 55
    endloop
  endfacet
  facet normal -0.866025 0.5 0
    outer loop
      vertex -25.1225 11.1853 0
      vertex -25.1225 11.1853 55
      vertex -22.248 16.1641 0
    endloop
  endfacet
  facet normal -0.866025 0.5 0
    outer loop
      vertex -22.248 16.1641 0
      vertex -25.1225 11.1853 55
      vertex -22.248 16.1641 55
    endloop
  endfacet
  facet normal -0.743145 0.66913 0
    outer loop
      vertex -22.248 16.1641 0
      vertex -22.248 16.1641 55
      vertex -18.4011 20.4365 0
    endloop
  endfacet
  facet normal -0.743145 0.66913 0
    outer loop
      vertex -18.4011 20.4365 0
      vertex -22.248 16.1641 55
      vertex -18.4011 20.4365 55
    endloop
  endfacet
  facet normal -0.587785 0.809017 0
    outer loop
      vertex -18.4011 20.4365 0
      vertex -18.4011 20.4365 55
      vertex -13.75 23.8157 0
    endloop
  endfacet
  facet normal -0.587785 0.809017 0
    outer loop
      vertex -13.75 23.8157 0
      vertex -18.4011 20.4365 55
      vertex -13.75 23.8157 55
    endloop
  endfacet
  facet normal -0.406737 0.913546 0
    outer loop
      vertex -13.75 23.8157 0
      vertex -13.75 23.8157 55
      vertex -8.49797 26.1541 0
    endloop
  endfacet
  facet normal -0.406737 0.913546 0
    outer loop
      vertex -8.49797 26.1541 0
      vertex -13.75 23.8157 55
      vertex -8.49797 26.1541 55
    endloop
  endfacet
  facet normal -0.207912 0.978148 0
    outer loop
      vertex -8.49797 26.1541 0
      vertex -8.49797 26.1541 55
      vertex -2.87453 27.3494 0
    endloop
  endfacet
  facet normal -0.207912 0.978148 0
    outer loop
      vertex -2.87453 27.3494 0
      vertex -8.49797 26.1541 55
      vertex -2.87453 27.3494 55
    endloop
  endfacet
  facet normal 0 1 0
    outer loop
      vertex -2.87453 27.3494 0
      vertex -2.87453 27.3494 55
      vertex 2.87453 27.3494 0
    endloop
  endfacet
  facet normal 0 1 0
    outer loop
      vertex 2.87453 27.3494 0
      vertex -2.87453 27.3494 55
      vertex 2.87453 27.3494 55
    endloop
  endfacet
  facet normal 0.207912 0.978148 0
    outer loop
      vertex 2.87453 27.3494 0
      vertex 2.87453 27.3494 55
      vertex 8.49797 26.1541 0
    endloop
  endfacet
  facet normal 0.207912 0.978148 0
    outer loop
      vertex 8.49797 26.1541 0
      vertex 2.87453 27.3494 55
      vertex 8.49797 26.1541 55
    endloop
  endfacet
  facet normal 0.406737 0.913546 0
    outer loop
      vertex 8.49797 26.1541 0
      vertex 8.49797 26.1541 55
      vertex 13.75 23.8157 0
    endloop
  endfacet
  facet normal 0.406737 0.913546 0
    outer loop
      vertex 13.75 23.8157 0
      vertex 8.49797 26.1541 55
      vertex 13.75 23.8157 55
    endloop
  endfacet
  facet normal 0.587785 0.809017 0
    outer loop
      vertex 13.75 23.8157 0
      vertex 13.75 23.8157 55
      vertex 18.4011 20.4365 0
    endloop
  endfacet
  facet normal 0.587785 0.809017 0
    outer loop
      vertex 18.4011 20.4365 0
      vertex 13.75 23.8157 55
      vertex 18.4011 20.4365 55
    endloop
  endfacet
  facet normal 0.743145 0.66913 0
    outer loop
      vertex 22.248 16.1641 0
      vertex 18.4011 20.4365 0
      vertex 18.4011 20.4365 55
    endloop
  endfacet
  facet normal 0.743145 0.66913 0
    outer loop
      vertex 22.248 16.1641 55
      vertex 22.248 16.1641 0
      vertex 18.4011 20.4365 55
    endloop
  endfacet
  facet normal 0.866025 0.5 0
    outer loop
      vertex 25.1225 11.1853 0
      vertex 22.248 16.1641 0
      vertex 22.248 16.1641 55
    endloop
  endfacet
  facet normal 0.866025 0.5 0
    outer loop
      vertex 25.1225 11.1853 55
      vertex 25.1225 11.1853 0
      vertex 22.248 16.1641 55
    endloop
  endfacet
  facet normal 0.951057 0.309017 0
    outer loop
      vertex 26.8991 5.71757 0
      vertex 25.1225 11.1853 0
      vertex 25.1225 11.1853 55
    endloop
  endfacet
  facet normal 0.951057 0.309017 0
    outer loop
      vertex 26.8991 5.71757 55
      vertex 26.8991 5.71757 0
      vertex 25.1225 11.1853 55
    endloop
  endfacet
  facet normal 0.994522 0.104528 0
    outer loop
      vertex 27.5 0 0
      vertex 26.8991 5.71757 0
      vertex 26.8991 5.71757 55
    endloop
  endfacet
  facet normal 0.994522 0.104528 0
    outer loop
      vertex 27.5 0 55
      vertex 27.5 0 0
      vertex 26.8991 5.71757 55
    endloop
  endfacet
  facet normal 0.994522 -0.104528 0
    outer loop
      vertex 26.8991 -5.71757 55
      vertex 26.8991 -5.71757 0
      vertex 27.5 0 0
    endloop
  endfacet
  facet normal 0.994522 -0.104528 0
    outer loop
      vertex 27.5 0 55
      vertex 26.8991 -5.71757 55
      vertex 27.5 0 0
    endloop
  endfacet
  facet normal 0.951057 -0.309017 0
    outer loop
      vertex 25.1225 -11.1853 55
      vertex 25.1225 -11.1853 0
      vertex 26.8991 -5.71757 0
    endloop
  endfacet
  facet normal 0.951057 -0.309017 0
    outer loop
      vertex 26.8991 -5.71757 55
      vertex 25.1225 -11.1853 55
      vertex 26.8991 -5.71757 0
    endloop
  endfacet
  facet normal 0.866025 -0.5 0
    outer loop
      vertex 22.248 -16.1641 55
      vertex 22.248 -16.1641 0
      vertex 25.1225 -11.1853 0
    endloop
  endfacet
  facet normal 0.866025 -0.5 0
    outer loop
      vertex 25.1225 -11.1853 55
      vertex 22.248 -16.1641 55
      vertex 25.1225 -11.1853 0
    endloop
  endfacet
  facet normal 0.743145 -0.66913 0
    outer loop
      vertex 18.4011 -20.4365 55
      vertex 18.4011 -20.4365 0
      vertex 22.248 -16.1641 0
    endloop
  endfacet
  facet normal 0.743145 -0.66913 0
    outer loop
      vertex 22.248 -16.1641 55
      vertex 18.4011 -20.4365 55
      vertex 22.248 -16.1641 0
    endloop
  endfacet
  facet normal 0.587785 -0.809017 0
    outer loop
      vertex 13.75 -23.8157 55
      vertex 13.75 -23.8157 0
      vertex 18.4011 -20.4365 0
    endloop
  endfacet
  facet normal 0.587785 -0.809017 0
    outer loop
      vertex 18.4011 -20.4365 55
      vertex 13.75 -23.8157 55
      vertex 18.4011 -20.4365 0
    endloop
  endfacet
  facet normal 0.406737 -0.913546 0
    outer loop
      vertex 8.49797 -26.1541 55
      vertex 8.49797 -26.1541 0
      vertex 13.75 -23.8157 0
    endloop
  endfacet
  facet normal 0.406737 -0.913546 0
    outer loop
      vertex 13.75 -23.8157 55
      vertex 8.49797 -26.1541 55
      vertex 13.75 -23.8157 0
    endloop
  endfacet
  facet normal 0.207912 -0.978148 0
    outer loop
      vertex 2.87453 -27.3494 55
      vertex 2.87453 -27.3494 0
      vertex 8.49797 -26.1541 0
    endloop
  endfacet
  facet normal 0.207912 -0.978148 0
    outer loop
      vertex 8.49797 -26.1541 55
      vertex 2.87453 -27.3494 55
      vertex 8.49797 -26.1541 0
    endloop
  endfacet
  facet normal 0 -1 0
    outer loop
      vertex -2.87453 -27.3494 55
      vertex -2.87453 -27.3494 0
      vertex 2.87453 -27.3494 0
    endloop
  endfacet
  facet normal 0 -1 0
    outer loop
      vertex 2.87453 -27.3494 55
      vertex -2.87453 -27.3494 55
      vertex 2.87453 -27.3494 0
    endloop
  endfacet
  facet normal -0.207912 -0.978148 0
    outer loop
      vertex -8.49797 -26.1541 55
      vertex -8.49797 -26.1541 0
      vertex -2.87453 -27.3494 0
    endloop
  endfacet
  facet normal -0.207912 -0.978148 0
    outer loop
      vertex -2.87453 -27.3494 55
      vertex -8.49797 -26.1541 55
      vertex -2.87453 -27.3494 0
    endloop
  endfacet
  facet normal -0.406737 -0.913546 0
    outer loop
      vertex -13.75 -23.8157 55
      vertex -13.75 -23.8157 0
      vertex -8.49797 -26.1541 0
    endloop
  endfacet
  facet normal -0.406737 -0.913546 0
    outer loop
      vertex -8.49797 -26.1541 55
      vertex -13.75 -23.8157 55
      vertex -8.49797 -26.1541 0
    endloop
  endfacet
  facet normal -0.587785 -0.809017 0
    outer loop
      vertex -18.4011 -20.4365 55
      vertex -18.4011 -20.4365 0
      vertex -13.75 -23.8157 0
    endloop
  endfacet
  facet normal -0.587785 -0.809017 0
    outer loop
      vertex -13.75 -23.8157 55
      vertex -18.4011 -20.4365 55
      vertex -13.75 -23.8157 0
    endloop
  endfacet
  facet normal -0.743145 -0.66913 0
    outer loop
      vertex -22.248 -16.1641 0
      vertex -18.4011 -20.4365 0
      vertex -22.248 -16.1641 55
    endloop
  endfacet
  facet normal -0.743145 -0.66913 0
    outer loop
      vertex -22.248 -16.1641 55
      vertex -18.4011 -20.4365 0
      vertex -18.4011 -20.4365 55
    endloop
  endfacet
  facet normal -0.866025 -0.5 0
    outer loop
      vertex -25.1225 -11.1853 0
      vertex -22.248 -16.1641 0
      vertex -25.1225 -11.1853 55
    endloop
  endfacet
  facet normal -0.866025 -0.5 0
    outer loop
      vertex -25.1225 -11.1853 55
      vertex -22.248 -16.1641 0
      vertex -22.248 -16.1641 55
    endloop
  endfacet
  facet normal -0.951057 -0.309017 0
    outer loop
      vertex -26.8991 -5.71757 0
      vertex -25.1225 -11.1853 0
      vertex -26.8991 -5.71757 55
    endloop
  endfacet
  facet normal -0.951057 -0.309017 0
    outer loop
      vertex -26.8991 -5.71757 55
      vertex -25.1225 -11.1853 0
      vertex -25.1225 -11.1853 55
    endloop
  endfacet
  facet normal 0 0 1
    outer loop
      vertex -41.5713 8.83625 58
      vertex -42.5 0 58
      vertex -41.5713 -8.83625 58
    endloop
  endfacet
  facet normal 0 0 1
    outer loop
      vertex -34.3832 -24.9809 58
      vertex -41.5713 8.83625 58
      vertex -38.8257 -17.2863 58
    endloop
  endfacet
  facet normal 0 0 1
    outer loop
      vertex -38.8257 -17.2863 58
      vertex -41.5713 8.83625 58
      vertex -41.5713 -8.83625 58
    endloop
  endfacet
  facet normal 0 0 1
    outer loop
      vertex -28.4381 -31.5837 58
      vertex -41.5713 8.83625 58
      vertex -34.3832 -24.9809 58
    endloop
  endfacet
  facet normal 0 0 1
    outer loop
      vertex -21.25 -36.8061 58
      vertex -41.5713 8.83625 58
      vertex -28.4381 -31.5837 58
    endloop
  endfacet
  facet normal 0 0 1
    outer loop
      vertex -13.1332 -40.4199 58
      vertex -41.5713 8.83625 58
      vertex -21.25 -36.8061 58
    endloop
  endfacet
  facet normal 0 0 1
    outer loop
      vertex -4.44246 -42.2672 58
      vertex -41.5713 8.83625 58
      vertex -13.1332 -40.4199 58
    endloop
  endfacet
  facet normal 0 0 1
    outer loop
      vertex -20.6299 -14.9885 58
      vertex -41.5713 8.83625 58
      vertex -4.44246 -42.2672 58
    endloop
  endfacet
  facet normal 0 0 1
    outer loop
      vertex 12.75 -22.0836 58
      vertex 7.87993 -24.2519 58
      vertex 28.4381 -31.5837 58
    endloop
  endfacet
  facet normal 0 0 1
    outer loop
      vertex 23.2954 10.3718 58
      vertex 24.9428 5.30175 58
      vertex 41.5713 8.83625 58
    endloop
  endfacet
  facet normal 0 0 1
    outer loop
      vertex -7.87993 24.2519 58
      vertex -2.66548 25.3603 58
      vertex 21.25 36.8061 58
    endloop
  endfacet
  facet normal 0 0 1
    outer loop
      vertex 12.75 22.0836 58
      vertex 17.0628 18.9502 58
      vertex 34.3832 24.9809 58
    endloop
  endfacet
  facet normal 0 0 1
    outer loop
      vertex 4.44246 42.2672 58
      vertex -41.5713 8.83625 58
      vertex 13.1332 40.4199 58
    endloop
  endfacet
  facet normal 0 0 1
    outer loop
      vertex -4.44246 42.2672 58
      vertex -41.5713 8.83625 58
      vertex 4.44246 42.2672 58
    endloop
  endfacet
  facet normal 0 0 1
    outer loop
      vertex -13.1332 40.4199 58
      vertex -41.5713 8.83625 58
      vertex -4.44246 42.2672 58
    endloop
  endfacet
  facet normal 0 0 1
    outer loop
      vertex -21.25 36.8061 58
      vertex -41.5713 8.83625 58
      vertex -13.1332 40.4199 58
    endloop
  endfacet
  facet normal 0 0 1
    outer loop
      vertex -28.4381 31.5837 58
      vertex -41.5713 8.83625 58
      vertex -21.25 36.8061 58
    endloop
  endfacet
  facet normal 0 0 1
    outer loop
      vertex -34.3832 24.9809 58
      vertex -41.5713 8.83625 58
      vertex -28.4381 31.5837 58
    endloop
  endfacet
  facet normal 0 0 1
    outer loop
      vertex -38.8257 17.2863 58
      vertex -41.5713 8.83625 58
      vertex -34.3832 24.9809 58
    endloop
  endfacet
  facet normal 0 0 1
    outer loop
      vertex -12.75 -22.0836 58
      vertex -17.0628 -18.9502 58
      vertex 4.44246 -42.2672 58
    endloop
  endfacet
  facet normal 0 0 1
    outer loop
      vertex -25.5 0 58
      vertex -24.9428 5.30175 58
      vertex -41.5713 8.83625 58
    endloop
  endfacet
  facet normal 0 0 1
    outer loop
      vertex 24.9428 5.30175 58
      vertex 25.5 0 58
      vertex 42.5 0 58
    endloop
  endfacet
  facet normal 0 0 1
    outer loop
      vertex -17.0628 18.9502 58
      vertex -12.75 22.0836 58
      vertex -41.5713 8.83625 58
    endloop
  endfacet
  facet normal 0 0 1
    outer loop
      vertex 17.0628 18.9502 58
      vertex 20.6299 14.9885 58
      vertex 38.8257 17.2863 58
    endloop
  endfacet
  facet normal 0 0 1
    outer loop
      vertex 2.66548 25.3603 58
      vertex 7.87993 24.2519 58
      vertex 28.4381 31.5837 58
    endloop
  endfacet
  facet normal 0 0 1
    outer loop
      vertex 13.1332 40.4199 58
      vertex -41.5713 8.83625 58
      vertex -12.75 22.0836 58
    endloop
  endfacet
  facet normal 0 0 1
    outer loop
      vertex 13.1332 40.4199 58
      vertex -7.87993 24.2519 58
      vertex 21.25 36.8061 58
    endloop
  endfacet
  facet normal 0 0 1
    outer loop
      vertex 13.1332 40.4199 58
      vertex -12.75 22.0836 58
      vertex -7.87993 24.2519 58
    endloop
  endfacet
  facet normal 0 0 1
    outer loop
      vertex 21.25 36.8061 58
      vertex -2.66548 25.3603 58
      vertex 28.4381 31.5837 58
    endloop
  endfacet
  facet normal 0 0 1
    outer loop
      vertex -2.66548 25.3603 58
      vertex 2.66548 25.3603 58
      vertex 28.4381 31.5837 58
    endloop
  endfacet
  facet normal 0 0 1
    outer loop
      vertex 28.4381 31.5837 58
      vertex 7.87993 24.2519 58
      vertex 34.3832 24.9809 58
    endloop
  endfacet
  facet normal 0 0 1
    outer loop
      vertex 7.87993 24.2519 58
      vertex 12.75 22.0836 58
      vertex 34.3832 24.9809 58
    endloop
  endfacet
  facet normal 0 0 1
    outer loop
      vertex 34.3832 24.9809 58
      vertex 17.0628 18.9502 58
      vertex 38.8257 17.2863 58
    endloop
  endfacet
  facet normal 0 0 1
    outer loop
      vertex -20.6299 14.9885 58
      vertex -17.0628 18.9502 58
      vertex -41.5713 8.83625 58
    endloop
  endfacet
  facet normal 0 0 1
    outer loop
      vertex 38.8257 17.2863 58
      vertex 20.6299 14.9885 58
      vertex 41.5713 8.83625 58
    endloop
  endfacet
  facet normal 0 0 1
    outer loop
      vertex 20.6299 14.9885 58
      vertex 23.2954 10.3718 58
      vertex 41.5713 8.83625 58
    endloop
  endfacet
  facet normal 0 0 1
    outer loop
      vertex 41.5713 8.83625 58
      vertex 24.9428 5.30175 58
      vertex 42.5 0 58
    endloop
  endfacet
  facet normal 0 0 1
    outer loop
      vertex 20.6299 -14.9885 58
      vertex 17.0628 -18.9502 58
      vertex 34.3832 -24.9809 58
    endloop
  endfacet
  facet normal 0 0 1
    outer loop
      vertex 42.5 0 58
      vertex 25.5 0 58
      vertex 41.5713 -8.83625 58
    endloop
  endfacet
  facet normal 0 0 1
    outer loop
      vertex -23.2954 10.3718 58
      vertex -20.6299 14.9885 58
      vertex -41.5713 8.83625 58
    endloop
  endfacet
  facet normal 0 0 1
    outer loop
      vertex 25.5 0 58
      vertex 24.9428 -5.30175 58
      vertex 41.5713 -8.83625 58
    endloop
  endfacet
  facet normal 0 0 1
    outer loop
      vertex 41.5713 -8.83625 58
      vertex 23.2954 -10.3718 58
      vertex 38.8257 -17.2863 58
    endloop
  endfacet
  facet normal 0 0 1
    outer loop
      vertex 38.8257 -17.2863 58
      vertex 20.6299 -14.9885 58
      vertex 34.3832 -24.9809 58
    endloop
  endfacet
  facet normal 0 0 1
    outer loop
      vertex 24.9428 -5.30175 58
      vertex 23.2954 -10.3718 58
      vertex 41.5713 -8.83625 58
    endloop
  endfacet
  facet normal 0 0 1
    outer loop
      vertex 34.3832 -24.9809 58
      vertex 17.0628 -18.9502 58
      vertex 28.4381 -31.5837 58
    endloop
  endfacet
  facet normal 0 0 1
    outer loop
      vertex 17.0628 -18.9502 58
      vertex 12.75 -22.0836 58
      vertex 28.4381 -31.5837 58
    endloop
  endfacet
  facet normal 0 0 1
    outer loop
      vertex 28.4381 -31.5837 58
      vertex 7.87993 -24.2519 58
      vertex 21.25 -36.8061 58
    endloop
  endfacet
  facet normal 0 0 1
    outer loop
      vertex 7.87993 -24.2519 58
      vertex 2.66548 -25.3603 58
      vertex 21.25 -36.8061 58
    endloop
  endfacet
  facet normal 0 0 1
    outer loop
      vertex 21.25 -36.8061 58
      vertex 2.66548 -25.3603 58
      vertex 13.1332 -40.4199 58
    endloop
  endfacet
  facet normal 0 0 1
    outer loop
      vertex 2.66548 -25.3603 58
      vertex -2.66548 -25.3603 58
      vertex 13.1332 -40.4199 58
    endloop
  endfacet
  facet normal 0 0 1
    outer loop
      vertex 13.1332 -40.4199 58
      vertex -7.87993 -24.2519 58
      vertex 4.44246 -42.2672 58
    endloop
  endfacet
  facet normal 0 0 1
    outer loop
      vertex -20.6299 -14.9885 58
      vertex -23.2954 -10.3718 58
      vertex -41.5713 8.83625 58
    endloop
  endfacet
  facet normal 0 0 1
    outer loop
      vertex -7.87993 -24.2519 58
      vertex -12.75 -22.0836 58
      vertex 4.44246 -42.2672 58
    endloop
  endfacet
  facet normal 0 0 1
    outer loop
      vertex 4.44246 -42.2672 58
      vertex -17.0628 -18.9502 58
      vertex -4.44246 -42.2672 58
    endloop
  endfacet
  facet normal 0 0 1
    outer loop
      vertex -17.0628 -18.9502 58
      vertex -20.6299 -14.9885 58
      vertex -4.44246 -42.2672 58
    endloop
  endfacet
  facet normal 0 0 1
    outer loop
      vertex -2.66548 -25.3603 58
      vertex -7.87993 -24.2519 58
      vertex 13.1332 -40.4199 58
    endloop
  endfacet
  facet normal 0 0 1
    outer loop
      vertex -23.2954 -10.3718 58
      vertex -24.9428 -5.30175 58
      vertex -41.5713 8.83625 58
    endloop
  endfacet
  facet normal 0 0 1
    outer loop
      vertex -24.9428 -5.30175 58
      vertex -25.5 0 58
      vertex -41.5713 8.83625 58
    endloop
  endfacet
  facet normal 0 0 1
    outer loop
      vertex 23.2954 -10.3718 58
      vertex 20.6299 -14.9885 58
      vertex 38.8257 -17.2863 58
    endloop
  endfacet
  facet normal 0 0 1
    outer loop
      vertex -24.9428 5.30175 58
      vertex -23.2954 10.3718 58
      vertex -41.5713 8.83625 58
    endloop
  endfacet
  facet normal 0 0 -1
    outer loop
      vertex -27.5 0 0
      vertex -26.8991 5.71757 0
      vertex -26.8991 -5.71757 0
    endloop
  endfacet
  facet normal 0 0 -1
    outer loop
      vertex -26.8991 -5.71757 0
      vertex -26.8991 5.71757 0
      vertex -25.1225 11.1853 0
    endloop
  endfacet
  facet normal 0 0 -1
    outer loop
      vertex -26.8991 -5.71757 0
      vertex -25.1225 11.1853 0
      vertex -22.248 16.1641 0
    endloop
  endfacet
  facet normal 0 0 -1
    outer loop
      vertex -26.8991 -5.71757 0
      vertex -22.248 16.1641 0
      vertex -18.4011 20.4365 0
    endloop
  endfacet
  facet normal 0 0 -1
    outer loop
      vertex -26.8991 -5.71757 0
      vertex -18.4011 20.4365 0
      vertex -13.75 23.8157 0
    endloop
  endfacet
  facet normal 0 0 -1
    outer loop
      vertex -26.8991 -5.71757 0
      vertex -13.75 23.8157 0
      vertex -8.49797 26.1541 0
    endloop
  endfacet
  facet normal 0 0 -1
    outer loop
      vertex -26.8991 -5.71757 0
      vertex -8.49797 26.1541 0
      vertex -2.87453 27.3494 0
    endloop
  endfacet
  facet normal 0 0 -1
    outer loop
      vertex -26.8991 -5.71757 0
      vertex -2.87453 27.3494 0
      vertex 2.87453 27.3494 0
    endloop
  endfacet
  facet normal 0 0 -1
    outer loop
      vertex -26.8991 -5.71757 0
      vertex 2.87453 27.3494 0
      vertex 8.49797 26.1541 0
    endloop
  endfacet
  facet normal 0 0 -1
    outer loop
      vertex -26.8991 -5.71757 0
      vertex 8.49797 26.1541 0
      vertex 13.75 23.8157 0
    endloop
  endfacet
  facet normal 0 0 -1
    outer loop
      vertex -26.8991 -5.71757 0
      vertex 13.75 23.8157 0
      vertex 18.4011 20.4365 0
    endloop
  endfacet
  facet normal 0 0 -1
    outer loop
      vertex -26.8991 -5.71757 0
      vertex 18.4011 20.4365 0
      vertex 22.248 16.1641 0
    endloop
  endfacet
  facet normal 0 0 -1
    outer loop
      vertex -0.927051 2.85317 0
      vertex 22.248 16.1641 0
      vertex 25.1225 11.1853 0
    endloop
  endfacet
  facet normal 0 0 -1
    outer loop
      vertex 2.42705 1.76336 0
      vertex 25.1225 11.1853 0
      vertex 26.8991 5.71757 0
    endloop
  endfacet
  facet normal 0 0 -1
    outer loop
      vertex 0.927051 -2.85317 0
      vertex 27.5 0 0
      vertex 26.8991 -5.71757 0
    endloop
  endfacet
  facet normal 0 0 -1
    outer loop
      vertex -26.8991 -5.71757 0
      vertex 26.8991 -5.71757 0
      vertex 25.1225 -11.1853 0
    endloop
  endfacet
  facet normal 0 0 -1
    outer loop
      vertex -26.8991 -5.71757 0
      vertex 25.1225 -11.1853 0
      vertex 22.248 -16.1641 0
    endloop
  endfacet
  facet normal 0 0 -1
    outer loop
      vertex -26.8991 -5.71757 0
      vertex 22.248 -16.1641 0
      vertex 18.4011 -20.4365 0
    endloop
  endfacet
  facet normal 0 0 -1
    outer loop
      vertex -26.8991 -5.71757 0
      vertex 18.4011 -20.4365 0
      vertex 13.75 -23.8157 0
    endloop
  endfacet
  facet normal 0 0 -1
    outer loop
      vertex -26.8991 -5.71757 0
      vertex 13.75 -23.8157 0
      vertex 8.49797 -26.1541 0
    endloop
  endfacet
  facet normal 0 0 -1
    outer loop
      vertex -26.8991 -5.71757 0
      vertex 8.49797 -26.1541 0
      vertex 2.87453 -27.3494 0
    endloop
  endfacet
  facet normal 0 0 -1
    outer loop
      vertex -26.8991 -5.71757 0
      vertex 2.87453 -27.3494 0
      vertex -2.87453 -27.3494 0
    endloop
  endfacet
  facet normal 0 0 -1
    outer loop
      vertex -26.8991 -5.71757 0
      vertex -2.87453 -27.3494 0
      vertex -8.49797 -26.1541 0
    endloop
  endfacet
  facet normal 0 0 -1
    outer loop
      vertex -26.8991 -5.71757 0
      vertex -8.49797 -26.1541 0
      vertex -13.75 -23.8157 0
    endloop
  endfacet
  facet normal 0 0 -1
    outer loop
      vertex -26.8991 -5.71757 0
      vertex -13.75 -23.8157 0
      vertex -18.4011 -20.4365 0
    endloop
  endfacet
  facet normal 0 0 -1
    outer loop
      vertex -26.8991 -5.71757 0
      vertex -18.4011 -20.4365 0
      vertex -22.248 -16.1641 0
    endloop
  endfacet
  facet normal 0 0 -1
    outer loop
      vertex -26.8991 -5.71757 0
      vertex -22.248 -16.1641 0
      vertex -25.1225 -11.1853 0
    endloop
  endfacet
  facet normal 0 0 -1
    outer loop
      vertex -0.927051 2.85317 0
      vertex 25.1225 11.1853 0
      vertex 0.927051 2.85317 0
    endloop
  endfacet
  facet normal 0 0 -1
    outer loop
      vertex 2.42705 1.76336 0
      vertex 26.8991 5.71757 0
      vertex 3 0 0
    endloop
  endfacet
  facet normal 0 0 -1
    outer loop
      vertex -26.8991 -5.71757 0
      vertex -2.42705 -1.76336 0
      vertex -0.927051 -2.85317 0
    endloop
  endfacet
  facet normal 0 0 -1
    outer loop
      vertex 2.42705 -1.76336 0
      vertex 27.5 0 0
      vertex 0.927051 -2.85317 0
    endloop
  endfacet
  facet normal 0 0 -1
    outer loop
      vertex -26.8991 -5.71757 0
      vertex 0.927051 -2.85317 0
      vertex 26.8991 -5.71757 0
    endloop
  endfacet
  facet normal 0 0 -1
    outer loop
      vertex 3 0 0
      vertex 26.8991 5.71757 0
      vertex 27.5 0 0
    endloop
  endfacet
  facet normal 0 0 -1
    outer loop
      vertex 3 0 0
      vertex 27.5 0 0
      vertex 2.42705 -1.76336 0
    endloop
  endfacet
  facet normal 0 0 -1
    outer loop
      vertex 0.927051 -2.85317 0
      vertex -26.8991 -5.71757 0
      vertex -0.927051 -2.85317 0
    endloop
  endfacet
  facet normal 0 0 -1
    outer loop
      vertex 0.927051 2.85317 0
      vertex 25.1225 11.1853 0
      vertex 2.42705 1.76336 0
    endloop
  endfacet
  facet normal 0 0 -1
    outer loop
      vertex -26.8991 -5.71757 0
      vertex 22.248 16.1641 0
      vertex -0.927051 2.85317 0
    endloop
  endfacet
  facet normal 0 0 -1
    outer loop
      vertex -2.42705 1.76336 0
      vertex -26.8991 -5.71757 0
      vertex -0.927051 2.85317 0
    endloop
  endfacet
  facet normal 0 0 -1
    outer loop
      vertex -26.8991 -5.71757 0
      vertex -2.42705 1.76336 0
      vertex -3 0 0
    endloop
  endfacet
  facet normal 0 0 -1
    outer loop
      vertex -2.42705 -1.76336 0
      vertex -26.8991 -5.71757 0
      vertex -3 0 0
    endloop
  endfacet
  facet normal 0.951056 0.309017 0
    outer loop
      vertex -24.9428 -5.30175 58
      vertex -23.2954 -10.3718 58
      vertex -23.2954 -10.3718 3
    endloop
  endfacet
  facet normal 0.951056 0.309017 0
    outer loop
      vertex -24.9428 -5.30175 3
      vertex -24.9428 -5.30175 58
      vertex -23.2954 -10.3718 3
    endloop
  endfacet
  facet normal 0.994522 0.104528 0
    outer loop
      vertex -25.5 0 58
      vertex -24.9428 -5.30175 58
      vertex -24.9428 -5.30175 3
    endloop
  endfacet
  facet normal 0.994522 0.104528 0
    outer loop
      vertex -25.5 0 3
      vertex -25.5 0 58
      vertex -24.9428 -5.30175 3
    endloop
  endfacet
  facet normal 0.866025 0.5 0
    outer loop
      vertex -23.2954 -10.3718 58
      vertex -20.6299 -14.9885 58
      vertex -20.6299 -14.9885 3
    endloop
  endfacet
  facet normal 0.866025 0.5 0
    outer loop
      vertex -23.2954 -10.3718 3
      vertex -23.2954 -10.3718 58
      vertex -20.6299 -14.9885 3
    endloop
  endfacet
  facet normal 0.743145 0.669131 0
    outer loop
      vertex -20.6299 -14.9885 58
      vertex -17.0628 -18.9502 58
      vertex -17.0628 -18.9502 3
    endloop
  endfacet
  facet normal 0.743145 0.669131 0
    outer loop
      vertex -20.6299 -14.9885 3
      vertex -20.6299 -14.9885 58
      vertex -17.0628 -18.9502 3
    endloop
  endfacet
  facet normal 0.587785 0.809017 0
    outer loop
      vertex -12.75 -22.0836 58
      vertex -12.75 -22.0836 3
      vertex -17.0628 -18.9502 58
    endloop
  endfacet
  facet normal 0.587785 0.809017 0
    outer loop
      vertex -17.0628 -18.9502 58
      vertex -12.75 -22.0836 3
      vertex -17.0628 -18.9502 3
    endloop
  endfacet
  facet normal 0.406737 0.913545 0
    outer loop
      vertex -7.87993 -24.2519 58
      vertex -7.87993 -24.2519 3
      vertex -12.75 -22.0836 58
    endloop
  endfacet
  facet normal 0.406737 0.913545 0
    outer loop
      vertex -12.75 -22.0836 58
      vertex -7.87993 -24.2519 3
      vertex -12.75 -22.0836 3
    endloop
  endfacet
  facet normal 0.207912 0.978148 0
    outer loop
      vertex -2.66548 -25.3603 58
      vertex -2.66548 -25.3603 3
      vertex -7.87993 -24.2519 58
    endloop
  endfacet
  facet normal 0.207912 0.978148 0
    outer loop
      vertex -7.87993 -24.2519 58
      vertex -2.66548 -25.3603 3
      vertex -7.87993 -24.2519 3
    endloop
  endfacet
  facet normal 0 1 0
    outer loop
      vertex 2.66548 -25.3603 58
      vertex 2.66548 -25.3603 3
      vertex -2.66548 -25.3603 58
    endloop
  endfacet
  facet normal 0 1 0
    outer loop
      vertex -2.66548 -25.3603 58
      vertex 2.66548 -25.3603 3
      vertex -2.66548 -25.3603 3
    endloop
  endfacet
  facet normal -0.207912 0.978148 0
    outer loop
      vertex 7.87993 -24.2519 58
      vertex 7.87993 -24.2519 3
      vertex 2.66548 -25.3603 58
    endloop
  endfacet
  facet normal -0.207912 0.978148 0
    outer loop
      vertex 2.66548 -25.3603 58
      vertex 7.87993 -24.2519 3
      vertex 2.66548 -25.3603 3
    endloop
  endfacet
  facet normal -0.406737 0.913545 0
    outer loop
      vertex 12.75 -22.0836 58
      vertex 12.75 -22.0836 3
      vertex 7.87993 -24.2519 58
    endloop
  endfacet
  facet normal -0.406737 0.913545 0
    outer loop
      vertex 7.87993 -24.2519 58
      vertex 12.75 -22.0836 3
      vertex 7.87993 -24.2519 3
    endloop
  endfacet
  facet normal -0.587785 0.809017 0
    outer loop
      vertex 17.0628 -18.9502 58
      vertex 17.0628 -18.9502 3
      vertex 12.75 -22.0836 58
    endloop
  endfacet
  facet normal -0.587785 0.809017 0
    outer loop
      vertex 12.75 -22.0836 58
      vertex 17.0628 -18.9502 3
      vertex 12.75 -22.0836 3
    endloop
  endfacet
  facet normal -0.743145 0.669131 0
    outer loop
      vertex 20.6299 -14.9885 58
      vertex 20.6299 -14.9885 3
      vertex 17.0628 -18.9502 58
    endloop
  endfacet
  facet normal -0.743145 0.669131 0
    outer loop
      vertex 17.0628 -18.9502 58
      vertex 20.6299 -14.9885 3
      vertex 17.0628 -18.9502 3
    endloop
  endfacet
  facet normal -0.866025 0.5 0
    outer loop
      vertex 23.2954 -10.3718 58
      vertex 23.2954 -10.3718 3
      vertex 20.6299 -14.9885 58
    endloop
  endfacet
  facet normal -0.866025 0.5 0
    outer loop
      vertex 20.6299 -14.9885 58
      vertex 23.2954 -10.3718 3
      vertex 20.6299 -14.9885 3
    endloop
  endfacet
  facet normal -0.951056 0.309017 0
    outer loop
      vertex 24.9428 -5.30175 58
      vertex 24.9428 -5.30175 3
      vertex 23.2954 -10.3718 58
    endloop
  endfacet
  facet normal -0.951056 0.309017 0
    outer loop
      vertex 23.2954 -10.3718 58
      vertex 24.9428 -5.30175 3
      vertex 23.2954 -10.3718 3
    endloop
  endfacet
  facet normal -0.994522 0.104528 0
    outer loop
      vertex 25.5 0 58
      vertex 25.5 0 3
      vertex 24.9428 -5.30175 58
    endloop
  endfacet
  facet normal -0.994522 0.104528 0
    outer loop
      vertex 24.9428 -5.30175 58
      vertex 25.5 0 3
      vertex 24.9428 -5.30175 3
    endloop
  endfacet
  facet normal -0.994522 -0.104528 0
    outer loop
      vertex 25.5 0 58
      vertex 24.9428 5.30175 58
      vertex 25.5 0 3
    endloop
  endfacet
  facet normal -0.994522 -0.104528 0
    outer loop
      vertex 25.5 0 3
      vertex 24.9428 5.30175 58
      vertex 24.9428 5.30175 3
    endloop
  endfacet
  facet normal -0.951056 -0.309017 0
    outer loop
      vertex 24.9428 5.30175 58
      vertex 23.2954 10.3718 58
      vertex 24.9428 5.30175 3
    endloop
  endfacet
  facet normal -0.951056 -0.309017 0
    outer loop
      vertex 24.9428 5.30175 3
      vertex 23.2954 10.3718 58
      vertex 23.2954 10.3718 3
    endloop
  endfacet
  facet normal -0.866025 -0.5 0
    outer loop
      vertex 23.2954 10.3718 58
      vertex 20.6299 14.9885 58
      vertex 23.2954 10.3718 3
    endloop
  endfacet
  facet normal -0.866025 -0.5 0
    outer loop
      vertex 23.2954 10.3718 3
      vertex 20.6299 14.9885 58
      vertex 20.6299 14.9885 3
    endloop
  endfacet
  facet normal -0.743145 -0.669131 0
    outer loop
      vertex 20.6299 14.9885 58
      vertex 17.0628 18.9502 58
      vertex 20.6299 14.9885 3
    endloop
  endfacet
  facet normal -0.743145 -0.669131 0
    outer loop
      vertex 20.6299 14.9885 3
      vertex 17.0628 18.9502 58
      vertex 17.0628 18.9502 3
    endloop
  endfacet
  facet normal -0.587785 -0.809017 0
    outer loop
      vertex 17.0628 18.9502 3
      vertex 17.0628 18.9502 58
      vertex 12.75 22.0836 58
    endloop
  endfacet
  facet normal -0.587785 -0.809017 0
    outer loop
      vertex 12.75 22.0836 3
      vertex 17.0628 18.9502 3
      vertex 12.75 22.0836 58
    endloop
  endfacet
  facet normal -0.406737 -0.913545 0
    outer loop
      vertex 12.75 22.0836 3
      vertex 12.75 22.0836 58
      vertex 7.87993 24.2519 58
    endloop
  endfacet
  facet normal -0.406737 -0.913545 0
    outer loop
      vertex 7.87993 24.2519 3
      vertex 12.75 22.0836 3
      vertex 7.87993 24.2519 58
    endloop
  endfacet
  facet normal -0.207912 -0.978148 0
    outer loop
      vertex 7.87993 24.2519 3
      vertex 7.87993 24.2519 58
      vertex 2.66548 25.3603 58
    endloop
  endfacet
  facet normal -0.207912 -0.978148 0
    outer loop
      vertex 2.66548 25.3603 3
      vertex 7.87993 24.2519 3
      vertex 2.66548 25.3603 58
    endloop
  endfacet
  facet normal 0 -1 0
    outer loop
      vertex 2.66548 25.3603 3
      vertex 2.66548 25.3603 58
      vertex -2.66548 25.3603 58
    endloop
  endfacet
  facet normal 0 -1 0
    outer loop
      vertex -2.66548 25.3603 3
      vertex 2.66548 25.3603 3
      vertex -2.66548 25.3603 58
    endloop
  endfacet
  facet normal 0.207912 -0.978148 0
    outer loop
      vertex -2.66548 25.3603 3
      vertex -2.66548 25.3603 58
      vertex -7.87993 24.2519 58
    endloop
  endfacet
  facet normal 0.207912 -0.978148 0
    outer loop
      vertex -7.87993 24.2519 3
      vertex -2.66548 25.3603 3
      vertex -7.87993 24.2519 58
    endloop
  endfacet
  facet normal 0.406737 -0.913545 0
    outer loop
      vertex -7.87993 24.2519 3
      vertex -7.87993 24.2519 58
      vertex -12.75 22.0836 58
    endloop
  endfacet
  facet normal 0.406737 -0.913545 0
    outer loop
      vertex -12.75 22.0836 3
      vertex -7.87993 24.2519 3
      vertex -12.75 22.0836 58
    endloop
  endfacet
  facet normal 0.587785 -0.809017 0
    outer loop
      vertex -12.75 22.0836 3
      vertex -12.75 22.0836 58
      vertex -17.0628 18.9502 58
    endloop
  endfacet
  facet normal 0.587785 -0.809017 0
    outer loop
      vertex -17.0628 18.9502 3
      vertex -12.75 22.0836 3
      vertex -17.0628 18.9502 58
    endloop
  endfacet
  facet normal 0.743145 -0.669131 0
    outer loop
      vertex -17.0628 18.9502 3
      vertex -17.0628 18.9502 58
      vertex -20.6299 14.9885 58
    endloop
  endfacet
  facet normal 0.743145 -0.669131 0
    outer loop
      vertex -20.6299 14.9885 3
      vertex -17.0628 18.9502 3
      vertex -20.6299 14.9885 58
    endloop
  endfacet
  facet normal 0.866025 -0.5 0
    outer loop
      vertex -20.6299 14.9885 3
      vertex -20.6299 14.9885 58
      vertex -23.2954 10.3718 58
    endloop
  endfacet
  facet normal 0.866025 -0.5 0
    outer loop
      vertex -23.2954 10.3718 3
      vertex -20.6299 14.9885 3
      vertex -23.2954 10.3718 58
    endloop
  endfacet
  facet normal 0.951056 -0.309017 0
    outer loop
      vertex -23.2954 10.3718 3
      vertex -23.2954 10.3718 58
      vertex -24.9428 5.30175 58
    endloop
  endfacet
  facet normal 0.951056 -0.309017 0
    outer loop
      vertex -24.9428 5.30175 3
      vertex -23.2954 10.3718 3
      vertex -24.9428 5.30175 58
    endloop
  endfacet
  facet normal 0.994522 -0.104528 0
    outer loop
      vertex -24.9428 5.30175 3
      vertex -24.9428 5.30175 58
      vertex -25.5 0 58
    endloop
  endfacet
  facet normal 0.994522 -0.104528 0
    outer loop
      vertex -25.5 0 3
      vertex -24.9428 5.30175 3
      vertex -25.5 0 58
    endloop
  endfacet
  facet normal 0.951057 -0.309017 0
    outer loop
      vertex -2.42705 1.76336 0
      vertex -2.42705 1.76336 3
      vertex -3 0 3
    endloop
  endfacet
  facet normal 0.951057 -0.309017 0
    outer loop
      vertex -3 0 0
      vertex -2.42705 1.76336 0
      vertex -3 0 3
    endloop
  endfacet
  facet normal 0.951057 0.309017 0
    outer loop
      vertex -3 0 3
      vertex -2.42705 -1.76336 3
      vertex -2.42705 -1.76336 0
    endloop
  endfacet
  facet normal 0.951057 0.309017 0
    outer loop
      vertex -3 0 0
      vertex -3 0 3
      vertex -2.42705 -1.76336 0
    endloop
  endfacet
  facet normal 0.587785 -0.809017 0
    outer loop
      vertex -0.927051 2.85317 0
      vertex -0.927051 2.85317 3
      vertex -2.42705 1.76336 3
    endloop
  endfacet
  facet normal 0.587785 -0.809017 0
    outer loop
      vertex -2.42705 1.76336 0
      vertex -0.927051 2.85317 0
      vertex -2.42705 1.76336 3
    endloop
  endfacet
  facet normal 0 -1 0
    outer loop
      vertex 0.927051 2.85317 0
      vertex 0.927051 2.85317 3
      vertex -0.927051 2.85317 3
    endloop
  endfacet
  facet normal 0 -1 0
    outer loop
      vertex -0.927051 2.85317 0
      vertex 0.927051 2.85317 0
      vertex -0.927051 2.85317 3
    endloop
  endfacet
  facet normal -0.587785 -0.809017 0
    outer loop
      vertex 2.42705 1.76336 0
      vertex 2.42705 1.76336 3
      vertex 0.927051 2.85317 3
    endloop
  endfacet
  facet normal -0.587785 -0.809017 0
    outer loop
      vertex 0.927051 2.85317 0
      vertex 2.42705 1.76336 0
      vertex 0.927051 2.85317 3
    endloop
  endfacet
  facet normal -0.951057 -0.309017 0
    outer loop
      vertex 3 0 3
      vertex 2.42705 1.76336 3
      vertex 3 0 0
    endloop
  endfacet
  facet normal -0.951057 -0.309017 0
    outer loop
      vertex 3 0 0
      vertex 2.42705 1.76336 3
      vertex 2.42705 1.76336 0
    endloop
  endfacet
  facet normal -0.951057 0.309017 0
    outer loop
      vertex 3 0 3
      vertex 3 0 0
      vertex 2.42705 -1.76336 3
    endloop
  endfacet
  facet normal -0.951057 0.309017 0
    outer loop
      vertex 2.42705 -1.76336 3
      vertex 3 0 0
      vertex 2.42705 -1.76336 0
    endloop
  endfacet
  facet normal -0.587785 0.809017 0
    outer loop
      vertex 2.42705 -1.76336 3
      vertex 2.42705 -1.76336 0
      vertex 0.927051 -2.85317 3
    endloop
  endfacet
  facet normal -0.587785 0.809017 0
    outer loop
      vertex 0.927051 -2.85317 3
      vertex 2.42705 -1.76336 0
      vertex 0.927051 -2.85317 0
    endloop
  endfacet
  facet normal 0 1 0
    outer loop
      vertex 0.927051 -2.85317 3
      vertex 0.927051 -2.85317 0
      vertex -0.927051 -2.85317 3
    endloop
  endfacet
  facet normal 0 1 0
    outer loop
      vertex -0.927051 -2.85317 3
      vertex 0.927051 -2.85317 0
      vertex -0.927051 -2.85317 0
    endloop
  endfacet
  facet normal 0.587785 0.809017 0
    outer loop
      vertex -0.927051 -2.85317 3
      vertex -0.927051 -2.85317 0
      vertex -2.42705 -1.76336 3
    endloop
  endfacet
  facet normal 0.587785 0.809017 0
    outer loop
      vertex -2.42705 -1.76336 3
      vertex -0.927051 -2.85317 0
      vertex -2.42705 -1.76336 0
    endloop
  endfacet
  facet normal 0 0 1
    outer loop
      vertex -24.9428 -5.30175 3
      vertex -23.2954 -10.3718 3
      vertex -20.6299 -14.9885 3
    endloop
  endfacet
  facet normal 0 0 1
    outer loop
      vertex -12.75 -22.0836 3
      vertex -24.9428 -5.30175 3
      vertex -17.0628 -18.9502 3
    endloop
  endfacet
  facet normal 0 0 1
    outer loop
      vertex -17.0628 -18.9502 3
      vertex -24.9428 -5.30175 3
      vertex -20.6299 -14.9885 3
    endloop
  endfacet
  facet normal 0 0 1
    outer loop
      vertex -7.87993 -24.2519 3
      vertex -24.9428 -5.30175 3
      vertex -12.75 -22.0836 3
    endloop
  endfacet
  facet normal 0 0 1
    outer loop
      vertex -2.66548 -25.3603 3
      vertex -24.9428 -5.30175 3
      vertex -7.87993 -24.2519 3
    endloop
  endfacet
  facet normal 0 0 1
    outer loop
      vertex 2.66548 -25.3603 3
      vertex -24.9428 -5.30175 3
      vertex -2.66548 -25.3603 3
    endloop
  endfacet
  facet normal 0 0 1
    outer loop
      vertex 7.87993 -24.2519 3
      vertex -24.9428 -5.30175 3
      vertex 2.66548 -25.3603 3
    endloop
  endfacet
  facet normal 0 0 1
    outer loop
      vertex 12.75 -22.0836 3
      vertex -24.9428 -5.30175 3
      vertex 7.87993 -24.2519 3
    endloop
  endfacet
  facet normal 0 0 1
    outer loop
      vertex 17.0628 -18.9502 3
      vertex -24.9428 -5.30175 3
      vertex 12.75 -22.0836 3
    endloop
  endfacet
  facet normal 0 0 1
    outer loop
      vertex 20.6299 -14.9885 3
      vertex -24.9428 -5.30175 3
      vertex 17.0628 -18.9502 3
    endloop
  endfacet
  facet normal 0 0 1
    outer loop
      vertex 23.2954 -10.3718 3
      vertex -24.9428 -5.30175 3
      vertex 20.6299 -14.9885 3
    endloop
  endfacet
  facet normal 0 0 1
    outer loop
      vertex 24.9428 -5.30175 3
      vertex -24.9428 -5.30175 3
      vertex 23.2954 -10.3718 3
    endloop
  endfacet
  facet normal 0 0 1
    outer loop
      vertex 0.927051 -2.85317 3
      vertex -24.9428 -5.30175 3
      vertex 24.9428 -5.30175 3
    endloop
  endfacet
  facet normal 0 0 1
    outer loop
      vertex 0.927051 2.85317 3
      vertex 2.42705 1.76336 3
      vertex 23.2954 10.3718 3
    endloop
  endfacet
  facet normal 0 0 1
    outer loop
      vertex 17.0628 18.9502 3
      vertex -24.9428 -5.30175 3
      vertex 20.6299 14.9885 3
    endloop
  endfacet
  facet normal 0 0 1
    outer loop
      vertex 12.75 22.0836 3
      vertex -24.9428 -5.30175 3
      vertex 17.0628 18.9502 3
    endloop
  endfacet
  facet normal 0 0 1
    outer loop
      vertex 7.87993 24.2519 3
      vertex -24.9428 -5.30175 3
      vertex 12.75 22.0836 3
    endloop
  endfacet
  facet normal 0 0 1
    outer loop
      vertex 2.66548 25.3603 3
      vertex -24.9428 -5.30175 3
      vertex 7.87993 24.2519 3
    endloop
  endfacet
  facet normal 0 0 1
    outer loop
      vertex -2.66548 25.3603 3
      vertex -24.9428 -5.30175 3
      vertex 2.66548 25.3603 3
    endloop
  endfacet
  facet normal 0 0 1
    outer loop
      vertex -7.87993 24.2519 3
      vertex -24.9428 -5.30175 3
      vertex -2.66548 25.3603 3
    endloop
  endfacet
  facet normal 0 0 1
    outer loop
      vertex -12.75 22.0836 3
      vertex -24.9428 -5.30175 3
      vertex -7.87993 24.2519 3
    endloop
  endfacet
  facet normal 0 0 1
    outer loop
      vertex -17.0628 18.9502 3
      vertex -24.9428 -5.30175 3
      vertex -12.75 22.0836 3
    endloop
  endfacet
  facet normal 0 0 1
    outer loop
      vertex -20.6299 14.9885 3
      vertex -24.9428 -5.30175 3
      vertex -17.0628 18.9502 3
    endloop
  endfacet
  facet normal 0 0 1
    outer loop
      vertex -23.2954 10.3718 3
      vertex -24.9428 -5.30175 3
      vertex -20.6299 14.9885 3
    endloop
  endfacet
  facet normal 0 0 1
    outer loop
      vertex -24.9428 5.30175 3
      vertex -24.9428 -5.30175 3
      vertex -23.2954 10.3718 3
    endloop
  endfacet
  facet normal 0 0 1
    outer loop
      vertex -25.5 0 3
      vertex -24.9428 -5.30175 3
      vertex -24.9428 5.30175 3
    endloop
  endfacet
  facet normal 0 0 1
    outer loop
      vertex -2.42705 1.76336 3
      vertex -24.9428 -5.30175 3
      vertex -3 0 3
    endloop
  endfacet
  facet normal 0 0 1
    outer loop
      vertex -0.927051 2.85317 3
      vertex 0.927051 2.85317 3
      vertex 23.2954 10.3718 3
    endloop
  endfacet
  facet normal 0 0 1
    outer loop
      vertex 20.6299 14.9885 3
      vertex -0.927051 2.85317 3
      vertex 23.2954 10.3718 3
    endloop
  endfacet
  facet normal 0 0 1
    outer loop
      vertex 20.6299 14.9885 3
      vertex -24.9428 -5.30175 3
      vertex -0.927051 2.85317 3
    endloop
  endfacet
  facet normal 0 0 1
    outer loop
      vertex 2.42705 1.76336 3
      vertex 3 0 3
      vertex 24.9428 5.30175 3
    endloop
  endfacet
  facet normal 0 0 1
    outer loop
      vertex 23.2954 10.3718 3
      vertex 2.42705 1.76336 3
      vertex 24.9428 5.30175 3
    endloop
  endfacet
  facet normal 0 0 1
    outer loop
      vertex 24.9428 5.30175 3
      vertex 3 0 3
      vertex 25.5 0 3
    endloop
  endfacet
  facet normal 0 0 1
    outer loop
      vertex -2.42705 1.76336 3
      vertex -0.927051 2.85317 3
      vertex -24.9428 -5.30175 3
    endloop
  endfacet
  facet normal 0 0 1
    outer loop
      vertex 3 0 3
      vertex 2.42705 -1.76336 3
      vertex 25.5 0 3
    endloop
  endfacet
  facet normal 0 0 1
    outer loop
      vertex 25.5 0 3
      vertex 0.927051 -2.85317 3
      vertex 24.9428 -5.30175 3
    endloop
  endfacet
  facet normal 0 0 1
    outer loop
      vertex -0.927051 -2.85317 3
      vertex -24.9428 -5.30175 3
      vertex 0.927051 -2.85317 3
    endloop
  endfacet
  facet normal 0 0 1
    outer loop
      vertex -0.927051 -2.85317 3
      vertex -2.42705 -1.76336 3
      vertex -24.9428 -5.30175 3
    endloop
  endfacet
  facet normal 0 0 1
    outer loop
      vertex 2.42705 -1.76336 3
      vertex 0.927051 -2.85317 3
      vertex 25.5 0 3
    endloop
  endfacet
  facet normal 0 0 1
    outer loop
      vertex -2.42705 -1.76336 3
      vertex -3 0 3
      vertex -24.9428 -5.30175 3
    endloop
  endfacet
endsolid OpenSCAD_Model
