solid csg.js
facet normal 0 -1 0
outer loop
vertex 10.523794390039976 0 -25.406687144060378
vertex 19.44543648263005 0 -19.445436482630054
vertex 25.406687144060378 0 -10.523794390039965
endloop
endfacet
facet normal 0 -1 0
outer loop
vertex 10.523794390039976 0 -25.406687144060378
vertex 25.406687144060378 0 -10.523794390039965
vertex 26.903262897861023 0 -2.9999999999999996
endloop
endfacet
facet normal 0 -1 0
outer loop
vertex 10.523794390039976 0 -25.406687144060378
vertex 26.903262897861023 0 -2.9999999999999996
vertex -26.903262897861026 0 -2.9999999999999996
endloop
endfacet
facet normal 0 -1 0
outer loop
vertex 10.523794390039976 0 -25.406687144060378
vertex -26.903262897861026 0 -2.9999999999999996
vertex -25.40668714406039 0 -10.523794390039965
endloop
endfacet
facet normal 0 -1 0
outer loop
vertex 10.523794390039976 0 -25.406687144060378
vertex -25.40668714406039 0 -10.523794390039965
vertex -19.44543648263006 0 -19.445436482630054
endloop
endfacet
facet normal 0 -1 0
outer loop
vertex 10.523794390039976 0 -25.406687144060378
vertex -19.44543648263006 0 -19.445436482630054
vertex -10.523794390039985 0 -25.406687144060378
endloop
endfacet
facet normal 0 -1 0
outer loop
vertex 10.523794390039976 0 -25.406687144060378
vertex -10.523794390039985 0 -25.406687144060378
vertex -5.051501209517306e-15 0 -27.5
endloop
endfacet
facet normal 0 -1 0
outer loop
vertex 1.3322676295501878e-15 0 -2.9999999999999996
vertex -1.148050297095276 0 -2.7716385975338578
vertex -26.948686805043703 0 -2.7716385975338578
endloop
endfacet
facet normal 0 -1 0
outer loop
vertex 1.3322676295501878e-15 0 -2.9999999999999996
vertex -26.948686805043703 0 -2.7716385975338578
vertex -26.903262897861026 0 -2.9999999999999996
endloop
endfacet
facet normal 0 -1 0
outer loop
vertex 26.903262897861023 0 -2.9999999999999996
vertex 26.948686805043703 0 -2.7716385975338578
vertex 1.1480502970952797 0 -2.7716385975338578
endloop
endfacet
facet normal 0 -1 0
outer loop
vertex 26.903262897861023 0 -2.9999999999999996
vertex 1.1480502970952797 0 -2.7716385975338578
vertex 1.3322676295501878e-15 0 -2.9999999999999996
endloop
endfacet
facet normal 0 -1 0
outer loop
vertex -1.148050297095276 0 -2.7716385975338578
vertex -2.1213203435596437 0 -2.1213203435596437
vertex -27.078043148491922 0 -2.1213203435596437
endloop
endfacet
facet normal 0 -1 0
outer loop
vertex -1.148050297095276 0 -2.7716385975338578
vertex -27.078043148491922 0 -2.1213203435596437
vertex -26.948686805043703 0 -2.7716385975338578
endloop
endfacet
facet normal 0 -1 0
outer loop
vertex 26.948686805043703 0 -2.7716385975338578
vertex 27.078043148491922 0 -2.1213203435596437
vertex 2.1213203435596393 0 -2.1213203435596437
endloop
endfacet
facet normal 0 -1 0
outer loop
vertex 26.948686805043703 0 -2.7716385975338578
vertex 2.1213203435596393 0 -2.1213203435596437
vertex 1.1480502970952797 0 -2.7716385975338578
endloop
endfacet
facet normal 0 -1 0
outer loop
vertex -2.1213203435596437 0 -2.1213203435596437
vertex -2.7716385975338635 0 -1.148050297095267
vertex -27.27163859753386 0 -1.148050297095267
endloop
endfacet
facet normal 0 -1 0
outer loop
vertex -2.1213203435596437 0 -2.1213203435596437
vertex -27.27163859753386 0 -1.148050297095267
vertex -27.078043148491922 0 -2.1213203435596437
endloop
endfacet
facet normal 0 -1 0
outer loop
vertex 27.078043148491922 0 -2.1213203435596437
vertex 27.271638597533858 0 -1.148050297095267
vertex 2.7716385975338627 0 -1.148050297095267
endloop
endfacet
facet normal 0 -1 0
outer loop
vertex 27.078043148491922 0 -2.1213203435596437
vertex 2.7716385975338627 0 -1.148050297095267
vertex 2.1213203435596393 0 -2.1213203435596437
endloop
endfacet
facet normal 0 -1 0
outer loop
vertex -2.7716385975338635 0 -1.148050297095267
vertex -3 0 0
vertex -27.5 0 0
endloop
endfacet
facet normal 0 -1 0
outer loop
vertex -2.7716385975338635 0 -1.148050297095267
vertex -27.5 0 0
vertex -27.27163859753386 0 -1.148050297095267
endloop
endfacet
facet normal 0 -1 0
outer loop
vertex 27.271638597533858 0 -1.148050297095267
vertex 27.5 0 0
vertex 3.0000000000000004 0 0
endloop
endfacet
facet normal 0 -1 0
outer loop
vertex 27.271638597533858 0 -1.148050297095267
vertex 3.0000000000000004 0 0
vertex 2.7716385975338627 0 -1.148050297095267
endloop
endfacet
facet normal 0 -1 0
outer loop
vertex -3 0 0
vertex -2.771638597533858 0 1.148050297095267
vertex -27.27163859753386 0 1.148050297095267
endloop
endfacet
facet normal 0 -1 0
outer loop
vertex -3 0 0
vertex -27.27163859753386 0 1.148050297095267
vertex -27.5 0 0
endloop
endfacet
facet normal 0 -1 0
outer loop
vertex 27.5 0 0
vertex 27.27163859753386 0 1.148050297095267
vertex 2.77163859753386 0 1.148050297095267
endloop
endfacet
facet normal 0 -1 0
outer loop
vertex 27.5 0 0
vertex 2.77163859753386 0 1.148050297095267
vertex 3.0000000000000004 0 0
endloop
endfacet
facet normal 0 -1 0
outer loop
vertex -2.771638597533858 0 1.148050297095267
vertex -2.1213203435596455 0 2.121320343559642
vertex -27.078043148491922 0 2.121320343559642
endloop
endfacet
facet normal 0 -1 0
outer loop
vertex -2.771638597533858 0 1.148050297095267
vertex -27.078043148491922 0 2.121320343559642
vertex -27.27163859753386 0 1.148050297095267
endloop
endfacet
facet normal 0 -1 0
outer loop
vertex 27.27163859753386 0 1.148050297095267
vertex 27.078043148491922 0 2.121320343559642
vertex 2.121320343559643 0 2.121320343559642
endloop
endfacet
facet normal 0 -1 0
outer loop
vertex 27.27163859753386 0 1.148050297095267
vertex 2.121320343559643 0 2.121320343559642
vertex 2.77163859753386 0 1.148050297095267
endloop
endfacet
facet normal 0 -1 0
outer loop
vertex -2.1213203435596455 0 2.121320343559642
vertex -1.148050297095267 0 2.771638597533858
vertex -26.948686805043703 0 2.771638597533858
endloop
endfacet
facet normal 0 -1 0
outer loop
vertex -2.1213203435596455 0 2.121320343559642
vertex -26.948686805043703 0 2.771638597533858
vertex -27.078043148491922 0 2.121320343559642
endloop
endfacet
facet normal 0 -1 0
outer loop
vertex 27.078043148491922 0 2.121320343559642
vertex 26.948686805043703 0 2.771638597533858
vertex 1.148050297095272 0 2.771638597533858
endloop
endfacet
facet normal 0 -1 0
outer loop
vertex 27.078043148491922 0 2.121320343559642
vertex 1.148050297095272 0 2.771638597533858
vertex 2.121320343559643 0 2.121320343559642
endloop
endfacet
facet normal 0 -1 0
outer loop
vertex -1.148050297095267 0 2.771638597533858
vertex 0 0 2.999999999999999
vertex -26.903262897861026 0 2.999999999999999
endloop
endfacet
facet normal 0 -1 0
outer loop
vertex -1.148050297095267 0 2.771638597533858
vertex -26.903262897861026 0 2.999999999999999
vertex -26.948686805043703 0 2.771638597533858
endloop
endfacet
facet normal 0 -1 0
outer loop
vertex 26.948686805043703 0 2.771638597533858
vertex 26.903262897861026 0 2.999999999999999
vertex 0 0 2.999999999999999
endloop
endfacet
facet normal 0 -1 0
outer loop
vertex 26.948686805043703 0 2.771638597533858
vertex 0 0 2.999999999999999
vertex 1.148050297095272 0 2.771638597533858
endloop
endfacet
facet normal 0 -1 0
outer loop
vertex 26.903262897861026 0 2.999999999999999
vertex 25.406687144060385 0 10.523794390039969
vertex 19.445436482630058 0 19.445436482630054
endloop
endfacet
facet normal 0 -1 0
outer loop
vertex 26.903262897861026 0 2.999999999999999
vertex 19.445436482630058 0 19.445436482630054
vertex 10.52379439003997 0 25.406687144060385
endloop
endfacet
facet normal 0 -1 0
outer loop
vertex 26.903262897861026 0 2.999999999999999
vertex 10.52379439003997 0 25.406687144060385
vertex 1.7763568394002505e-15 0 27.5
endloop
endfacet
facet normal 0 -1 0
outer loop
vertex 26.903262897861026 0 2.999999999999999
vertex 1.7763568394002505e-15 0 27.5
vertex -10.523794390039967 0 25.406687144060385
endloop
endfacet
facet normal 0 -1 0
outer loop
vertex 26.903262897861026 0 2.999999999999999
vertex -10.523794390039967 0 25.406687144060385
vertex -19.445436482630054 0 19.445436482630054
endloop
endfacet
facet normal 0 -1 0
outer loop
vertex 26.903262897861026 0 2.999999999999999
vertex -19.445436482630054 0 19.445436482630054
vertex -25.406687144060385 0 10.523794390039969
endloop
endfacet
facet normal 0 -1 0
outer loop
vertex 26.903262897861026 0 2.999999999999999
vertex -25.406687144060385 0 10.523794390039969
vertex -26.903262897861026 0 2.999999999999999
endloop
endfacet
facet normal 0.9799100262056865 -0.04223750112955545 0.19491622313163592
outer loop
vertex 27.596918794410417 55 11.431018044353756
vertex 25.406687144060385 0 10.523794390039969
vertex 27.5 0 0
endloop
endfacet
facet normal 0.9799100262056865 -0.04223750112955545 0.19491622313163592
outer loop
vertex 27.596918794410417 55 11.431018044353756
vertex 27.5 0 0
vertex 29.870689655172413 55 -8.881784197001252e-16
endloop
endfacet
facet normal 0 1 0
outer loop
vertex 10.999809416857131 58 41.051847617285404
vertex 21.250000000000004 58 36.80607966083864
vertex 30.05203820042827 58 30.052038200428267
endloop
endfacet
facet normal 0 1 0
outer loop
vertex 10.999809416857131 58 41.051847617285404
vertex 30.05203820042827 58 30.052038200428267
vertex 32.39394947995962 58 27
endloop
endfacet
facet normal 0 1 0
outer loop
vertex 10.999809416857131 58 41.051847617285404
vertex 32.39394947995962 58 27
vertex -32.393949479959616 58 27
endloop
endfacet
facet normal 0 1 0
outer loop
vertex 10.999809416857131 58 41.051847617285404
vertex -32.393949479959616 58 27
vertex -30.052038200428267 58 30.052038200428267
endloop
endfacet
facet normal 0 1 0
outer loop
vertex 10.999809416857131 58 41.051847617285404
vertex -30.052038200428267 58 30.052038200428267
vertex -21.24999999999999 58 36.80607966083864
endloop
endfacet
facet normal 0 1 0
outer loop
vertex 10.999809416857131 58 41.051847617285404
vertex -21.24999999999999 58 36.80607966083864
vertex -10.999809416857136 58 41.051847617285404
endloop
endfacet
facet normal 0 1 0
outer loop
vertex 10.999809416857131 58 41.051847617285404
vertex -10.999809416857136 58 41.051847617285404
vertex 2.6022885018725517e-15 58 42.5
endloop
endfacet
facet normal 0 1 0
outer loop
vertex 8.881784197001252e-15 58 27
vertex -10.332452673857391 58 24.94474737780475
vertex -33.97100028408456 58 24.94474737780475
endloop
endfacet
facet normal 0 1 0
outer loop
vertex 8.881784197001252e-15 58 27
vertex -33.97100028408456 58 24.94474737780475
vertex -32.393949479959616 58 27
endloop
endfacet
facet normal 0 1 0
outer loop
vertex 32.39394947995962 58 27
vertex 33.97100028408457 58 24.94474737780475
vertex 10.33245267385741 58 24.94474737780475
endloop
endfacet
facet normal 0 1 0
outer loop
vertex 32.39394947995962 58 27
vertex 10.33245267385741 58 24.94474737780475
vertex 8.881784197001252e-15 58 27
endloop
endfacet
facet normal 0 1 0
outer loop
vertex -10.332452673857391 58 24.94474737780475
vertex -19.09188309203681 58 19.091883092036774
vertex -37.70000095330371 58 19.091883092036774
endloop
endfacet
facet normal 0 1 0
outer loop
vertex -10.332452673857391 58 24.94474737780475
vertex -37.70000095330371 58 19.091883092036774
vertex -36.80607966083865 58 21.249999999999996
endloop
endfacet
facet normal 0 1 0
outer loop
vertex -10.332452673857391 58 24.94474737780475
vertex -36.80607966083865 58 21.249999999999996
vertex -33.97100028408456 58 24.94474737780475
endloop
endfacet
facet normal 0 1 0
outer loop
vertex 33.97100028408457 58 24.94474737780475
vertex 36.80607966083865 58 21.249999999999996
vertex 37.7000009533037 58 19.091883092036774
endloop
endfacet
facet normal 0 1 0
outer loop
vertex 33.97100028408457 58 24.94474737780475
vertex 37.7000009533037 58 19.091883092036774
vertex 19.091883092036788 58 19.091883092036774
endloop
endfacet
facet normal 0 1 0
outer loop
vertex 33.97100028408457 58 24.94474737780475
vertex 19.091883092036788 58 19.091883092036774
vertex 10.33245267385741 58 24.94474737780475
endloop
endfacet
facet normal 0 1 0
outer loop
vertex -19.09188309203681 58 19.091883092036774
vertex -24.944747377804738 58 10.332452673857418
vertex -41.1397067992831 58 10.332452673857418
endloop
endfacet
facet normal 0 1 0
outer loop
vertex -19.09188309203681 58 19.091883092036774
vertex -41.1397067992831 58 10.332452673857418
vertex -41.0518476172854 58 10.999809416857131
endloop
endfacet
facet normal 0 1 0
outer loop
vertex -19.09188309203681 58 19.091883092036774
vertex -41.0518476172854 58 10.999809416857131
vertex -37.70000095330371 58 19.091883092036774
endloop
endfacet
facet normal 0 1 0
outer loop
vertex 37.7000009533037 58 19.091883092036774
vertex 41.051847617285404 58 10.999809416857131
vertex 41.139706799283104 58 10.332452673857418
endloop
endfacet
facet normal 0 1 0
outer loop
vertex 37.7000009533037 58 19.091883092036774
vertex 41.139706799283104 58 10.332452673857418
vertex 24.944747377804745 58 10.332452673857418
endloop
endfacet
facet normal 0 1 0
outer loop
vertex 37.7000009533037 58 19.091883092036774
vertex 24.944747377804745 58 10.332452673857418
vertex 19.091883092036788 58 19.091883092036774
endloop
endfacet
facet normal 0 1 0
outer loop
vertex -24.944747377804738 58 10.332452673857418
vertex -26.999999999999996 58 0
vertex -42.5 58 0
endloop
endfacet
facet normal 0 1 0
outer loop
vertex -24.944747377804738 58 10.332452673857418
vertex -42.5 58 0
vertex -41.1397067992831 58 10.332452673857418
endloop
endfacet
facet normal 0 1 0
outer loop
vertex 41.139706799283104 58 10.332452673857418
vertex 42.5 58 0
vertex 26.999999999999996 58 0
endloop
endfacet
facet normal 0 1 0
outer loop
vertex 41.139706799283104 58 10.332452673857418
vertex 26.999999999999996 58 0
vertex 24.944747377804745 58 10.332452673857418
endloop
endfacet
facet normal 0 1 0
outer loop
vertex -26.999999999999996 58 0
vertex -24.944747377804738 58 -10.332452673857441
vertex -41.139706799283104 58 -10.332452673857441
endloop
endfacet
facet normal 0 1 0
outer loop
vertex -26.999999999999996 58 0
vertex -41.139706799283104 58 -10.332452673857441
vertex -42.5 58 0
endloop
endfacet
facet normal 0 1 0
outer loop
vertex 42.5 58 0
vertex 41.139706799283104 58 -10.332452673857441
vertex 24.944747377804735 58 -10.332452673857441
endloop
endfacet
facet normal 0 1 0
outer loop
vertex 42.5 58 0
vertex 24.944747377804735 58 -10.332452673857441
vertex 26.999999999999996 58 0
endloop
endfacet
facet normal 0 1 0
outer loop
vertex -24.944747377804738 58 -10.332452673857441
vertex -19.091883092036806 58 -19.091883092036767
vertex -37.7000009533037 58 -19.091883092036767
endloop
endfacet
facet normal 0 1 0
outer loop
vertex -24.944747377804738 58 -10.332452673857441
vertex -37.7000009533037 58 -19.091883092036767
vertex -41.05184761728541 58 -10.999809416857115
endloop
endfacet
facet normal 0 1 0
outer loop
vertex -24.944747377804738 58 -10.332452673857441
vertex -41.05184761728541 58 -10.999809416857115
vertex -41.139706799283104 58 -10.332452673857441
endloop
endfacet
facet normal 0 1 0
outer loop
vertex 41.139706799283104 58 -10.332452673857441
vertex 41.051847617285404 58 -10.999809416857115
vertex 37.70000095330369 58 -19.091883092036767
endloop
endfacet
facet normal 0 1 0
outer loop
vertex 41.139706799283104 58 -10.332452673857441
vertex 37.70000095330369 58 -19.091883092036767
vertex 19.09188309203678 58 -19.091883092036767
endloop
endfacet
facet normal 0 1 0
outer loop
vertex 41.139706799283104 58 -10.332452673857441
vertex 19.09188309203678 58 -19.091883092036767
vertex 24.944747377804735 58 -10.332452673857441
endloop
endfacet
facet normal 0 1 0
outer loop
vertex -19.091883092036806 58 -19.091883092036767
vertex -10.332452673857436 58 -24.944747377804735
vertex -33.971000284084575 58 -24.944747377804735
endloop
endfacet
facet normal 0 1 0
outer loop
vertex -19.091883092036806 58 -19.091883092036767
vertex -33.971000284084575 58 -24.944747377804735
vertex -36.80607966083864 58 -21.250000000000004
endloop
endfacet
facet normal 0 1 0
outer loop
vertex -19.091883092036806 58 -19.091883092036767
vertex -36.80607966083864 58 -21.250000000000004
vertex -37.7000009533037 58 -19.091883092036767
endloop
endfacet
facet normal 0 1 0
outer loop
vertex 37.70000095330369 58 -19.091883092036767
vertex 36.806079660838634 58 -21.250000000000004
vertex 33.97100028408457 58 -24.944747377804735
endloop
endfacet
facet normal 0 1 0
outer loop
vertex 37.70000095330369 58 -19.091883092036767
vertex 33.97100028408457 58 -24.944747377804735
vertex 10.332452673857425 58 -24.944747377804735
endloop
endfacet
facet normal 0 1 0
outer loop
vertex 37.70000095330369 58 -19.091883092036767
vertex 10.332452673857425 58 -24.944747377804735
vertex 19.09188309203678 58 -19.091883092036767
endloop
endfacet
facet normal 0 1 0
outer loop
vertex -10.332452673857436 58 -24.944747377804735
vertex 5.329070518200751e-15 58 -27
vertex -32.39394947995962 58 -27
endloop
endfacet
facet normal 0 1 0
outer loop
vertex -10.332452673857436 58 -24.944747377804735
vertex -32.39394947995962 58 -27
vertex -33.971000284084575 58 -24.944747377804735
endloop
endfacet
facet normal 0 1 0
outer loop
vertex 33.97100028408457 58 -24.944747377804735
vertex 32.393949479959616 58 -27
vertex 5.329070518200751e-15 58 -27
endloop
endfacet
facet normal 0 1 0
outer loop
vertex 33.97100028408457 58 -24.944747377804735
vertex 5.329070518200751e-15 58 -27
vertex 10.332452673857425 58 -24.944747377804735
endloop
endfacet
facet normal 0 1 0
outer loop
vertex 32.393949479959616 58 -27
vertex 30.052038200428264 58 -30.052038200428267
vertex 21.250000000000004 58 -36.806079660838634
endloop
endfacet
facet normal 0 1 0
outer loop
vertex 32.393949479959616 58 -27
vertex 21.250000000000004 58 -36.806079660838634
vertex 10.999809416857113 58 -41.051847617285404
endloop
endfacet
facet normal 0 1 0
outer loop
vertex 32.393949479959616 58 -27
vertex 10.999809416857113 58 -41.051847617285404
vertex -7.105427357601002e-15 58 -42.5
endloop
endfacet
facet normal 0 1 0
outer loop
vertex 32.393949479959616 58 -27
vertex -7.105427357601002e-15 58 -42.5
vertex -10.999809416857127 58 -41.051847617285404
endloop
endfacet
facet normal 0 1 0
outer loop
vertex 32.393949479959616 58 -27
vertex -10.999809416857127 58 -41.051847617285404
vertex -21.250000000000018 58 -36.806079660838634
endloop
endfacet
facet normal 0 1 0
outer loop
vertex 32.393949479959616 58 -27
vertex -21.250000000000018 58 -36.806079660838634
vertex -30.052038200428278 58 -30.052038200428267
endloop
endfacet
facet normal 0 1 0
outer loop
vertex 32.393949479959616 58 -27
vertex -30.052038200428278 58 -30.052038200428267
vertex -32.39394947995962 58 -27
endloop
endfacet
facet normal 0.8307276076223783 -0.04223750112955548 0.5550744413430785
outer loop
vertex 21.12176721389127 55 21.121767213891268
vertex 19.445436482630058 0 19.445436482630054
vertex 25.406687144060385 0 10.523794390039969
endloop
endfacet
facet normal 0.8307276076223783 -0.04223750112955548 0.5550744413430785
outer loop
vertex 21.12176721389127 55 21.121767213891268
vertex 25.406687144060385 0 10.523794390039969
vertex 27.596918794410417 55 11.431018044353756
endloop
endfacet
facet normal 0.5550744413430787 -0.04223750112955546 0.8307276076223782
outer loop
vertex 11.43101804435376 55.00000000000001 27.596918794410424
vertex 10.52379439003997 0 25.406687144060385
vertex 19.445436482630058 0 19.445436482630054
endloop
endfacet
facet normal 0.5550744413430787 -0.04223750112955546 0.8307276076223782
outer loop
vertex 11.43101804435376 55.00000000000001 27.596918794410424
vertex 19.445436482630058 0 19.445436482630054
vertex 21.12176721389127 55 21.121767213891268
endloop
endfacet
facet normal 0.19491622313163592 -0.04223750112955549 0.9799100262056865
outer loop
vertex 2.6645352591003757e-15 55 29.870689655172416
vertex 1.7763568394002505e-15 0 27.5
vertex 10.52379439003997 0 25.406687144060385
endloop
endfacet
facet normal 0.19491622313163592 -0.04223750112955549 0.9799100262056865
outer loop
vertex 2.6645352591003757e-15 55 29.870689655172416
vertex 10.52379439003997 0 25.406687144060385
vertex 11.43101804435376 55.00000000000001 27.596918794410424
endloop
endfacet
facet normal -0.19491622313163592 -0.04223750112955545 0.9799100262056865
outer loop
vertex -11.431018044353756 55 27.596918794410417
vertex -10.523794390039967 0 25.406687144060385
vertex 1.7763568394002505e-15 0 27.5
endloop
endfacet
facet normal -0.19491622313163592 -0.04223750112955545 0.9799100262056865
outer loop
vertex -11.431018044353756 55 27.596918794410417
vertex 1.7763568394002505e-15 0 27.5
vertex 2.6645352591003757e-15 55 29.870689655172416
endloop
endfacet
facet normal -0.5550744413430785 -0.04223750112955548 0.8307276076223784
outer loop
vertex -21.121767213891268 55.00000000000001 21.121767213891278
vertex -19.445436482630054 0 19.445436482630054
vertex -10.523794390039967 0 25.406687144060385
endloop
endfacet
facet normal -0.5550744413430785 -0.04223750112955548 0.8307276076223784
outer loop
vertex -21.121767213891268 55.00000000000001 21.121767213891278
vertex -10.523794390039967 0 25.406687144060385
vertex -11.431018044353756 55 27.596918794410417
endloop
endfacet
facet normal -0.8307276076223782 -0.04223750112955546 0.5550744413430788
outer loop
vertex -27.596918794410428 55.00000000000001 11.431018044353765
vertex -25.406687144060385 0 10.523794390039969
vertex -19.445436482630054 0 19.445436482630054
endloop
endfacet
facet normal -0.8307276076223782 -0.04223750112955546 0.5550744413430788
outer loop
vertex -27.596918794410428 55.00000000000001 11.431018044353765
vertex -19.445436482630054 0 19.445436482630054
vertex -21.121767213891268 55.00000000000001 21.121767213891278
endloop
endfacet
facet normal -0.9799100262056865 -0.04223750112955549 0.19491622313163592
outer loop
vertex -29.870689655172416 55 4.440892098500626e-15
vertex -27.5 0 0
vertex -25.406687144060385 0 10.523794390039969
endloop
endfacet
facet normal -0.9799100262056865 -0.04223750112955549 0.19491622313163592
outer loop
vertex -29.870689655172416 55 4.440892098500626e-15
vertex -25.406687144060385 0 10.523794390039969
vertex -27.596918794410428 55.00000000000001 11.431018044353765
endloop
endfacet
facet normal -0.9799100262056865 -0.04223750112955545 -0.1949162231316356
outer loop
vertex -27.596918794410417 54.999999999999986 -11.431018044353753
vertex -25.40668714406039 0 -10.523794390039965
vertex -27.5 0 0
endloop
endfacet
facet normal -0.9799100262056865 -0.04223750112955545 -0.1949162231316356
outer loop
vertex -27.596918794410417 54.999999999999986 -11.431018044353753
vertex -27.5 0 0
vertex -29.870689655172416 55 4.440892098500626e-15
endloop
endfacet
facet normal -0.8307276076223784 -0.04223750112955548 -0.5550744413430784
outer loop
vertex -21.121767213891275 55 -21.121767213891264
vertex -19.44543648263006 0 -19.445436482630054
vertex -25.40668714406039 0 -10.523794390039965
endloop
endfacet
facet normal -0.8307276076223784 -0.04223750112955548 -0.5550744413430784
outer loop
vertex -21.121767213891275 55 -21.121767213891264
vertex -25.40668714406039 0 -10.523794390039965
vertex -27.596918794410417 54.999999999999986 -11.431018044353753
endloop
endfacet
facet normal -0.5550744413430787 -0.04223750112955545 -0.8307276076223782
outer loop
vertex -11.431018044353774 55.00000000000001 -27.596918794410414
vertex -10.523794390039985 0 -25.406687144060378
vertex -19.44543648263006 0 -19.445436482630054
endloop
endfacet
facet normal -0.5550744413430787 -0.04223750112955545 -0.8307276076223782
outer loop
vertex -11.431018044353774 55.00000000000001 -27.596918794410414
vertex -19.44543648263006 0 -19.445436482630054
vertex -21.121767213891275 55 -21.121767213891264
endloop
endfacet
facet normal -0.19491622313163634 -0.04223750112955548 -0.9799100262056862
outer loop
vertex -4.440892098500626e-15 54.99999999999997 -29.87068965517241
vertex -5.051501209517306e-15 0 -27.5
vertex -10.523794390039985 0 -25.406687144060378
endloop
endfacet
facet normal -0.19491622313163634 -0.04223750112955548 -0.9799100262056862
outer loop
vertex -4.440892098500626e-15 54.99999999999997 -29.87068965517241
vertex -10.523794390039985 0 -25.406687144060378
vertex -11.431018044353774 55.00000000000001 -27.596918794410414
endloop
endfacet
facet normal 0.19491622313163598 -0.042237501129555446 -0.9799100262056865
outer loop
vertex 11.431018044353765 55 -27.596918794410414
vertex 10.523794390039976 0 -25.406687144060378
vertex -5.051501209517306e-15 0 -27.5
endloop
endfacet
facet normal 0.19491622313163598 -0.042237501129555446 -0.9799100262056865
outer loop
vertex 11.431018044353765 55 -27.596918794410414
vertex -5.051501209517306e-15 0 -27.5
vertex -4.440892098500626e-15 54.99999999999997 -29.87068965517241
endloop
endfacet
facet normal 0.5550744413430785 -0.04223750112955549 -0.8307276076223783
outer loop
vertex 21.121767213891268 55 -21.12176721389127
vertex 19.44543648263005 0 -19.445436482630054
vertex 10.523794390039976 0 -25.406687144060378
endloop
endfacet
facet normal 0.5550744413430785 -0.04223750112955549 -0.8307276076223783
outer loop
vertex 21.121767213891268 55 -21.12176721389127
vertex 10.523794390039976 0 -25.406687144060378
vertex 11.431018044353765 55 -27.596918794410414
endloop
endfacet
facet normal 0.8307276076223781 -0.04223750112955546 -0.5550744413430789
outer loop
vertex 27.596918794410417 55.00000000000001 -11.431018044353774
vertex 25.406687144060378 0 -10.523794390039965
vertex 19.44543648263005 0 -19.445436482630054
endloop
endfacet
facet normal 0.8307276076223781 -0.04223750112955546 -0.5550744413430789
outer loop
vertex 27.596918794410417 55.00000000000001 -11.431018044353774
vertex 19.44543648263005 0 -19.445436482630054
vertex 21.121767213891268 55 -21.12176721389127
endloop
endfacet
facet normal 0.9799100262056862 -0.04223750112955548 -0.19491622313163634
outer loop
vertex 29.870689655172413 55 -8.881784197001252e-16
vertex 27.5 0 0
vertex 25.406687144060378 0 -10.523794390039965
endloop
endfacet
facet normal 0.9799100262056862 -0.04223750112955548 -0.19491622313163634
outer loop
vertex 29.870689655172413 55 -8.881784197001252e-16
vertex 25.406687144060378 0 -10.523794390039965
vertex 27.596918794410417 55.00000000000001 -11.431018044353774
endloop
endfacet
facet normal 0 -1 0
outer loop
vertex 10.999809416857113 55 -41.051847617285404
vertex 21.250000000000004 55 -36.806079660838634
vertex 30.052038200428264 55 -30.052038200428267
endloop
endfacet
facet normal 0 -1 0
outer loop
vertex 10.999809416857113 55 -41.051847617285404
vertex 30.052038200428264 55 -30.052038200428267
vertex 30.191191833433805 55 -29.870689655172413
endloop
endfacet
facet normal 0 -1 0
outer loop
vertex 10.999809416857113 55 -41.051847617285404
vertex 30.191191833433805 55 -29.870689655172413
vertex -30.19119183343382 55 -29.870689655172413
endloop
endfacet
facet normal 0 -1 0
outer loop
vertex 10.999809416857113 55 -41.051847617285404
vertex -30.19119183343382 55 -29.870689655172413
vertex -30.052038200428278 55 -30.052038200428267
endloop
endfacet
facet normal 0 -1 0
outer loop
vertex 10.999809416857113 55 -41.051847617285404
vertex -30.052038200428278 55 -30.052038200428267
vertex -21.250000000000018 55 -36.806079660838634
endloop
endfacet
facet normal 0 -1 0
outer loop
vertex 10.999809416857113 55 -41.051847617285404
vertex -21.250000000000018 55 -36.806079660838634
vertex -10.999809416857127 55 -41.051847617285404
endloop
endfacet
facet normal 0 -1 0
outer loop
vertex 10.999809416857113 55 -41.051847617285404
vertex -10.999809416857127 55 -41.051847617285404
vertex -7.806865505617655e-15 55 -42.5
endloop
endfacet
facet normal 0 -1 0
outer loop
vertex -4.440892098500626e-15 54.99999999999997 -29.87068965517241
vertex -11.431018044353774 55.00000000000001 -27.596918794410414
vertex -31.93591757937665 55 -27.596918794410414
endloop
endfacet
facet normal 0 -1 0
outer loop
vertex -4.440892098500626e-15 54.99999999999997 -29.87068965517241
vertex -31.93591757937665 55 -27.596918794410414
vertex -30.19119183343382 55 -29.870689655172413
endloop
endfacet
facet normal 0 -1 0
outer loop
vertex 30.191191833433805 55 -29.870689655172413
vertex 31.935917579376643 55 -27.596918794410414
vertex 11.431018044353765 55 -27.596918794410414
endloop
endfacet
facet normal 0 -1 0
outer loop
vertex 30.191191833433805 55 -29.870689655172413
vertex 11.431018044353765 55 -27.596918794410414
vertex -4.440892098500626e-15 54.99999999999997 -29.87068965517241
endloop
endfacet
facet normal 0 -1 0
outer loop
vertex -11.431018044353774 55.00000000000001 -27.596918794410414
vertex -21.121767213891275 55 -21.121767213891264
vertex -36.85919541998577 55 -21.121767213891264
endloop
endfacet
facet normal 0 -1 0
outer loop
vertex -11.431018044353774 55.00000000000001 -27.596918794410414
vertex -36.85919541998577 55 -21.121767213891264
vertex -36.80607966083864 55 -21.250000000000004
endloop
endfacet
facet normal 0 -1 0
outer loop
vertex -11.431018044353774 55.00000000000001 -27.596918794410414
vertex -36.80607966083864 55 -21.250000000000004
vertex -31.93591757937665 55 -27.596918794410414
endloop
endfacet
facet normal 0 -1 0
outer loop
vertex 31.935917579376643 55 -27.596918794410414
vertex 36.806079660838634 55 -21.250000000000004
vertex 36.85919541998576 55 -21.121767213891264
endloop
endfacet
facet normal 0 -1 0
outer loop
vertex 31.935917579376643 55 -27.596918794410414
vertex 36.85919541998576 55 -21.121767213891264
vertex 21.121767213891268 55 -21.12176721389127
endloop
endfacet
facet normal 0 -1 0
outer loop
vertex 31.935917579376643 55 -27.596918794410414
vertex 21.121767213891268 55 -21.12176721389127
vertex 11.431018044353765 55 -27.596918794410414
endloop
endfacet
facet normal 0 -1 0
outer loop
vertex -21.121767213891275 55 -21.121767213891264
vertex -27.596918794410417 54.999999999999986 -11.431018044353753
vertex -40.87323515556402 55 -11.431018044353753
endloop
endfacet
facet normal 0 -1 0
outer loop
vertex -21.121767213891275 55 -21.121767213891264
vertex -40.87323515556402 55 -11.431018044353753
vertex -36.85919541998577 55 -21.121767213891264
endloop
endfacet
facet normal 0 -1 0
outer loop
vertex 36.85919541998576 55 -21.121767213891264
vertex 40.873235155564004 55 -11.431018044353753
vertex 27.596918794410417 55.00000000000001 -11.431018044353774
endloop
endfacet
facet normal 0 -1 0
outer loop
vertex 36.85919541998576 55 -21.121767213891264
vertex 27.596918794410417 55.00000000000001 -11.431018044353774
vertex 21.121767213891268 55 -21.12176721389127
endloop
endfacet
facet normal 0 -1 0
outer loop
vertex -27.596918794410417 54.999999999999986 -11.431018044353753
vertex -29.870689655172416 55 4.440892098500626e-15
vertex -42.5 55 4.440892098500626e-15
endloop
endfacet
facet normal 0 -1 0
outer loop
vertex -27.596918794410417 54.999999999999986 -11.431018044353753
vertex -42.5 55 4.440892098500626e-15
vertex -41.05184761728541 55 -10.999809416857115
endloop
endfacet
facet normal 0 -1 0
outer loop
vertex -27.596918794410417 54.999999999999986 -11.431018044353753
vertex -41.05184761728541 55 -10.999809416857115
vertex -40.87323515556402 55 -11.431018044353753
endloop
endfacet
facet normal 0 -1 0
outer loop
vertex 40.873235155564004 55 -11.431018044353753
vertex 41.051847617285404 55 -10.999809416857115
vertex 42.5 55 4.440892098500626e-15
endloop
endfacet
facet normal 0 -1 0
outer loop
vertex 40.873235155564004 55 -11.431018044353753
vertex 42.5 55 4.440892098500626e-15
vertex 29.870689655172413 55 -8.881784197001252e-16
endloop
endfacet
facet normal 0 -1 0
outer loop
vertex 40.873235155564004 55 -11.431018044353753
vertex 29.870689655172413 55 -8.881784197001252e-16
vertex 27.596918794410417 55.00000000000001 -11.431018044353774
endloop
endfacet
facet normal 0 -1 0
outer loop
vertex -29.870689655172416 55 4.440892098500626e-15
vertex -27.596918794410428 55.00000000000001 11.431018044353765
vertex -40.873235155564004 55 11.431018044353765
endloop
endfacet
facet normal 0 -1 0
outer loop
vertex -29.870689655172416 55 4.440892098500626e-15
vertex -40.873235155564004 55 11.431018044353765
vertex -41.0518476172854 55 10.999809416857131
endloop
endfacet
facet normal 0 -1 0
outer loop
vertex -29.870689655172416 55 4.440892098500626e-15
vertex -41.0518476172854 55 10.999809416857131
vertex -42.5 55 4.440892098500626e-15
endloop
endfacet
facet normal 0 -1 0
outer loop
vertex 42.5 55 4.440892098500626e-15
vertex 41.051847617285404 55 10.999809416857131
vertex 40.87323515556401 55 11.431018044353765
endloop
endfacet
facet normal 0 -1 0
outer loop
vertex 42.5 55 4.440892098500626e-15
vertex 40.87323515556401 55 11.431018044353765
vertex 27.596918794410417 55 11.431018044353756
endloop
endfacet
facet normal 0 -1 0
outer loop
vertex 42.5 55 4.440892098500626e-15
vertex 27.596918794410417 55 11.431018044353756
vertex 29.870689655172413 55 -8.881784197001252e-16
endloop
endfacet
facet normal 0 -1 0
outer loop
vertex -27.596918794410428 55.00000000000001 11.431018044353765
vertex -21.121767213891268 55.00000000000001 21.121767213891278
vertex -36.859195419985774 55 21.121767213891278
endloop
endfacet
facet normal 0 -1 0
outer loop
vertex -27.596918794410428 55.00000000000001 11.431018044353765
vertex -36.859195419985774 55 21.121767213891278
vertex -40.873235155564004 55 11.431018044353765
endloop
endfacet
facet normal 0 -1 0
outer loop
vertex 40.87323515556401 55 11.431018044353765
vertex 36.859195419985774 55 21.121767213891278
vertex 21.12176721389127 55 21.121767213891268
endloop
endfacet
facet normal 0 -1 0
outer loop
vertex 40.87323515556401 55 11.431018044353765
vertex 21.12176721389127 55 21.121767213891268
vertex 27.596918794410417 55 11.431018044353756
endloop
endfacet
facet normal 0 -1 0
outer loop
vertex -21.121767213891268 55.00000000000001 21.121767213891278
vertex -11.431018044353756 55 27.596918794410417
vertex -31.93591757937664 55 27.596918794410417
endloop
endfacet
facet normal 0 -1 0
outer loop
vertex -21.121767213891268 55.00000000000001 21.121767213891278
vertex -31.93591757937664 55 27.596918794410417
vertex -36.80607966083865 55 21.249999999999996
endloop
endfacet
facet normal 0 -1 0
outer loop
vertex -21.121767213891268 55.00000000000001 21.121767213891278
vertex -36.80607966083865 55 21.249999999999996
vertex -36.859195419985774 55 21.121767213891278
endloop
endfacet
facet normal 0 -1 0
outer loop
vertex 36.859195419985774 55 21.121767213891278
vertex 36.80607966083865 55 21.249999999999996
vertex 31.935917579376643 55 27.596918794410417
endloop
endfacet
facet normal 0 -1 0
outer loop
vertex 36.859195419985774 55 21.121767213891278
vertex 31.935917579376643 55 27.596918794410417
vertex 11.43101804435376 55.00000000000001 27.596918794410424
endloop
endfacet
facet normal 0 -1 0
outer loop
vertex 36.859195419985774 55 21.121767213891278
vertex 11.43101804435376 55.00000000000001 27.596918794410424
vertex 21.12176721389127 55 21.121767213891268
endloop
endfacet
facet normal 0 -1 0
outer loop
vertex -11.431018044353756 55 27.596918794410417
vertex 2.6645352591003757e-15 55 29.870689655172416
vertex -30.19119183343381 55 29.870689655172416
endloop
endfacet
facet normal 0 -1 0
outer loop
vertex -11.431018044353756 55 27.596918794410417
vertex -30.19119183343381 55 29.870689655172416
vertex -31.93591757937664 55 27.596918794410417
endloop
endfacet
facet normal 0 -1 0
outer loop
vertex 31.935917579376643 55 27.596918794410417
vertex 30.191191833433813 55 29.870689655172416
vertex 2.6645352591003757e-15 55 29.870689655172416
endloop
endfacet
facet normal 0 -1 0
outer loop
vertex 31.935917579376643 55 27.596918794410417
vertex 2.6645352591003757e-15 55 29.870689655172416
vertex 11.43101804435376 55.00000000000001 27.596918794410424
endloop
endfacet
facet normal 0 -1 0
outer loop
vertex 30.191191833433813 55 29.870689655172416
vertex 30.05203820042827 55 30.052038200428267
vertex 21.250000000000004 55 36.80607966083864
endloop
endfacet
facet normal 0 -1 0
outer loop
vertex 30.191191833433813 55 29.870689655172416
vertex 21.250000000000004 55 36.80607966083864
vertex 10.999809416857131 55 41.051847617285404
endloop
endfacet
facet normal 0 -1 0
outer loop
vertex 30.191191833433813 55 29.870689655172416
vertex 10.999809416857131 55 41.051847617285404
vertex 1.7763568394002505e-15 55 42.5
endloop
endfacet
facet normal 0 -1 0
outer loop
vertex 30.191191833433813 55 29.870689655172416
vertex 1.7763568394002505e-15 55 42.5
vertex -10.999809416857136 55 41.051847617285404
endloop
endfacet
facet normal 0 -1 0
outer loop
vertex 30.191191833433813 55 29.870689655172416
vertex -10.999809416857136 55 41.051847617285404
vertex -21.24999999999999 55 36.80607966083864
endloop
endfacet
facet normal 0 -1 0
outer loop
vertex 30.191191833433813 55 29.870689655172416
vertex -21.24999999999999 55 36.80607966083864
vertex -30.052038200428267 55 30.052038200428267
endloop
endfacet
facet normal 0 -1 0
outer loop
vertex 30.191191833433813 55 29.870689655172416
vertex -30.052038200428267 55 30.052038200428267
vertex -30.19119183343381 55 29.870689655172416
endloop
endfacet
facet normal 0.9914448613738104 0 0.1305261922200515
outer loop
vertex 41.051847617285404 55 10.999809416857131
vertex 42.5 55 4.440892098500626e-15
vertex 42.5 58 0
endloop
endfacet
facet normal 0.9914448613738104 0 0.1305261922200515
outer loop
vertex 41.051847617285404 55 10.999809416857131
vertex 42.5 58 0
vertex 41.051847617285404 58 10.999809416857131
endloop
endfacet
facet normal 0.9238795325112868 0 0.38268343236508956
outer loop
vertex 36.80607966083865 55 21.249999999999996
vertex 41.051847617285404 55 10.999809416857131
vertex 41.051847617285404 58 10.999809416857131
endloop
endfacet
facet normal 0.9238795325112868 0 0.38268343236508956
outer loop
vertex 36.80607966083865 55 21.249999999999996
vertex 41.051847617285404 58 10.999809416857131
vertex 36.80607966083865 58 21.249999999999996
endloop
endfacet
facet normal 0.7933533402912349 0 0.6087614290087208
outer loop
vertex 30.05203820042827 55 30.052038200428267
vertex 36.80607966083865 55 21.249999999999996
vertex 36.80607966083865 58 21.249999999999996
endloop
endfacet
facet normal 0.7933533402912349 0 0.6087614290087208
outer loop
vertex 30.05203820042827 55 30.052038200428267
vertex 36.80607966083865 58 21.249999999999996
vertex 30.05203820042827 58 30.052038200428267
endloop
endfacet
facet normal 0.6087614290087209 0 0.793353340291235
outer loop
vertex 21.250000000000004 55 36.80607966083864
vertex 30.05203820042827 55 30.052038200428267
vertex 30.05203820042827 58 30.052038200428267
endloop
endfacet
facet normal 0.6087614290087209 0 0.793353340291235
outer loop
vertex 21.250000000000004 55 36.80607966083864
vertex 30.05203820042827 58 30.052038200428267
vertex 21.250000000000004 58 36.80607966083864
endloop
endfacet
facet normal 0.38268343236508984 0 0.9238795325112867
outer loop
vertex 10.999809416857131 55 41.051847617285404
vertex 21.250000000000004 55 36.80607966083864
vertex 21.250000000000004 58 36.80607966083864
endloop
endfacet
facet normal 0.38268343236508984 0 0.9238795325112867
outer loop
vertex 10.999809416857131 55 41.051847617285404
vertex 21.250000000000004 58 36.80607966083864
vertex 10.999809416857131 58 41.051847617285404
endloop
endfacet
facet normal 0.13052619222005152 0 0.9914448613738104
outer loop
vertex 1.7763568394002505e-15 55 42.5
vertex 10.999809416857131 55 41.051847617285404
vertex 10.999809416857131 58 41.051847617285404
endloop
endfacet
facet normal 0.13052619222005152 0 0.9914448613738104
outer loop
vertex 1.7763568394002505e-15 55 42.5
vertex 10.999809416857131 58 41.051847617285404
vertex 2.6022885018725517e-15 58 42.5
endloop
endfacet
facet normal -0.1305261922200514 0 0.9914448613738104
outer loop
vertex -10.999809416857136 55 41.051847617285404
vertex 1.7763568394002505e-15 55 42.5
vertex 2.6022885018725517e-15 58 42.5
endloop
endfacet
facet normal -0.1305261922200514 0 0.9914448613738104
outer loop
vertex -10.999809416857136 55 41.051847617285404
vertex 2.6022885018725517e-15 58 42.5
vertex -10.999809416857136 58 41.051847617285404
endloop
endfacet
facet normal -0.38268343236508995 0 0.9238795325112867
outer loop
vertex -21.24999999999999 55 36.80607966083864
vertex -10.999809416857136 55 41.051847617285404
vertex -10.999809416857136 58 41.051847617285404
endloop
endfacet
facet normal -0.38268343236508995 0 0.9238795325112867
outer loop
vertex -21.24999999999999 55 36.80607966083864
vertex -10.999809416857136 58 41.051847617285404
vertex -21.24999999999999 58 36.80607966083864
endloop
endfacet
facet normal -0.6087614290087205 0 0.7933533402912352
outer loop
vertex -30.052038200428267 55 30.052038200428267
vertex -21.24999999999999 55 36.80607966083864
vertex -21.24999999999999 58 36.80607966083864
endloop
endfacet
facet normal -0.6087614290087205 0 0.7933533402912352
outer loop
vertex -30.052038200428267 55 30.052038200428267
vertex -21.24999999999999 58 36.80607966083864
vertex -30.052038200428267 58 30.052038200428267
endloop
endfacet
facet normal -0.7933533402912348 0 0.6087614290087209
outer loop
vertex -36.80607966083865 55 21.249999999999996
vertex -30.052038200428267 55 30.052038200428267
vertex -30.052038200428267 58 30.052038200428267
endloop
endfacet
facet normal -0.7933533402912348 0 0.6087614290087209
outer loop
vertex -36.80607966083865 55 21.249999999999996
vertex -30.052038200428267 58 30.052038200428267
vertex -36.80607966083865 58 21.249999999999996
endloop
endfacet
facet normal -0.923879532511287 0 0.3826834323650894
outer loop
vertex -41.0518476172854 55 10.999809416857131
vertex -36.80607966083865 55 21.249999999999996
vertex -36.80607966083865 58 21.249999999999996
endloop
endfacet
facet normal -0.923879532511287 0 0.3826834323650894
outer loop
vertex -41.0518476172854 55 10.999809416857131
vertex -36.80607966083865 58 21.249999999999996
vertex -41.0518476172854 58 10.999809416857131
endloop
endfacet
facet normal -0.9914448613738102 0 0.13052619222005202
outer loop
vertex -42.5 55 4.440892098500626e-15
vertex -41.0518476172854 55 10.999809416857131
vertex -41.0518476172854 58 10.999809416857131
endloop
endfacet
facet normal -0.9914448613738102 0 0.13052619222005202
outer loop
vertex -42.5 55 4.440892098500626e-15
vertex -41.0518476172854 58 10.999809416857131
vertex -42.5 58 0
endloop
endfacet
facet normal -0.9914448613738106 0 -0.130526192220051
outer loop
vertex -41.05184761728541 55 -10.999809416857115
vertex -42.5 55 4.440892098500626e-15
vertex -42.5 58 0
endloop
endfacet
facet normal -0.9914448613738106 0 -0.130526192220051
outer loop
vertex -41.05184761728541 55 -10.999809416857115
vertex -42.5 58 0
vertex -41.05184761728541 58 -10.999809416857115
endloop
endfacet
facet normal -0.9238795325112866 0 -0.38268343236508984
outer loop
vertex -36.80607966083864 55 -21.250000000000004
vertex -41.05184761728541 55 -10.999809416857115
vertex -41.05184761728541 58 -10.999809416857115
endloop
endfacet
facet normal -0.9238795325112866 0 -0.38268343236508984
outer loop
vertex -36.80607966083864 55 -21.250000000000004
vertex -41.05184761728541 58 -10.999809416857115
vertex -36.80607966083864 58 -21.250000000000004
endloop
endfacet
facet normal -0.7933533402912355 0 -0.6087614290087204
outer loop
vertex -30.052038200428278 55 -30.052038200428267
vertex -36.80607966083864 55 -21.250000000000004
vertex -36.80607966083864 58 -21.250000000000004
endloop
endfacet
facet normal -0.7933533402912355 0 -0.6087614290087204
outer loop
vertex -30.052038200428278 55 -30.052038200428267
vertex -36.80607966083864 58 -21.250000000000004
vertex -30.052038200428278 58 -30.052038200428267
endloop
endfacet
facet normal -0.6087614290087208 0 -0.7933533402912352
outer loop
vertex -21.250000000000018 55 -36.806079660838634
vertex -30.052038200428278 55 -30.052038200428267
vertex -30.052038200428278 58 -30.052038200428267
endloop
endfacet
facet normal -0.6087614290087208 0 -0.7933533402912352
outer loop
vertex -21.250000000000018 55 -36.806079660838634
vertex -30.052038200428278 58 -30.052038200428267
vertex -21.250000000000018 58 -36.806079660838634
endloop
endfacet
facet normal -0.3826834323650898 0 -0.9238795325112866
outer loop
vertex -10.999809416857127 55 -41.051847617285404
vertex -21.250000000000018 55 -36.806079660838634
vertex -21.250000000000018 58 -36.806079660838634
endloop
endfacet
facet normal -0.3826834323650898 0 -0.9238795325112866
outer loop
vertex -10.999809416857127 55 -41.051847617285404
vertex -21.250000000000018 58 -36.806079660838634
vertex -10.999809416857127 58 -41.051847617285404
endloop
endfacet
facet normal -0.1305261922200516 0 -0.9914448613738104
outer loop
vertex -7.806865505617655e-15 55 -42.5
vertex -10.999809416857127 55 -41.051847617285404
vertex -10.999809416857127 58 -41.051847617285404
endloop
endfacet
facet normal -0.1305261922200516 0 -0.9914448613738104
outer loop
vertex -7.806865505617655e-15 55 -42.5
vertex -10.999809416857127 58 -41.051847617285404
vertex -7.105427357601002e-15 58 -42.5
endloop
endfacet
facet normal 0.130526192220051 0 -0.9914448613738106
outer loop
vertex 10.999809416857113 55 -41.051847617285404
vertex -7.806865505617655e-15 55 -42.5
vertex -7.105427357601002e-15 58 -42.5
endloop
endfacet
facet normal 0.130526192220051 0 -0.9914448613738106
outer loop
vertex 10.999809416857113 55 -41.051847617285404
vertex -7.105427357601002e-15 58 -42.5
vertex 10.999809416857113 58 -41.051847617285404
endloop
endfacet
facet normal 0.3826834323650898 0 -0.9238795325112866
outer loop
vertex 21.250000000000004 55 -36.806079660838634
vertex 10.999809416857113 55 -41.051847617285404
vertex 10.999809416857113 58 -41.051847617285404
endloop
endfacet
facet normal 0.3826834323650898 0 -0.9238795325112866
outer loop
vertex 21.250000000000004 55 -36.806079660838634
vertex 10.999809416857113 58 -41.051847617285404
vertex 21.250000000000004 58 -36.806079660838634
endloop
endfacet
facet normal 0.6087614290087205 0 -0.7933533402912353
outer loop
vertex 30.052038200428264 55 -30.052038200428267
vertex 21.250000000000004 55 -36.806079660838634
vertex 21.250000000000004 58 -36.806079660838634
endloop
endfacet
facet normal 0.6087614290087205 0 -0.7933533402912353
outer loop
vertex 30.052038200428264 55 -30.052038200428267
vertex 21.250000000000004 58 -36.806079660838634
vertex 30.052038200428264 58 -30.052038200428267
endloop
endfacet
facet normal 0.7933533402912349 0 -0.6087614290087209
outer loop
vertex 36.806079660838634 55 -21.250000000000004
vertex 30.052038200428264 55 -30.052038200428267
vertex 30.052038200428264 58 -30.052038200428267
endloop
endfacet
facet normal 0.7933533402912349 0 -0.6087614290087209
outer loop
vertex 36.806079660838634 55 -21.250000000000004
vertex 30.052038200428264 58 -30.052038200428267
vertex 36.806079660838634 58 -21.250000000000004
endloop
endfacet
facet normal 0.9238795325112866 0 -0.38268343236508984
outer loop
vertex 41.051847617285404 55 -10.999809416857115
vertex 36.806079660838634 55 -21.250000000000004
vertex 36.806079660838634 58 -21.250000000000004
endloop
endfacet
facet normal 0.9238795325112866 0 -0.38268343236508984
outer loop
vertex 41.051847617285404 55 -10.999809416857115
vertex 36.806079660838634 58 -21.250000000000004
vertex 41.051847617285404 58 -10.999809416857115
endloop
endfacet
facet normal 0.9914448613738104 0 -0.13052619222005163
outer loop
vertex 42.5 55 4.440892098500626e-15
vertex 41.051847617285404 55 -10.999809416857115
vertex 41.051847617285404 58 -10.999809416857115
endloop
endfacet
facet normal 0.9914448613738104 0 -0.13052619222005163
outer loop
vertex 42.5 55 4.440892098500626e-15
vertex 41.051847617285404 58 -10.999809416857115
vertex 42.5 58 0
endloop
endfacet
facet normal 0 1 0
outer loop
vertex 9.375744092944702 3 22.635048546526527
vertex 17.324116139070416 3 17.324116139070412
vertex 22.635048546526527 3 9.3757440929447
endloop
endfacet
facet normal 0 1 0
outer loop
vertex 9.375744092944702 3 22.635048546526527
vertex 22.635048546526527 3 9.3757440929447
vertex 23.903262897861026 3 3
endloop
endfacet
facet normal 0 1 0
outer loop
vertex 9.375744092944702 3 22.635048546526527
vertex 23.903262897861026 3 3
vertex -23.903262897861026 3 3
endloop
endfacet
facet normal 0 1 0
outer loop
vertex 9.375744092944702 3 22.635048546526527
vertex -23.903262897861026 3 3
vertex -22.635048546526527 3 9.3757440929447
endloop
endfacet
facet normal 0 1 0
outer loop
vertex 9.375744092944702 3 22.635048546526527
vertex -22.635048546526527 3 9.3757440929447
vertex -17.324116139070412 3 17.324116139070412
endloop
endfacet
facet normal 0 1 0
outer loop
vertex 9.375744092944702 3 22.635048546526527
vertex -17.324116139070412 3 17.324116139070412
vertex -9.375744092944698 3 22.635048546526527
endloop
endfacet
facet normal 0 1 0
outer loop
vertex 9.375744092944702 3 22.635048546526527
vertex -9.375744092944698 3 22.635048546526527
vertex 1.5001427834324121e-15 3 24.5
endloop
endfacet
facet normal 0 1 0
outer loop
vertex -6.661338147750939e-16 3 3
vertex -1.1480502970952724 3 2.7716385975338595
vertex -23.948686805043703 3 2.7716385975338595
endloop
endfacet
facet normal 0 1 0
outer loop
vertex -6.661338147750939e-16 3 3
vertex -23.948686805043703 3 2.7716385975338595
vertex -23.903262897861026 3 3
endloop
endfacet
facet normal 0 1 0
outer loop
vertex 23.903262897861026 3 3
vertex 23.948686805043707 3 2.7716385975338595
vertex 1.1480502970952706 3 2.7716385975338595
endloop
endfacet
facet normal 0 1 0
outer loop
vertex 23.903262897861026 3 3
vertex 1.1480502970952706 3 2.7716385975338595
vertex -6.661338147750939e-16 3 3
endloop
endfacet
facet normal 0 1 0
outer loop
vertex -1.1480502970952724 3 2.7716385975338595
vertex -2.121320343559643 3 2.1213203435596415
vertex -24.078043148491922 3 2.1213203435596415
endloop
endfacet
facet normal 0 1 0
outer loop
vertex -1.1480502970952724 3 2.7716385975338595
vertex -24.078043148491922 3 2.1213203435596415
vertex -23.948686805043703 3 2.7716385975338595
endloop
endfacet
facet normal 0 1 0
outer loop
vertex 23.948686805043707 3 2.7716385975338595
vertex 24.078043148491922 3 2.1213203435596415
vertex 2.1213203435596455 3 2.1213203435596415
endloop
endfacet
facet normal 0 1 0
outer loop
vertex 23.948686805043707 3 2.7716385975338595
vertex 2.1213203435596455 3 2.1213203435596415
vertex 1.1480502970952706 3 2.7716385975338595
endloop
endfacet
facet normal 0 1 0
outer loop
vertex -2.121320343559643 3 2.1213203435596415
vertex -2.771638597533859 3 1.1480502970952706
vertex -24.271638597533858 3 1.1480502970952706
endloop
endfacet
facet normal 0 1 0
outer loop
vertex -2.121320343559643 3 2.1213203435596415
vertex -24.271638597533858 3 1.1480502970952706
vertex -24.078043148491922 3 2.1213203435596415
endloop
endfacet
facet normal 0 1 0
outer loop
vertex 24.078043148491922 3 2.1213203435596415
vertex 24.27163859753386 3 1.1480502970952706
vertex 2.77163859753386 3 1.1480502970952706
endloop
endfacet
facet normal 0 1 0
outer loop
vertex 24.078043148491922 3 2.1213203435596415
vertex 2.77163859753386 3 1.1480502970952706
vertex 2.1213203435596455 3 2.1213203435596415
endloop
endfacet
facet normal 0 1 0
outer loop
vertex -2.771638597533859 3 1.1480502970952706
vertex -3 3 0
vertex -24.5 3 0
endloop
endfacet
facet normal 0 1 0
outer loop
vertex -2.771638597533859 3 1.1480502970952706
vertex -24.5 3 0
vertex -24.271638597533858 3 1.1480502970952706
endloop
endfacet
facet normal 0 1 0
outer loop
vertex 24.27163859753386 3 1.1480502970952706
vertex 24.5 3 0
vertex 3 3 0
endloop
endfacet
facet normal 0 1 0
outer loop
vertex 24.27163859753386 3 1.1480502970952706
vertex 3 3 0
vertex 2.77163859753386 3 1.1480502970952706
endloop
endfacet
facet normal 0 1 0
outer loop
vertex -3 3 0
vertex -2.7716385975338604 3 -1.1480502970952684
vertex -24.27163859753386 3 -1.1480502970952684
endloop
endfacet
facet normal 0 1 0
outer loop
vertex -3 3 0
vertex -24.27163859753386 3 -1.1480502970952684
vertex -24.5 3 0
endloop
endfacet
facet normal 0 1 0
outer loop
vertex 24.5 3 0
vertex 24.271638597533858 3 -1.1480502970952684
vertex 2.771638597533859 3 -1.1480502970952684
endloop
endfacet
facet normal 0 1 0
outer loop
vertex 24.5 3 0
vertex 2.771638597533859 3 -1.1480502970952684
vertex 3 3 0
endloop
endfacet
facet normal 0 1 0
outer loop
vertex -2.7716385975338604 3 -1.1480502970952684
vertex -2.121320343559642 3 -2.1213203435596433
vertex -24.078043148491922 3 -2.1213203435596433
endloop
endfacet
facet normal 0 1 0
outer loop
vertex -2.7716385975338604 3 -1.1480502970952684
vertex -24.078043148491922 3 -2.1213203435596433
vertex -24.27163859753386 3 -1.1480502970952684
endloop
endfacet
facet normal 0 1 0
outer loop
vertex 24.271638597533858 3 -1.1480502970952684
vertex 24.078043148491922 3 -2.1213203435596433
vertex 2.121320343559641 3 -2.1213203435596433
endloop
endfacet
facet normal 0 1 0
outer loop
vertex 24.271638597533858 3 -1.1480502970952684
vertex 2.121320343559641 3 -2.1213203435596433
vertex 2.771638597533859 3 -1.1480502970952684
endloop
endfacet
facet normal 0 1 0
outer loop
vertex -2.121320343559642 3 -2.1213203435596433
vertex -1.1480502970952717 3 -2.771638597533859
vertex -23.948686805043707 3 -2.771638597533859
endloop
endfacet
facet normal 0 1 0
outer loop
vertex -2.121320343559642 3 -2.1213203435596433
vertex -23.948686805043707 3 -2.771638597533859
vertex -24.078043148491922 3 -2.1213203435596433
endloop
endfacet
facet normal 0 1 0
outer loop
vertex 24.078043148491922 3 -2.1213203435596433
vertex 23.948686805043703 3 -2.771638597533859
vertex 1.1480502970952715 3 -2.771638597533859
endloop
endfacet
facet normal 0 1 0
outer loop
vertex 24.078043148491922 3 -2.1213203435596433
vertex 1.1480502970952715 3 -2.771638597533859
vertex 2.121320343559641 3 -2.1213203435596433
endloop
endfacet
facet normal 0 1 0
outer loop
vertex -1.1480502970952717 3 -2.771638597533859
vertex -1.1102230246251565e-15 3 -2.9999999999999996
vertex -23.903262897861026 3 -2.9999999999999996
endloop
endfacet
facet normal 0 1 0
outer loop
vertex -1.1480502970952717 3 -2.771638597533859
vertex -23.903262897861026 3 -2.9999999999999996
vertex -23.948686805043707 3 -2.771638597533859
endloop
endfacet
facet normal 0 1 0
outer loop
vertex 23.948686805043703 3 -2.771638597533859
vertex 23.903262897861023 3 -2.9999999999999996
vertex -1.1102230246251565e-15 3 -2.9999999999999996
endloop
endfacet
facet normal 0 1 0
outer loop
vertex 23.948686805043703 3 -2.771638597533859
vertex -1.1102230246251565e-15 3 -2.9999999999999996
vertex 1.1480502970952715 3 -2.771638597533859
endloop
endfacet
facet normal 0 1 0
outer loop
vertex 23.903262897861023 3 -2.9999999999999996
vertex 22.63504854652652 3 -9.375744092944696
vertex 17.32411613907041 3 -17.324116139070412
endloop
endfacet
facet normal 0 1 0
outer loop
vertex 23.903262897861023 3 -2.9999999999999996
vertex 17.32411613907041 3 -17.324116139070412
vertex 9.375744092944705 3 -22.63504854652652
endloop
endfacet
facet normal 0 1 0
outer loop
vertex 23.903262897861023 3 -2.9999999999999996
vertex 9.375744092944705 3 -22.63504854652652
vertex -5.329070518200751e-15 3 -24.5
endloop
endfacet
facet normal 0 1 0
outer loop
vertex 23.903262897861023 3 -2.9999999999999996
vertex -5.329070518200751e-15 3 -24.5
vertex -9.375744092944712 3 -22.63504854652652
endloop
endfacet
facet normal 0 1 0
outer loop
vertex 23.903262897861023 3 -2.9999999999999996
vertex -9.375744092944712 3 -22.63504854652652
vertex -17.32411613907042 3 -17.324116139070412
endloop
endfacet
facet normal 0 1 0
outer loop
vertex 23.903262897861023 3 -2.9999999999999996
vertex -17.32411613907042 3 -17.324116139070412
vertex -22.635048546526527 3 -9.375744092944696
endloop
endfacet
facet normal 0 1 0
outer loop
vertex 23.903262897861023 3 -2.9999999999999996
vertex -22.635048546526527 3 -9.375744092944696
vertex -23.903262897861026 3 -2.9999999999999996
endloop
endfacet
facet normal -0.9798120858124714 0.04453691299147597 -0.19489674157615916
outer loop
vertex 26.999999999999996 58 0
vertex 24.5 3 0
vertex 22.635048546526527 3 9.3757440929447
endloop
endfacet
facet normal -0.9798120858124714 0.04453691299147597 -0.19489674157615916
outer loop
vertex 26.999999999999996 58 0
vertex 22.635048546526527 3 9.3757440929447
vertex 24.944747377804745 58 10.332452673857418
endloop
endfacet
facet normal -0.8306445777661982 0.04453691299147595 -0.5550189625668696
outer loop
vertex 24.944747377804745 58 10.332452673857418
vertex 22.635048546526527 3 9.3757440929447
vertex 17.324116139070416 3 17.324116139070412
endloop
endfacet
facet normal -0.8306445777661982 0.04453691299147595 -0.5550189625668696
outer loop
vertex 24.944747377804745 58 10.332452673857418
vertex 17.324116139070416 3 17.324116139070412
vertex 19.091883092036788 58 19.091883092036774
endloop
endfacet
facet normal -0.5550189625668698 0.04453691299147597 -0.8306445777661979
outer loop
vertex 19.091883092036788 58 19.091883092036774
vertex 17.324116139070416 3 17.324116139070412
vertex 9.375744092944702 3 22.635048546526527
endloop
endfacet
facet normal -0.5550189625668698 0.04453691299147597 -0.8306445777661979
outer loop
vertex 19.091883092036788 58 19.091883092036774
vertex 9.375744092944702 3 22.635048546526527
vertex 10.33245267385741 58 24.94474737780475
endloop
endfacet
facet normal -0.19489674157615916 0.04453691299147594 -0.9798120858124714
outer loop
vertex 10.33245267385741 58 24.94474737780475
vertex 9.375744092944702 3 22.635048546526527
vertex 1.5001427834324121e-15 3 24.5
endloop
endfacet
facet normal -0.19489674157615916 0.04453691299147594 -0.9798120858124714
outer loop
vertex 10.33245267385741 58 24.94474737780475
vertex 1.5001427834324121e-15 3 24.5
vertex 8.881784197001252e-15 58 27
endloop
endfacet
facet normal 0.19489674157615916 0.04453691299147597 -0.9798120858124714
outer loop
vertex 8.881784197001252e-15 58 27
vertex 1.5001427834324121e-15 3 24.5
vertex -9.375744092944698 3 22.635048546526527
endloop
endfacet
facet normal 0.19489674157615916 0.04453691299147597 -0.9798120858124714
outer loop
vertex 8.881784197001252e-15 58 27
vertex -9.375744092944698 3 22.635048546526527
vertex -10.332452673857391 58 24.94474737780475
endloop
endfacet
facet normal 0.5550189625668694 0.04453691299147594 -0.8306445777661982
outer loop
vertex -10.332452673857391 58 24.94474737780475
vertex -9.375744092944698 3 22.635048546526527
vertex -17.324116139070412 3 17.324116139070412
endloop
endfacet
facet normal 0.5550189625668694 0.04453691299147594 -0.8306445777661982
outer loop
vertex -10.332452673857391 58 24.94474737780475
vertex -17.324116139070412 3 17.324116139070412
vertex -19.09188309203681 58 19.091883092036774
endloop
endfacet
facet normal 0.8306445777661979 0.04453691299147597 -0.5550189625668698
outer loop
vertex -19.09188309203681 58 19.091883092036774
vertex -17.324116139070412 3 17.324116139070412
vertex -22.635048546526527 3 9.3757440929447
endloop
endfacet
facet normal 0.8306445777661979 0.04453691299147597 -0.5550189625668698
outer loop
vertex -19.09188309203681 58 19.091883092036774
vertex -22.635048546526527 3 9.3757440929447
vertex -24.944747377804738 58 10.332452673857418
endloop
endfacet
facet normal 0.9798120858124713 0.04453691299147595 -0.19489674157615922
outer loop
vertex -24.944747377804738 58 10.332452673857418
vertex -22.635048546526527 3 9.3757440929447
vertex -24.5 3 0
endloop
endfacet
facet normal 0.9798120858124713 0.04453691299147595 -0.19489674157615922
outer loop
vertex -24.944747377804738 58 10.332452673857418
vertex -24.5 3 0
vertex -26.999999999999996 58 0
endloop
endfacet
facet normal 0.9798120858124714 0.04453691299147597 0.19489674157615916
outer loop
vertex -26.999999999999996 58 0
vertex -24.5 3 0
vertex -22.635048546526527 3 -9.375744092944696
endloop
endfacet
facet normal 0.9798120858124714 0.04453691299147597 0.19489674157615916
outer loop
vertex -26.999999999999996 58 0
vertex -22.635048546526527 3 -9.375744092944696
vertex -24.944747377804738 58 -10.332452673857441
endloop
endfacet
facet normal 0.8306445777661985 0.04453691299147601 0.5550189625668692
outer loop
vertex -24.944747377804738 58 -10.332452673857441
vertex -22.635048546526527 3 -9.375744092944696
vertex -17.32411613907042 3 -17.324116139070412
endloop
endfacet
facet normal 0.8306445777661985 0.04453691299147601 0.5550189625668692
outer loop
vertex -24.944747377804738 58 -10.332452673857441
vertex -17.32411613907042 3 -17.324116139070412
vertex -19.091883092036806 58 -19.091883092036767
endloop
endfacet
facet normal 0.5550189625668696 0.04453691299147597 0.8306445777661982
outer loop
vertex -19.091883092036806 58 -19.091883092036767
vertex -17.32411613907042 3 -17.324116139070412
vertex -9.375744092944712 3 -22.63504854652652
endloop
endfacet
facet normal 0.5550189625668696 0.04453691299147597 0.8306445777661982
outer loop
vertex -19.091883092036806 58 -19.091883092036767
vertex -9.375744092944712 3 -22.63504854652652
vertex -10.332452673857436 58 -24.944747377804735
endloop
endfacet
facet normal 0.19489674157615972 0.04453691299147594 0.9798120858124711
outer loop
vertex -10.332452673857436 58 -24.944747377804735
vertex -9.375744092944712 3 -22.63504854652652
vertex -5.329070518200751e-15 3 -24.5
endloop
endfacet
facet normal 0.19489674157615972 0.04453691299147594 0.9798120858124711
outer loop
vertex -10.332452673857436 58 -24.944747377804735
vertex -5.329070518200751e-15 3 -24.5
vertex 5.329070518200751e-15 58 -27
endloop
endfacet
facet normal -0.1948967415761593 0.04453691299147597 0.9798120858124711
outer loop
vertex 5.329070518200751e-15 58 -27
vertex -5.329070518200751e-15 3 -24.5
vertex 9.375744092944705 3 -22.63504854652652
endloop
endfacet
facet normal -0.1948967415761593 0.04453691299147597 0.9798120858124711
outer loop
vertex 5.329070518200751e-15 58 -27
vertex 9.375744092944705 3 -22.63504854652652
vertex 10.332452673857425 58 -24.944747377804735
endloop
endfacet
facet normal -0.5550189625668694 0.04453691299147594 0.830644577766198
outer loop
vertex 10.332452673857425 58 -24.944747377804735
vertex 9.375744092944705 3 -22.63504854652652
vertex 17.32411613907041 3 -17.324116139070412
endloop
endfacet
facet normal -0.5550189625668694 0.04453691299147594 0.830644577766198
outer loop
vertex 10.332452673857425 58 -24.944747377804735
vertex 17.32411613907041 3 -17.324116139070412
vertex 19.09188309203678 58 -19.091883092036767
endloop
endfacet
facet normal -0.8306445777661979 0.044536912991475976 0.5550189625668699
outer loop
vertex 19.09188309203678 58 -19.091883092036767
vertex 17.32411613907041 3 -17.324116139070412
vertex 22.63504854652652 3 -9.375744092944696
endloop
endfacet
facet normal -0.8306445777661979 0.044536912991475976 0.5550189625668699
outer loop
vertex 19.09188309203678 58 -19.091883092036767
vertex 22.63504854652652 3 -9.375744092944696
vertex 24.944747377804735 58 -10.332452673857441
endloop
endfacet
facet normal -0.9798120858124711 0.04453691299147594 0.19489674157615966
outer loop
vertex 24.944747377804735 58 -10.332452673857441
vertex 22.63504854652652 3 -9.375744092944696
vertex 24.5 3 0
endloop
endfacet
facet normal -0.9798120858124711 0.04453691299147594 0.19489674157615966
outer loop
vertex 24.944747377804735 58 -10.332452673857441
vertex 24.5 3 0
vertex 26.999999999999996 58 0
endloop
endfacet
facet normal -0.9807852804032304 0 -0.1950903220161285
outer loop
vertex 2.77163859753386 3 1.1480502970952706
vertex 3 3 0
vertex 3.0000000000000004 0 0
endloop
endfacet
facet normal -0.9807852804032304 0 -0.1950903220161285
outer loop
vertex 2.77163859753386 3 1.1480502970952706
vertex 3.0000000000000004 0 0
vertex 2.77163859753386 0 1.148050297095267
endloop
endfacet
facet normal -0.8314696123025455 0 -0.555570233019602
outer loop
vertex 2.1213203435596455 3 2.1213203435596415
vertex 2.77163859753386 3 1.1480502970952706
vertex 2.77163859753386 0 1.148050297095267
endloop
endfacet
facet normal -0.8314696123025455 0 -0.555570233019602
outer loop
vertex 2.1213203435596455 3 2.1213203435596415
vertex 2.77163859753386 0 1.148050297095267
vertex 2.121320343559643 0 2.121320343559642
endloop
endfacet
facet normal -0.5555702330196022 0 -0.8314696123025453
outer loop
vertex 1.1480502970952706 3 2.7716385975338595
vertex 2.1213203435596455 3 2.1213203435596415
vertex 2.121320343559643 0 2.121320343559642
endloop
endfacet
facet normal -0.5555702330196022 0 -0.8314696123025453
outer loop
vertex 1.1480502970952706 3 2.7716385975338595
vertex 2.121320343559643 0 2.121320343559642
vertex 1.148050297095272 0 2.771638597533858
endloop
endfacet
facet normal -0.1950903220161285 0 -0.9807852804032304
outer loop
vertex -6.661338147750939e-16 3 3
vertex 1.1480502970952706 3 2.7716385975338595
vertex 1.148050297095272 0 2.771638597533858
endloop
endfacet
facet normal -0.1950903220161285 0 -0.9807852804032304
outer loop
vertex -6.661338147750939e-16 3 3
vertex 1.148050297095272 0 2.771638597533858
vertex 0 0 2.999999999999999
endloop
endfacet
facet normal 0.19509032201612847 0 -0.9807852804032304
outer loop
vertex -1.1480502970952724 3 2.7716385975338595
vertex -6.661338147750939e-16 3 3
vertex 0 0 2.999999999999999
endloop
endfacet
facet normal 0.19509032201612847 0 -0.9807852804032304
outer loop
vertex -1.1480502970952724 3 2.7716385975338595
vertex 0 0 2.999999999999999
vertex -1.148050297095267 0 2.771638597533858
endloop
endfacet
facet normal 0.555570233019602 0 -0.8314696123025455
outer loop
vertex -2.121320343559643 3 2.1213203435596415
vertex -1.1480502970952724 3 2.7716385975338595
vertex -1.148050297095267 0 2.771638597533858
endloop
endfacet
facet normal 0.555570233019602 0 -0.8314696123025455
outer loop
vertex -2.121320343559643 3 2.1213203435596415
vertex -1.148050297095267 0 2.771638597533858
vertex -2.1213203435596455 0 2.121320343559642
endloop
endfacet
facet normal 0.8314696123025452 0 -0.5555702330196022
outer loop
vertex -2.771638597533859 3 1.1480502970952706
vertex -2.121320343559643 3 2.1213203435596415
vertex -2.1213203435596455 0 2.121320343559642
endloop
endfacet
facet normal 0.8314696123025452 0 -0.5555702330196022
outer loop
vertex -2.771638597533859 3 1.1480502970952706
vertex -2.1213203435596455 0 2.121320343559642
vertex -2.771638597533858 0 1.148050297095267
endloop
endfacet
facet normal 0.9807852804032304 0 -0.1950903220161285
outer loop
vertex -3 3 0
vertex -2.771638597533859 3 1.1480502970952706
vertex -2.771638597533858 0 1.148050297095267
endloop
endfacet
facet normal 0.9807852804032304 0 -0.1950903220161285
outer loop
vertex -3 3 0
vertex -2.771638597533858 0 1.148050297095267
vertex -3 0 0
endloop
endfacet
facet normal 0.9807852804032304 0 0.1950903220161281
outer loop
vertex -2.7716385975338604 3 -1.1480502970952684
vertex -3 3 0
vertex -3 0 0
endloop
endfacet
facet normal 0.9807852804032304 0 0.1950903220161281
outer loop
vertex -2.7716385975338604 3 -1.1480502970952684
vertex -3 0 0
vertex -2.7716385975338635 0 -1.148050297095267
endloop
endfacet
facet normal 0.8314696123025453 0 0.5555702330196022
outer loop
vertex -2.121320343559642 3 -2.1213203435596433
vertex -2.7716385975338604 3 -1.1480502970952684
vertex -2.7716385975338635 0 -1.148050297095267
endloop
endfacet
facet normal 0.8314696123025453 0 0.5555702330196022
outer loop
vertex -2.121320343559642 3 -2.1213203435596433
vertex -2.7716385975338635 0 -1.148050297095267
vertex -2.1213203435596437 0 -2.1213203435596437
endloop
endfacet
facet normal 0.5555702330196025 0 0.8314696123025451
outer loop
vertex -1.1480502970952717 3 -2.771638597533859
vertex -2.121320343559642 3 -2.1213203435596433
vertex -2.1213203435596437 0 -2.1213203435596437
endloop
endfacet
facet normal 0.5555702330196025 0 0.8314696123025451
outer loop
vertex -1.1480502970952717 3 -2.771638597533859
vertex -2.1213203435596437 0 -2.1213203435596437
vertex -1.148050297095276 0 -2.7716385975338578
endloop
endfacet
facet normal 0.19509032201612866 0 0.9807852804032304
outer loop
vertex -1.1102230246251565e-15 3 -2.9999999999999996
vertex -1.1480502970952717 3 -2.771638597533859
vertex -1.148050297095276 0 -2.7716385975338578
endloop
endfacet
facet normal 0.19509032201612866 0 0.9807852804032304
outer loop
vertex -1.1102230246251565e-15 3 -2.9999999999999996
vertex -1.148050297095276 0 -2.7716385975338578
vertex 1.3322676295501878e-15 0 -2.9999999999999996
endloop
endfacet
facet normal -0.19509032201612833 0 0.9807852804032304
outer loop
vertex 1.1480502970952715 3 -2.771638597533859
vertex -1.1102230246251565e-15 3 -2.9999999999999996
vertex 1.3322676295501878e-15 0 -2.9999999999999996
endloop
endfacet
facet normal -0.19509032201612833 0 0.9807852804032304
outer loop
vertex 1.1480502970952715 3 -2.771638597533859
vertex 1.3322676295501878e-15 0 -2.9999999999999996
vertex 1.1480502970952797 0 -2.7716385975338578
endloop
endfacet
facet normal -0.5555702330196024 0 0.831469612302545
outer loop
vertex 2.121320343559641 3 -2.1213203435596433
vertex 1.1480502970952715 3 -2.771638597533859
vertex 1.1480502970952797 0 -2.7716385975338578
endloop
endfacet
facet normal -0.5555702330196024 0 0.831469612302545
outer loop
vertex 2.121320343559641 3 -2.1213203435596433
vertex 1.1480502970952797 0 -2.7716385975338578
vertex 2.1213203435596393 0 -2.1213203435596437
endloop
endfacet
facet normal -0.8314696123025449 0 0.5555702330196027
outer loop
vertex 2.771638597533859 3 -1.1480502970952684
vertex 2.121320343559641 3 -2.1213203435596433
vertex 2.1213203435596393 0 -2.1213203435596437
endloop
endfacet
facet normal -0.8314696123025449 0 0.5555702330196027
outer loop
vertex 2.771638597533859 3 -1.1480502970952684
vertex 2.1213203435596393 0 -2.1213203435596437
vertex 2.7716385975338627 0 -1.148050297095267
endloop
endfacet
facet normal -0.9807852804032303 0 0.1950903220161287
outer loop
vertex 3 3 0
vertex 2.771638597533859 3 -1.1480502970952684
vertex 2.7716385975338627 0 -1.148050297095267
endloop
endfacet
facet normal -0.9807852804032303 0 0.1950903220161287
outer loop
vertex 3 3 0
vertex 2.7716385975338627 0 -1.148050297095267
vertex 3.0000000000000004 0 0
endloop
endfacet
endsolid csg.js
